G75*
G70*
%OFA0B0*%
%FSLAX24Y24*%
%IPPOS*%
%LPD*%
%AMOC8*
5,1,8,0,0,1.08239X$1,22.5*
%
%ADD10C,0.0060*%
%ADD11C,0.0000*%
%ADD12C,0.0080*%
%ADD13C,0.0050*%
%ADD14R,0.0005X0.0110*%
%ADD15R,0.0005X0.0210*%
%ADD16R,0.0005X0.0280*%
%ADD17R,0.0005X0.0325*%
%ADD18R,0.0005X0.0365*%
%ADD19R,0.0005X0.0410*%
%ADD20R,0.0005X0.0440*%
%ADD21R,0.0005X0.0470*%
%ADD22R,0.0005X0.0505*%
%ADD23R,0.0005X0.0530*%
%ADD24R,0.0005X0.0555*%
%ADD25R,0.0005X0.0580*%
%ADD26R,0.0005X0.0600*%
%ADD27R,0.0005X0.0625*%
%ADD28R,0.0005X0.0645*%
%ADD29R,0.0005X0.0665*%
%ADD30R,0.0005X0.0685*%
%ADD31R,0.0005X0.0705*%
%ADD32R,0.0005X0.0715*%
%ADD33R,0.0005X0.0735*%
%ADD34R,0.0005X0.0755*%
%ADD35R,0.0005X0.0090*%
%ADD36R,0.0005X0.0770*%
%ADD37R,0.0005X0.0190*%
%ADD38R,0.0005X0.0355*%
%ADD39R,0.0005X0.0360*%
%ADD40R,0.0005X0.0260*%
%ADD41R,0.0005X0.0315*%
%ADD42R,0.0005X0.0320*%
%ADD43R,0.0005X0.0295*%
%ADD44R,0.0005X0.0275*%
%ADD45R,0.0005X0.0400*%
%ADD46R,0.0005X0.0265*%
%ADD47R,0.0005X0.0435*%
%ADD48R,0.0005X0.0255*%
%ADD49R,0.0005X0.0465*%
%ADD50R,0.0005X0.0245*%
%ADD51R,0.0005X0.0495*%
%ADD52R,0.0005X0.0235*%
%ADD53R,0.0005X0.0525*%
%ADD54R,0.0005X0.0230*%
%ADD55R,0.0005X0.0240*%
%ADD56R,0.0005X0.0545*%
%ADD57R,0.0005X0.0820*%
%ADD58R,0.0005X0.0220*%
%ADD59R,0.0005X0.0025*%
%ADD60R,0.0005X0.0795*%
%ADD61R,0.0005X0.0215*%
%ADD62R,0.0005X0.0035*%
%ADD63R,0.0005X0.0040*%
%ADD64R,0.0005X0.0800*%
%ADD65R,0.0005X0.0205*%
%ADD66R,0.0005X0.0050*%
%ADD67R,0.0005X0.0805*%
%ADD68R,0.0005X0.0165*%
%ADD69R,0.0005X0.0055*%
%ADD70R,0.0005X0.0200*%
%ADD71R,0.0005X0.0060*%
%ADD72R,0.0005X0.0300*%
%ADD73R,0.0005X0.0195*%
%ADD74R,0.0005X0.0065*%
%ADD75R,0.0005X0.0345*%
%ADD76R,0.0005X0.0070*%
%ADD77R,0.0005X0.0385*%
%ADD78R,0.0005X0.0080*%
%ADD79R,0.0005X0.0425*%
%ADD80R,0.0005X0.0185*%
%ADD81R,0.0005X0.0085*%
%ADD82R,0.0005X0.0635*%
%ADD83R,0.0005X0.0810*%
%ADD84R,0.0005X0.0095*%
%ADD85R,0.0005X0.0335*%
%ADD86R,0.0005X0.0655*%
%ADD87R,0.0005X0.0105*%
%ADD88R,0.0005X0.0290*%
%ADD89R,0.0005X0.0660*%
%ADD90R,0.0005X0.0115*%
%ADD91R,0.0005X0.0285*%
%ADD92R,0.0005X0.0120*%
%ADD93R,0.0005X0.0270*%
%ADD94R,0.0005X0.0675*%
%ADD95R,0.0005X0.0130*%
%ADD96R,0.0005X0.0680*%
%ADD97R,0.0005X0.0135*%
%ADD98R,0.0005X0.0250*%
%ADD99R,0.0005X0.0140*%
%ADD100R,0.0005X0.0180*%
%ADD101R,0.0005X0.0695*%
%ADD102R,0.0005X0.0150*%
%ADD103R,0.0005X0.0160*%
%ADD104R,0.0005X0.0155*%
%ADD105R,0.0005X0.0145*%
%ADD106R,0.0005X0.0700*%
%ADD107R,0.0005X0.0225*%
%ADD108R,0.0005X0.0170*%
%ADD109R,0.0005X0.0100*%
%ADD110R,0.0005X0.0075*%
%ADD111R,0.0005X0.0720*%
%ADD112R,0.0005X0.0725*%
%ADD113R,0.0005X0.0340*%
%ADD114R,0.0005X0.0305*%
%ADD115R,0.0005X0.0175*%
%ADD116R,0.0005X0.0005*%
%ADD117R,0.0005X0.0010*%
%ADD118R,0.0005X0.0015*%
%ADD119R,0.0005X0.0020*%
%ADD120R,0.0005X0.0030*%
%ADD121R,0.0005X0.0125*%
%ADD122R,0.0005X0.0045*%
%ADD123R,0.0005X0.0370*%
%ADD124R,0.0005X0.0375*%
%ADD125R,0.0005X0.0350*%
%ADD126R,0.0005X0.0330*%
%ADD127R,0.0005X0.0485*%
%ADD128R,0.0005X0.0480*%
%ADD129R,0.0005X0.0460*%
%ADD130R,0.0005X0.0445*%
%ADD131R,0.0005X0.0310*%
%ADD132R,0.0005X0.0380*%
%ADD133R,0.0005X0.0415*%
%ADD134R,0.0005X0.0450*%
%ADD135R,0.0005X0.0490*%
%ADD136R,0.0005X0.0965*%
%ADD137R,0.0005X0.0975*%
%ADD138R,0.0005X0.0980*%
%ADD139R,0.0005X0.0990*%
%ADD140R,0.0005X0.1005*%
%ADD141R,0.0005X0.0615*%
%ADD142R,0.0005X0.0640*%
%ADD143R,0.0005X0.0605*%
%ADD144R,0.0005X0.0620*%
%ADD145R,0.0005X0.0590*%
%ADD146R,0.0005X0.0570*%
%ADD147R,0.0005X0.0540*%
%ADD148R,0.0005X0.0515*%
%ADD149R,0.0005X0.0565*%
%ADD150R,0.0005X0.0535*%
%ADD151R,0.0005X0.0395*%
%ADD152R,0.0005X0.0520*%
%ADD153R,0.0005X0.0500*%
%ADD154R,0.0005X0.0430*%
%ADD155C,0.0059*%
D10*
X005440Y003185D02*
X005667Y003185D01*
X005780Y003298D01*
X005667Y003412D01*
X005440Y003412D01*
X005497Y003553D02*
X005440Y003610D01*
X005440Y003780D01*
X005780Y003780D01*
X005940Y003847D02*
X005940Y003960D01*
X005997Y004017D01*
X005940Y003847D02*
X005997Y003790D01*
X006224Y003790D01*
X006280Y003847D01*
X006280Y003960D01*
X006224Y004017D01*
X006560Y004160D02*
X006560Y003160D01*
X006562Y003143D01*
X006566Y003126D01*
X006573Y003110D01*
X006583Y003096D01*
X006596Y003083D01*
X006610Y003073D01*
X006626Y003066D01*
X006643Y003062D01*
X006660Y003060D01*
X007260Y003060D01*
X007277Y003062D01*
X007294Y003066D01*
X007310Y003073D01*
X007324Y003083D01*
X007337Y003096D01*
X007347Y003110D01*
X007354Y003126D01*
X007358Y003143D01*
X007360Y003160D01*
X007360Y004160D01*
X007358Y004177D01*
X007354Y004194D01*
X007347Y004210D01*
X007337Y004224D01*
X007324Y004237D01*
X007310Y004247D01*
X007294Y004254D01*
X007277Y004258D01*
X007260Y004260D01*
X006660Y004260D01*
X006643Y004258D01*
X006626Y004254D01*
X006610Y004247D01*
X006596Y004237D01*
X006583Y004224D01*
X006573Y004210D01*
X006566Y004194D01*
X006562Y004177D01*
X006560Y004160D01*
X006280Y004590D02*
X006280Y004703D01*
X006280Y004647D02*
X005940Y004647D01*
X005940Y004703D02*
X005940Y004590D01*
X005780Y004565D02*
X005780Y004678D01*
X005724Y004735D01*
X005610Y004678D02*
X005610Y004565D01*
X005667Y004508D01*
X005724Y004508D01*
X005780Y004565D01*
X005610Y004678D02*
X005553Y004735D01*
X005497Y004735D01*
X005440Y004678D01*
X005440Y004565D01*
X005497Y004508D01*
X005440Y004149D02*
X005440Y003978D01*
X005497Y003922D01*
X005610Y003922D01*
X005667Y003978D01*
X005667Y004149D01*
X005780Y004149D02*
X005440Y004149D01*
X005667Y003780D02*
X005667Y003610D01*
X005610Y003553D01*
X005497Y003553D01*
X005610Y003412D02*
X005610Y003185D01*
X005940Y003340D02*
X005940Y003453D01*
X005940Y003397D02*
X006280Y003397D01*
X006280Y003453D02*
X006280Y003340D01*
X007490Y003303D02*
X007830Y003303D01*
X007717Y003190D01*
X007490Y003190D02*
X007490Y003417D01*
X007547Y003940D02*
X007490Y003997D01*
X007490Y004110D01*
X007547Y004167D01*
X007774Y004167D01*
X007547Y003940D01*
X007774Y003940D01*
X007830Y003997D01*
X007830Y004110D01*
X007774Y004167D01*
X009065Y004120D02*
X009065Y004290D01*
X009122Y004347D01*
X009178Y004347D01*
X009235Y004290D01*
X009235Y004120D01*
X009065Y004120D02*
X009405Y004120D01*
X009405Y004290D01*
X009349Y004347D01*
X009292Y004347D01*
X009235Y004290D01*
X009349Y004488D02*
X009235Y004602D01*
X009065Y004602D01*
X009235Y004602D02*
X009349Y004715D01*
X009405Y004715D01*
X009235Y004857D02*
X009235Y005083D01*
X009292Y005225D02*
X009235Y005282D01*
X009235Y005395D01*
X009178Y005452D01*
X009122Y005452D01*
X009065Y005395D01*
X009065Y005282D01*
X009122Y005225D01*
X009292Y005225D02*
X009349Y005225D01*
X009405Y005282D01*
X009405Y005395D01*
X009349Y005452D01*
X009292Y005593D02*
X009405Y005707D01*
X009292Y005820D01*
X009065Y005820D01*
X009235Y005820D02*
X009235Y005593D01*
X009292Y005593D02*
X009065Y005593D01*
X009122Y006330D02*
X009065Y006387D01*
X009065Y006500D01*
X009122Y006557D01*
X009178Y006557D01*
X009235Y006500D01*
X009235Y006443D01*
X009235Y006500D02*
X009292Y006557D01*
X009349Y006557D01*
X009405Y006500D01*
X009405Y006387D01*
X009349Y006330D01*
X009122Y006698D02*
X009065Y006698D01*
X009065Y006755D01*
X009122Y006755D01*
X009122Y006698D01*
X009122Y006882D02*
X009349Y007109D01*
X009122Y007109D01*
X009065Y007052D01*
X009065Y006939D01*
X009122Y006882D01*
X009349Y006882D01*
X009405Y006939D01*
X009405Y007052D01*
X009349Y007109D01*
X006805Y007105D02*
X006805Y006992D01*
X006749Y006935D01*
X006692Y006935D01*
X006635Y006992D01*
X006635Y007105D01*
X006578Y007162D01*
X006522Y007162D01*
X006465Y007105D01*
X006465Y006992D01*
X006522Y006935D01*
X006749Y007162D02*
X006805Y007105D01*
X006805Y007303D02*
X006805Y007474D01*
X006749Y007530D01*
X006522Y007530D01*
X006465Y007474D01*
X006465Y007303D01*
X006805Y007303D01*
X006692Y007672D02*
X006465Y007672D01*
X006635Y007672D02*
X006635Y007899D01*
X006692Y007899D02*
X006465Y007899D01*
X006692Y007899D02*
X006805Y007785D01*
X006692Y007672D01*
X005805Y007672D02*
X005465Y007672D01*
X005465Y007899D01*
X005522Y007530D02*
X005465Y007474D01*
X005465Y007360D01*
X005522Y007303D01*
X005749Y007303D01*
X005805Y007360D01*
X005805Y007474D01*
X005749Y007530D01*
X005749Y007162D02*
X005805Y007105D01*
X005805Y006992D01*
X005749Y006935D01*
X005692Y006935D01*
X005635Y006992D01*
X005635Y007105D01*
X005578Y007162D01*
X005522Y007162D01*
X005465Y007105D01*
X005465Y006992D01*
X005522Y006935D01*
X004805Y006935D02*
X004578Y006935D01*
X004465Y007048D01*
X004578Y007162D01*
X004805Y007162D01*
X004749Y007303D02*
X004522Y007303D01*
X004465Y007360D01*
X004465Y007474D01*
X004522Y007530D01*
X004522Y007672D02*
X004465Y007728D01*
X004465Y007842D01*
X004522Y007899D01*
X004522Y007672D02*
X004749Y007672D01*
X004805Y007728D01*
X004805Y007842D01*
X004749Y007899D01*
X004749Y007530D02*
X004805Y007474D01*
X004805Y007360D01*
X004749Y007303D01*
X003805Y007303D02*
X003465Y007530D01*
X003805Y007530D01*
X003805Y007672D02*
X003805Y007842D01*
X003749Y007899D01*
X003522Y007899D01*
X003465Y007842D01*
X003465Y007672D01*
X003805Y007672D01*
X003805Y007303D02*
X003465Y007303D01*
X003522Y007162D02*
X003635Y007162D01*
X003635Y007048D01*
X003522Y006935D02*
X003465Y006992D01*
X003465Y007105D01*
X003522Y007162D01*
X003749Y007162D02*
X003805Y007105D01*
X003805Y006992D01*
X003749Y006935D01*
X003522Y006935D01*
X005440Y005358D02*
X005440Y005244D01*
X005440Y005301D02*
X005780Y005301D01*
X005780Y005244D01*
X005940Y005210D02*
X005940Y005097D01*
X005997Y005040D01*
X006224Y005040D01*
X006280Y005097D01*
X006280Y005210D01*
X006224Y005267D01*
X005997Y005267D02*
X005940Y005210D01*
X005667Y005046D02*
X005667Y004933D01*
X005610Y004876D01*
X005497Y004876D01*
X005440Y004933D01*
X005440Y005046D01*
X005553Y005103D02*
X005553Y004876D01*
X005667Y005046D02*
X005610Y005103D01*
X005553Y005103D01*
X009065Y003553D02*
X009065Y003440D01*
X009122Y003383D01*
X009349Y003383D01*
X009405Y003440D01*
X009405Y003553D01*
X009349Y003610D01*
X009122Y003610D02*
X009065Y003553D01*
X009122Y003242D02*
X009065Y003185D01*
X009065Y003072D01*
X009122Y003015D01*
X009349Y003015D01*
X009405Y003072D01*
X009405Y003185D01*
X009349Y003242D01*
X009349Y004488D02*
X009405Y004488D01*
D11*
X001785Y000536D02*
X001719Y000534D01*
X001653Y000536D01*
X001587Y000542D01*
X001521Y000551D01*
X001456Y000564D01*
X001391Y000581D01*
X001328Y000601D01*
X001266Y000625D01*
X001206Y000652D01*
X001147Y000683D01*
X001089Y000717D01*
X001034Y000754D01*
X000981Y000794D01*
X000931Y000837D01*
X000882Y000882D01*
X000837Y000931D01*
X000794Y000981D01*
X000754Y001034D01*
X000717Y001089D01*
X000683Y001147D01*
X000652Y001206D01*
X000625Y001266D01*
X000601Y001328D01*
X000581Y001391D01*
X000564Y001456D01*
X000551Y001521D01*
X000542Y001587D01*
X000536Y001653D01*
X000534Y001719D01*
X000536Y001785D01*
X000535Y001785D02*
X000535Y008535D01*
X001160Y008535D02*
X001162Y008585D01*
X001168Y008634D01*
X001178Y008683D01*
X001191Y008730D01*
X001209Y008777D01*
X001230Y008822D01*
X001254Y008865D01*
X001282Y008906D01*
X001313Y008945D01*
X001347Y008981D01*
X001384Y009015D01*
X001424Y009045D01*
X001465Y009072D01*
X001509Y009096D01*
X001554Y009116D01*
X001601Y009132D01*
X001649Y009145D01*
X001698Y009154D01*
X001748Y009159D01*
X001797Y009160D01*
X001847Y009157D01*
X001896Y009150D01*
X001945Y009139D01*
X001992Y009125D01*
X002038Y009106D01*
X002083Y009084D01*
X002126Y009059D01*
X002166Y009030D01*
X002204Y008998D01*
X002240Y008964D01*
X002273Y008926D01*
X002302Y008886D01*
X002328Y008844D01*
X002351Y008800D01*
X002370Y008754D01*
X002386Y008707D01*
X002398Y008658D01*
X002406Y008609D01*
X002410Y008560D01*
X002410Y008510D01*
X002406Y008461D01*
X002398Y008412D01*
X002386Y008363D01*
X002370Y008316D01*
X002351Y008270D01*
X002328Y008226D01*
X002302Y008184D01*
X002273Y008144D01*
X002240Y008106D01*
X002204Y008072D01*
X002166Y008040D01*
X002126Y008011D01*
X002083Y007986D01*
X002038Y007964D01*
X001992Y007945D01*
X001945Y007931D01*
X001896Y007920D01*
X001847Y007913D01*
X001797Y007910D01*
X001748Y007911D01*
X001698Y007916D01*
X001649Y007925D01*
X001601Y007938D01*
X001554Y007954D01*
X001509Y007974D01*
X001465Y007998D01*
X001424Y008025D01*
X001384Y008055D01*
X001347Y008089D01*
X001313Y008125D01*
X001282Y008164D01*
X001254Y008205D01*
X001230Y008248D01*
X001209Y008293D01*
X001191Y008340D01*
X001178Y008387D01*
X001168Y008436D01*
X001162Y008485D01*
X001160Y008535D01*
X000535Y008535D02*
X000537Y008603D01*
X000542Y008670D01*
X000551Y008737D01*
X000564Y008804D01*
X000581Y008869D01*
X000600Y008934D01*
X000624Y008998D01*
X000651Y009060D01*
X000681Y009121D01*
X000714Y009179D01*
X000750Y009236D01*
X000790Y009291D01*
X000832Y009344D01*
X000878Y009395D01*
X000925Y009442D01*
X000976Y009488D01*
X001029Y009530D01*
X001084Y009570D01*
X001141Y009606D01*
X001199Y009639D01*
X001260Y009669D01*
X001322Y009696D01*
X001386Y009720D01*
X001451Y009739D01*
X001516Y009756D01*
X001583Y009769D01*
X001650Y009778D01*
X001717Y009783D01*
X001785Y009785D01*
X008535Y009785D01*
X008603Y009783D01*
X008670Y009778D01*
X008737Y009769D01*
X008804Y009756D01*
X008869Y009739D01*
X008934Y009720D01*
X008998Y009696D01*
X009060Y009669D01*
X009121Y009639D01*
X009179Y009606D01*
X009236Y009570D01*
X009291Y009530D01*
X009344Y009488D01*
X009395Y009442D01*
X009442Y009395D01*
X009488Y009344D01*
X009530Y009291D01*
X009570Y009236D01*
X009606Y009179D01*
X009639Y009121D01*
X009669Y009060D01*
X009696Y008998D01*
X009720Y008934D01*
X009739Y008869D01*
X009756Y008804D01*
X009769Y008737D01*
X009778Y008670D01*
X009783Y008603D01*
X009785Y008535D01*
X009785Y001785D01*
X009783Y001717D01*
X009778Y001650D01*
X009769Y001583D01*
X009756Y001516D01*
X009739Y001451D01*
X009720Y001386D01*
X009696Y001322D01*
X009669Y001260D01*
X009639Y001199D01*
X009606Y001141D01*
X009570Y001084D01*
X009530Y001029D01*
X009488Y000976D01*
X009442Y000925D01*
X009395Y000878D01*
X009344Y000832D01*
X009291Y000790D01*
X009236Y000750D01*
X009179Y000714D01*
X009121Y000681D01*
X009060Y000651D01*
X008998Y000624D01*
X008934Y000600D01*
X008869Y000581D01*
X008804Y000564D01*
X008737Y000551D01*
X008670Y000542D01*
X008603Y000537D01*
X008535Y000535D01*
X001785Y000535D01*
X001160Y001785D02*
X001162Y001835D01*
X001168Y001884D01*
X001178Y001933D01*
X001191Y001980D01*
X001209Y002027D01*
X001230Y002072D01*
X001254Y002115D01*
X001282Y002156D01*
X001313Y002195D01*
X001347Y002231D01*
X001384Y002265D01*
X001424Y002295D01*
X001465Y002322D01*
X001509Y002346D01*
X001554Y002366D01*
X001601Y002382D01*
X001649Y002395D01*
X001698Y002404D01*
X001748Y002409D01*
X001797Y002410D01*
X001847Y002407D01*
X001896Y002400D01*
X001945Y002389D01*
X001992Y002375D01*
X002038Y002356D01*
X002083Y002334D01*
X002126Y002309D01*
X002166Y002280D01*
X002204Y002248D01*
X002240Y002214D01*
X002273Y002176D01*
X002302Y002136D01*
X002328Y002094D01*
X002351Y002050D01*
X002370Y002004D01*
X002386Y001957D01*
X002398Y001908D01*
X002406Y001859D01*
X002410Y001810D01*
X002410Y001760D01*
X002406Y001711D01*
X002398Y001662D01*
X002386Y001613D01*
X002370Y001566D01*
X002351Y001520D01*
X002328Y001476D01*
X002302Y001434D01*
X002273Y001394D01*
X002240Y001356D01*
X002204Y001322D01*
X002166Y001290D01*
X002126Y001261D01*
X002083Y001236D01*
X002038Y001214D01*
X001992Y001195D01*
X001945Y001181D01*
X001896Y001170D01*
X001847Y001163D01*
X001797Y001160D01*
X001748Y001161D01*
X001698Y001166D01*
X001649Y001175D01*
X001601Y001188D01*
X001554Y001204D01*
X001509Y001224D01*
X001465Y001248D01*
X001424Y001275D01*
X001384Y001305D01*
X001347Y001339D01*
X001313Y001375D01*
X001282Y001414D01*
X001254Y001455D01*
X001230Y001498D01*
X001209Y001543D01*
X001191Y001590D01*
X001178Y001637D01*
X001168Y001686D01*
X001162Y001735D01*
X001160Y001785D01*
X007910Y001785D02*
X007912Y001835D01*
X007918Y001884D01*
X007928Y001933D01*
X007941Y001980D01*
X007959Y002027D01*
X007980Y002072D01*
X008004Y002115D01*
X008032Y002156D01*
X008063Y002195D01*
X008097Y002231D01*
X008134Y002265D01*
X008174Y002295D01*
X008215Y002322D01*
X008259Y002346D01*
X008304Y002366D01*
X008351Y002382D01*
X008399Y002395D01*
X008448Y002404D01*
X008498Y002409D01*
X008547Y002410D01*
X008597Y002407D01*
X008646Y002400D01*
X008695Y002389D01*
X008742Y002375D01*
X008788Y002356D01*
X008833Y002334D01*
X008876Y002309D01*
X008916Y002280D01*
X008954Y002248D01*
X008990Y002214D01*
X009023Y002176D01*
X009052Y002136D01*
X009078Y002094D01*
X009101Y002050D01*
X009120Y002004D01*
X009136Y001957D01*
X009148Y001908D01*
X009156Y001859D01*
X009160Y001810D01*
X009160Y001760D01*
X009156Y001711D01*
X009148Y001662D01*
X009136Y001613D01*
X009120Y001566D01*
X009101Y001520D01*
X009078Y001476D01*
X009052Y001434D01*
X009023Y001394D01*
X008990Y001356D01*
X008954Y001322D01*
X008916Y001290D01*
X008876Y001261D01*
X008833Y001236D01*
X008788Y001214D01*
X008742Y001195D01*
X008695Y001181D01*
X008646Y001170D01*
X008597Y001163D01*
X008547Y001160D01*
X008498Y001161D01*
X008448Y001166D01*
X008399Y001175D01*
X008351Y001188D01*
X008304Y001204D01*
X008259Y001224D01*
X008215Y001248D01*
X008174Y001275D01*
X008134Y001305D01*
X008097Y001339D01*
X008063Y001375D01*
X008032Y001414D01*
X008004Y001455D01*
X007980Y001498D01*
X007959Y001543D01*
X007941Y001590D01*
X007928Y001637D01*
X007918Y001686D01*
X007912Y001735D01*
X007910Y001785D01*
X007910Y008535D02*
X007912Y008585D01*
X007918Y008634D01*
X007928Y008683D01*
X007941Y008730D01*
X007959Y008777D01*
X007980Y008822D01*
X008004Y008865D01*
X008032Y008906D01*
X008063Y008945D01*
X008097Y008981D01*
X008134Y009015D01*
X008174Y009045D01*
X008215Y009072D01*
X008259Y009096D01*
X008304Y009116D01*
X008351Y009132D01*
X008399Y009145D01*
X008448Y009154D01*
X008498Y009159D01*
X008547Y009160D01*
X008597Y009157D01*
X008646Y009150D01*
X008695Y009139D01*
X008742Y009125D01*
X008788Y009106D01*
X008833Y009084D01*
X008876Y009059D01*
X008916Y009030D01*
X008954Y008998D01*
X008990Y008964D01*
X009023Y008926D01*
X009052Y008886D01*
X009078Y008844D01*
X009101Y008800D01*
X009120Y008754D01*
X009136Y008707D01*
X009148Y008658D01*
X009156Y008609D01*
X009160Y008560D01*
X009160Y008510D01*
X009156Y008461D01*
X009148Y008412D01*
X009136Y008363D01*
X009120Y008316D01*
X009101Y008270D01*
X009078Y008226D01*
X009052Y008184D01*
X009023Y008144D01*
X008990Y008106D01*
X008954Y008072D01*
X008916Y008040D01*
X008876Y008011D01*
X008833Y007986D01*
X008788Y007964D01*
X008742Y007945D01*
X008695Y007931D01*
X008646Y007920D01*
X008597Y007913D01*
X008547Y007910D01*
X008498Y007911D01*
X008448Y007916D01*
X008399Y007925D01*
X008351Y007938D01*
X008304Y007954D01*
X008259Y007974D01*
X008215Y007998D01*
X008174Y008025D01*
X008134Y008055D01*
X008097Y008089D01*
X008063Y008125D01*
X008032Y008164D01*
X008004Y008205D01*
X007980Y008248D01*
X007959Y008293D01*
X007941Y008340D01*
X007928Y008387D01*
X007918Y008436D01*
X007912Y008485D01*
X007910Y008535D01*
D12*
X007160Y008310D02*
X007160Y008810D01*
X006910Y009060D01*
X006410Y009060D01*
X006160Y008810D01*
X005910Y009060D01*
X005410Y009060D01*
X005160Y008810D01*
X004910Y009060D01*
X004410Y009060D01*
X004160Y008810D01*
X003910Y009060D01*
X003410Y009060D01*
X003160Y008810D01*
X003160Y008310D01*
X003410Y008060D01*
X003910Y008060D01*
X004160Y008310D01*
X004410Y008060D01*
X004910Y008060D01*
X005160Y008310D01*
X005410Y008060D01*
X005910Y008060D01*
X006160Y008310D01*
X006410Y008060D01*
X006910Y008060D01*
X007160Y008310D01*
X007354Y005275D02*
X007354Y004645D01*
X007353Y004645D02*
X007348Y004629D01*
X007340Y004613D01*
X007330Y004599D01*
X007318Y004587D01*
X007303Y004577D01*
X007287Y004570D01*
X007270Y004566D01*
X007253Y004565D01*
X007235Y004567D01*
X006685Y004567D02*
X006665Y004565D01*
X006646Y004567D01*
X006627Y004573D01*
X006610Y004582D01*
X006594Y004594D01*
X006582Y004609D01*
X006573Y004627D01*
X006567Y004645D01*
X006566Y004645D02*
X006566Y005275D01*
X006567Y005275D02*
X006573Y005293D01*
X006582Y005311D01*
X006594Y005326D01*
X006610Y005338D01*
X006627Y005347D01*
X006646Y005353D01*
X006665Y005355D01*
X006685Y005353D01*
X007235Y005353D02*
X007253Y005355D01*
X007270Y005354D01*
X007287Y005350D01*
X007303Y005343D01*
X007318Y005333D01*
X007330Y005321D01*
X007340Y005307D01*
X007348Y005291D01*
X007353Y005275D01*
X002365Y004453D02*
X002295Y004453D01*
X002155Y004453D02*
X002155Y004383D01*
X002155Y004453D02*
X001875Y004453D01*
X001875Y004383D02*
X001875Y004523D01*
X001945Y004690D02*
X001875Y004760D01*
X001875Y004970D01*
X002155Y004970D02*
X002155Y004760D01*
X002085Y004690D01*
X001945Y004690D01*
X001495Y004652D02*
X001495Y004512D01*
X001495Y004582D02*
X001075Y004582D01*
X001075Y004512D02*
X001075Y004652D01*
X001145Y004819D02*
X001075Y004889D01*
X001075Y005029D01*
X001145Y005099D01*
X001285Y005099D01*
X001285Y004959D01*
X001425Y005099D02*
X001495Y005029D01*
X001495Y004889D01*
X001425Y004819D01*
X001145Y004819D01*
X001145Y005279D02*
X001075Y005349D01*
X001075Y005489D01*
X001145Y005559D01*
X001425Y005559D01*
X001145Y005279D01*
X001425Y005279D01*
X001495Y005349D01*
X001495Y005489D01*
X001425Y005559D01*
X001355Y005740D02*
X001495Y005880D01*
X001075Y005880D01*
X001075Y005740D02*
X001075Y006020D01*
X001875Y006040D02*
X002085Y006040D01*
X002155Y005970D01*
X002085Y005900D01*
X001875Y005900D01*
X001875Y005760D02*
X002155Y005760D01*
X002155Y005830D01*
X002085Y005900D01*
X002085Y006221D02*
X001945Y006221D01*
X001875Y006291D01*
X001875Y006431D01*
X001945Y006501D01*
X002085Y006501D01*
X002155Y006431D01*
X002155Y006291D01*
X002085Y006221D01*
X002015Y006681D02*
X002155Y006891D01*
X002085Y007065D02*
X001945Y007065D01*
X001875Y007135D01*
X001875Y007275D01*
X002015Y007345D02*
X002015Y007065D01*
X002085Y007065D02*
X002155Y007135D01*
X002155Y007275D01*
X002085Y007345D01*
X002015Y007345D01*
X001875Y006891D02*
X002015Y006681D01*
X001875Y006681D02*
X002295Y006681D01*
X002225Y005580D02*
X002295Y005510D01*
X002295Y005370D01*
X002225Y005300D01*
X002155Y005300D01*
X002085Y005370D01*
X002085Y005510D01*
X002015Y005580D01*
X001945Y005580D01*
X001875Y005510D01*
X001875Y005370D01*
X001945Y005300D01*
X001875Y004203D02*
X001875Y003992D01*
X001945Y003922D01*
X002085Y003922D01*
X002155Y003992D01*
X002155Y004203D01*
X001805Y004203D01*
X001735Y004132D01*
X001735Y004062D01*
X001875Y003742D02*
X001875Y003532D01*
X001945Y003462D01*
X002015Y003532D01*
X002015Y003742D01*
X002085Y003742D02*
X002155Y003672D01*
X002155Y003532D01*
X002085Y003742D02*
X001875Y003742D01*
X001875Y003282D02*
X002295Y003282D01*
X002155Y003142D01*
X002295Y003001D01*
X001875Y003001D01*
D13*
X006185Y003535D02*
X006352Y003702D01*
X006394Y003702D01*
X006435Y003660D01*
X006435Y003577D01*
X006394Y003535D01*
X006185Y003535D02*
X006185Y003702D01*
X006185Y004785D02*
X006352Y004952D01*
X006394Y004952D01*
X006435Y004910D01*
X006435Y004827D01*
X006394Y004785D01*
X006185Y004785D02*
X006185Y004952D01*
D14*
X004306Y005199D03*
X004301Y005199D03*
X003741Y005044D03*
X003736Y005044D03*
X003761Y004884D03*
X003766Y004884D03*
X003291Y004824D03*
X003096Y004854D03*
X003196Y005229D03*
X003186Y005244D03*
X003181Y005249D03*
X003176Y005259D03*
X003171Y005264D03*
X003166Y005274D03*
X003161Y005279D03*
X003156Y005284D03*
X003151Y005294D03*
X003146Y005299D03*
X003136Y005314D03*
X003126Y005329D03*
X003121Y005334D03*
X003111Y005349D03*
X003081Y005394D03*
X003071Y005409D03*
X003066Y005414D03*
X003061Y005419D03*
X003051Y005434D03*
X002776Y005329D03*
X003426Y005449D03*
X003581Y005569D03*
X003586Y005569D03*
X003591Y005574D03*
X003596Y005574D03*
D15*
X002946Y004969D03*
X002781Y005329D03*
X003126Y004239D03*
X003646Y003984D03*
X003651Y003979D03*
X004191Y003979D03*
X004696Y004919D03*
X004501Y005329D03*
X004231Y006234D03*
X004081Y006519D03*
X003051Y006434D03*
D16*
X002901Y005604D03*
X002786Y005329D03*
X004211Y006269D03*
X004691Y004919D03*
X004241Y004074D03*
D17*
X004686Y004921D03*
X004531Y005341D03*
X002991Y006301D03*
X002791Y005331D03*
D18*
X002796Y005331D03*
X004166Y006326D03*
D19*
X002801Y005329D03*
X004296Y004234D03*
D20*
X004286Y004224D03*
X002806Y005329D03*
D21*
X002811Y005329D03*
X004271Y004214D03*
D22*
X004656Y004931D03*
X002816Y005331D03*
D23*
X002821Y005329D03*
D24*
X002826Y005331D03*
X004636Y004956D03*
D25*
X004621Y004974D03*
X002831Y005329D03*
D26*
X002836Y005329D03*
X004611Y004984D03*
D27*
X002841Y005331D03*
D28*
X002846Y005331D03*
X002991Y004686D03*
D29*
X003006Y004656D03*
X002851Y005331D03*
D30*
X002856Y005331D03*
X003021Y004631D03*
D31*
X003041Y004601D03*
X002861Y005331D03*
D32*
X002866Y005331D03*
X003046Y004596D03*
X003051Y004591D03*
D33*
X002871Y005331D03*
D34*
X002876Y005331D03*
D35*
X002986Y005514D03*
X003401Y005449D03*
X003631Y005584D03*
X003641Y005589D03*
X003646Y005589D03*
X003761Y005044D03*
X003736Y004879D03*
X003266Y004824D03*
X003101Y004859D03*
X002876Y006064D03*
X004331Y005204D03*
D36*
X002881Y005329D03*
D37*
X003211Y005249D03*
X002881Y006064D03*
X003536Y006539D03*
X003541Y006544D03*
X003551Y006549D03*
X003556Y006554D03*
X003561Y006559D03*
X003566Y006564D03*
X004041Y006569D03*
X004046Y006564D03*
X004051Y006559D03*
X004236Y006224D03*
X004456Y006099D03*
X004461Y006094D03*
X004466Y006089D03*
X003156Y004199D03*
X003161Y004194D03*
X003551Y004109D03*
X003676Y003949D03*
X003681Y003944D03*
X004161Y003944D03*
X004166Y003949D03*
D38*
X002886Y005116D03*
X002896Y006066D03*
X004176Y006311D03*
D39*
X004171Y006319D03*
X004141Y006369D03*
X004591Y005134D03*
X004316Y004254D03*
X004256Y004134D03*
X002886Y005544D03*
D40*
X002886Y006064D03*
X003011Y006364D03*
X004216Y006259D03*
X004536Y005979D03*
X004516Y005334D03*
X003086Y004309D03*
D41*
X002891Y005086D03*
X002891Y005576D03*
X004586Y005166D03*
D42*
X004196Y006289D03*
X004136Y006399D03*
X002891Y006064D03*
X004251Y004109D03*
D43*
X004246Y004091D03*
X002896Y005071D03*
X002896Y005591D03*
X004206Y006276D03*
X004131Y006416D03*
D44*
X003236Y005256D03*
X002901Y005056D03*
X003066Y004801D03*
X003081Y004326D03*
X004341Y004286D03*
D45*
X004301Y004239D03*
X002901Y006064D03*
D46*
X003001Y005801D03*
X002906Y005621D03*
X003226Y005266D03*
X002906Y005041D03*
X004236Y004061D03*
X004121Y006446D03*
D47*
X002906Y006066D03*
D48*
X002911Y005631D03*
X003221Y005266D03*
X002911Y005031D03*
X003091Y004301D03*
X004231Y004051D03*
X004116Y006456D03*
D49*
X002911Y006066D03*
X004671Y004906D03*
D50*
X003616Y004036D03*
X003591Y004071D03*
X003586Y004076D03*
X003096Y004291D03*
X002916Y005021D03*
X002916Y005641D03*
X004111Y006466D03*
X004526Y006001D03*
D51*
X002916Y006066D03*
D52*
X002921Y005651D03*
X002921Y005011D03*
X002961Y004606D03*
X003106Y004271D03*
X003576Y004086D03*
X003581Y004081D03*
X004216Y004021D03*
X004521Y006011D03*
X004101Y006486D03*
D53*
X002921Y006066D03*
D54*
X003026Y006394D03*
X003031Y006404D03*
X004096Y006494D03*
X004226Y006244D03*
X004516Y006019D03*
X002926Y005004D03*
X002931Y004994D03*
X003626Y004019D03*
X003631Y004009D03*
X004211Y004009D03*
D55*
X004221Y004029D03*
X003621Y004029D03*
X003101Y004279D03*
X003241Y005269D03*
X002926Y005659D03*
X003006Y005794D03*
X003021Y006384D03*
X004106Y006479D03*
X004511Y005334D03*
D56*
X004641Y004951D03*
X002926Y006066D03*
D57*
X002931Y005944D03*
D58*
X003041Y006419D03*
X004091Y006504D03*
X004506Y006034D03*
X004511Y006029D03*
X002936Y004984D03*
X003116Y004254D03*
X004201Y003994D03*
D59*
X003651Y004861D03*
X003646Y004861D03*
X003826Y005036D03*
X004416Y005216D03*
X004421Y005216D03*
X003801Y005636D03*
X003796Y005636D03*
X003301Y005436D03*
X003296Y005436D03*
X002936Y005541D03*
X003196Y004816D03*
D60*
X002936Y005966D03*
X002941Y005976D03*
D61*
X003011Y005786D03*
X003246Y005281D03*
X002941Y004976D03*
X003121Y004246D03*
X003566Y004096D03*
X003641Y003991D03*
X004196Y003986D03*
X004501Y006041D03*
X004086Y006511D03*
X003046Y006426D03*
D62*
X003766Y005626D03*
X003776Y005631D03*
X003781Y005631D03*
X003816Y005036D03*
X003821Y005036D03*
X003661Y004861D03*
X003111Y004861D03*
X002941Y005536D03*
X004401Y005211D03*
D63*
X004396Y005214D03*
X003811Y005039D03*
X003671Y004864D03*
X003666Y004864D03*
X003216Y004819D03*
X003211Y004819D03*
X003321Y005439D03*
X003326Y005439D03*
X003056Y005764D03*
X002946Y005534D03*
X003756Y005624D03*
X003761Y005624D03*
X003771Y005629D03*
D64*
X002961Y006014D03*
X002956Y006004D03*
X002946Y005984D03*
D65*
X003056Y006441D03*
X003061Y006446D03*
X004076Y006526D03*
X004491Y006056D03*
X004496Y006051D03*
X002956Y004956D03*
X002951Y004961D03*
X003131Y004231D03*
X003561Y004101D03*
X003656Y003971D03*
X004186Y003971D03*
D66*
X003686Y004869D03*
X003801Y005039D03*
X003231Y004819D03*
X003226Y004819D03*
X003221Y004819D03*
X002951Y005534D03*
X003736Y005619D03*
X003741Y005619D03*
X004381Y005209D03*
D67*
X002976Y006036D03*
X002971Y006031D03*
X002966Y006021D03*
X002951Y005996D03*
X002981Y006046D03*
D68*
X003141Y006526D03*
X003146Y006531D03*
X003151Y006531D03*
X003156Y006536D03*
X003481Y006541D03*
X003491Y006536D03*
X003496Y006531D03*
X003501Y006531D03*
X003511Y006526D03*
X003516Y006526D03*
X003636Y006626D03*
X003641Y006631D03*
X003651Y006636D03*
X003966Y006631D03*
X003976Y006626D03*
X003981Y006621D03*
X004241Y006211D03*
X004386Y006156D03*
X004391Y006151D03*
X004396Y006151D03*
X004401Y006146D03*
X004406Y006141D03*
X003036Y005481D03*
X002956Y004606D03*
X003221Y004141D03*
X003226Y004136D03*
X003231Y004136D03*
X003236Y004131D03*
X003246Y004126D03*
X003541Y004116D03*
X003736Y003891D03*
X003746Y003886D03*
X003751Y003881D03*
X003756Y003876D03*
X003766Y003871D03*
X004076Y003871D03*
X004086Y003876D03*
X004091Y003881D03*
X004096Y003886D03*
X004106Y003891D03*
D69*
X004416Y004746D03*
X004386Y004751D03*
X004446Y004741D03*
X004476Y004736D03*
X004501Y004731D03*
X004506Y004731D03*
X004531Y004726D03*
X004536Y004726D03*
X004561Y004721D03*
X004566Y004721D03*
X004686Y004701D03*
X004691Y004701D03*
X004376Y005211D03*
X003796Y005041D03*
X003691Y004866D03*
X003346Y005441D03*
X003341Y005441D03*
X002956Y005531D03*
X003716Y005611D03*
X003721Y005611D03*
X003726Y005616D03*
X003731Y005616D03*
D70*
X003016Y005784D03*
X003066Y006454D03*
X004066Y006539D03*
X004071Y006534D03*
X004486Y006064D03*
X004591Y004789D03*
X004356Y004319D03*
X004181Y003964D03*
X004176Y003959D03*
X003666Y003959D03*
X003661Y003964D03*
X003556Y004104D03*
X003141Y004219D03*
X003136Y004224D03*
X003076Y004829D03*
X002961Y004949D03*
D71*
X003236Y004819D03*
X003241Y004819D03*
X003346Y004779D03*
X003371Y004769D03*
X003396Y004759D03*
X003421Y004749D03*
X003486Y004724D03*
X003511Y004714D03*
X003536Y004704D03*
X003561Y004694D03*
X003626Y004669D03*
X003651Y004659D03*
X003676Y004649D03*
X003701Y004639D03*
X003766Y004614D03*
X003791Y004604D03*
X003816Y004594D03*
X003841Y004584D03*
X003931Y004549D03*
X003956Y004539D03*
X003981Y004529D03*
X004006Y004519D03*
X004071Y004494D03*
X004096Y004484D03*
X004121Y004474D03*
X004146Y004464D03*
X004171Y004454D03*
X004196Y004444D03*
X004211Y004439D03*
X004236Y004429D03*
X004421Y004744D03*
X004426Y004744D03*
X004431Y004744D03*
X004436Y004744D03*
X004441Y004744D03*
X004451Y004739D03*
X004456Y004739D03*
X004461Y004739D03*
X004466Y004739D03*
X004471Y004739D03*
X004481Y004734D03*
X004486Y004734D03*
X004491Y004734D03*
X004496Y004734D03*
X004511Y004729D03*
X004516Y004729D03*
X004521Y004729D03*
X004526Y004729D03*
X004541Y004724D03*
X004546Y004724D03*
X004551Y004724D03*
X004556Y004724D03*
X004696Y004699D03*
X004701Y004699D03*
X004411Y004749D03*
X004406Y004749D03*
X004401Y004749D03*
X004396Y004749D03*
X004391Y004749D03*
X004381Y004754D03*
X004376Y004754D03*
X004371Y004754D03*
X004366Y004754D03*
X004361Y004754D03*
X004356Y004759D03*
X004351Y004759D03*
X004346Y004759D03*
X004341Y004759D03*
X004336Y004759D03*
X004331Y004759D03*
X004326Y004764D03*
X004321Y004764D03*
X004316Y004764D03*
X004311Y004764D03*
X004306Y004764D03*
X004301Y004764D03*
X004296Y004769D03*
X004291Y004769D03*
X004286Y004769D03*
X004281Y004769D03*
X004276Y004769D03*
X004271Y004769D03*
X004261Y004774D03*
X004256Y004774D03*
X004251Y004774D03*
X004246Y004774D03*
X004241Y004774D03*
X004231Y004779D03*
X004226Y004779D03*
X004221Y004779D03*
X004216Y004779D03*
X004206Y004784D03*
X004201Y004784D03*
X004196Y004784D03*
X004191Y004784D03*
X004186Y004784D03*
X004176Y004789D03*
X004171Y004789D03*
X004166Y004789D03*
X004161Y004789D03*
X004156Y004789D03*
X004146Y004794D03*
X004141Y004794D03*
X004136Y004794D03*
X004131Y004794D03*
X004126Y004794D03*
X004116Y004799D03*
X004111Y004799D03*
X004106Y004799D03*
X004101Y004799D03*
X004091Y004804D03*
X004086Y004804D03*
X004081Y004804D03*
X004076Y004804D03*
X004071Y004804D03*
X004061Y004809D03*
X004056Y004809D03*
X004051Y004809D03*
X004046Y004809D03*
X004041Y004809D03*
X004031Y004814D03*
X004026Y004814D03*
X004021Y004814D03*
X004016Y004814D03*
X004011Y004814D03*
X004001Y004819D03*
X003996Y004819D03*
X003991Y004819D03*
X003986Y004819D03*
X003981Y004819D03*
X003971Y004824D03*
X003966Y004824D03*
X003961Y004824D03*
X003956Y004824D03*
X003946Y004829D03*
X003941Y004829D03*
X003936Y004829D03*
X003931Y004829D03*
X003926Y004829D03*
X003916Y004834D03*
X003911Y004834D03*
X003906Y004834D03*
X003901Y004834D03*
X003896Y004834D03*
X003886Y004839D03*
X003881Y004839D03*
X003876Y004839D03*
X003871Y004839D03*
X003866Y004839D03*
X003856Y004844D03*
X003851Y004844D03*
X003846Y004844D03*
X003841Y004844D03*
X003831Y004849D03*
X003826Y004849D03*
X003821Y004849D03*
X003816Y004849D03*
X003811Y004849D03*
X003696Y004869D03*
X003656Y004989D03*
X003631Y004979D03*
X003606Y004969D03*
X003681Y004999D03*
X003791Y005039D03*
X003866Y005324D03*
X003846Y005329D03*
X003826Y005334D03*
X003801Y005339D03*
X003781Y005344D03*
X003761Y005349D03*
X003736Y005354D03*
X003716Y005359D03*
X003696Y005364D03*
X003671Y005369D03*
X003651Y005374D03*
X003631Y005379D03*
X003606Y005384D03*
X003586Y005389D03*
X003566Y005394D03*
X003541Y005399D03*
X003526Y005404D03*
X003521Y005404D03*
X003511Y005409D03*
X003506Y005409D03*
X003501Y005409D03*
X003486Y005414D03*
X003481Y005414D03*
X003476Y005414D03*
X003466Y005419D03*
X003461Y005419D03*
X003356Y005444D03*
X003351Y005444D03*
X003316Y005564D03*
X003311Y005564D03*
X003306Y005564D03*
X003301Y005564D03*
X003291Y005559D03*
X003286Y005559D03*
X003281Y005559D03*
X003276Y005559D03*
X003271Y005559D03*
X003266Y005559D03*
X003261Y005559D03*
X003256Y005559D03*
X003251Y005559D03*
X003246Y005554D03*
X003241Y005554D03*
X003236Y005554D03*
X003231Y005554D03*
X003226Y005554D03*
X003221Y005554D03*
X003216Y005554D03*
X003211Y005554D03*
X003206Y005554D03*
X003201Y005554D03*
X003196Y005549D03*
X003191Y005549D03*
X003186Y005549D03*
X003181Y005549D03*
X003176Y005549D03*
X003171Y005549D03*
X003166Y005549D03*
X003161Y005549D03*
X003156Y005549D03*
X003151Y005549D03*
X003146Y005544D03*
X003141Y005544D03*
X003136Y005544D03*
X003131Y005544D03*
X003126Y005544D03*
X003121Y005544D03*
X003116Y005544D03*
X003111Y005544D03*
X003106Y005544D03*
X003101Y005544D03*
X003096Y005539D03*
X003091Y005539D03*
X003086Y005539D03*
X003081Y005539D03*
X003076Y005539D03*
X003071Y005539D03*
X003066Y005539D03*
X003061Y005539D03*
X003056Y005539D03*
X003051Y005539D03*
X003046Y005534D03*
X002961Y005529D03*
X003351Y005569D03*
X003356Y005569D03*
X003361Y005569D03*
X003401Y005574D03*
X003406Y005574D03*
X003431Y005579D03*
X003436Y005579D03*
X003441Y005579D03*
X003446Y005579D03*
X003451Y005579D03*
X003461Y005584D03*
X003466Y005584D03*
X003471Y005584D03*
X003476Y005584D03*
X003481Y005584D03*
X003486Y005584D03*
X003491Y005584D03*
X003496Y005584D03*
X003506Y005589D03*
X003511Y005589D03*
X003516Y005589D03*
X003521Y005589D03*
X003526Y005589D03*
X003531Y005589D03*
X003706Y005609D03*
X003711Y005609D03*
X003891Y005319D03*
X003911Y005314D03*
X003931Y005309D03*
X003956Y005304D03*
X003976Y005299D03*
X003996Y005294D03*
X004021Y005289D03*
X004041Y005284D03*
X004061Y005279D03*
X004086Y005274D03*
X004106Y005269D03*
X004126Y005264D03*
X004151Y005259D03*
X004171Y005254D03*
X004191Y005249D03*
X004211Y005244D03*
X004216Y005244D03*
X004236Y005239D03*
X004256Y005234D03*
X004366Y005209D03*
X004371Y005209D03*
D72*
X004526Y005339D03*
X004656Y005684D03*
X002996Y006324D03*
X002966Y004604D03*
D73*
X002976Y004931D03*
X002971Y004936D03*
X002966Y004941D03*
X003146Y004211D03*
X003151Y004206D03*
X003671Y003951D03*
X004171Y003956D03*
X004481Y006071D03*
X004476Y006076D03*
X004471Y006081D03*
X004061Y006546D03*
X004056Y006551D03*
X003081Y006471D03*
X003076Y006466D03*
X003071Y006461D03*
D74*
X003411Y005576D03*
X003416Y005576D03*
X003421Y005576D03*
X003426Y005576D03*
X003396Y005571D03*
X003391Y005571D03*
X003386Y005571D03*
X003381Y005571D03*
X003376Y005571D03*
X003371Y005571D03*
X003366Y005571D03*
X003346Y005566D03*
X003341Y005566D03*
X003336Y005566D03*
X003331Y005566D03*
X003326Y005566D03*
X003321Y005566D03*
X003296Y005561D03*
X003361Y005441D03*
X003461Y005486D03*
X003471Y005491D03*
X003481Y005496D03*
X003491Y005501D03*
X003501Y005506D03*
X003511Y005511D03*
X003521Y005516D03*
X003531Y005521D03*
X003501Y005586D03*
X003456Y005581D03*
X003471Y005416D03*
X003491Y005411D03*
X003496Y005411D03*
X003516Y005406D03*
X003531Y005401D03*
X003536Y005401D03*
X003546Y005396D03*
X003551Y005396D03*
X003556Y005396D03*
X003561Y005396D03*
X003571Y005391D03*
X003576Y005391D03*
X003581Y005391D03*
X003591Y005386D03*
X003596Y005386D03*
X003601Y005386D03*
X003611Y005381D03*
X003616Y005381D03*
X003621Y005381D03*
X003626Y005381D03*
X003636Y005376D03*
X003641Y005376D03*
X003646Y005376D03*
X003656Y005371D03*
X003661Y005371D03*
X003666Y005371D03*
X003676Y005366D03*
X003681Y005366D03*
X003686Y005366D03*
X003691Y005366D03*
X003701Y005361D03*
X003706Y005361D03*
X003711Y005361D03*
X003721Y005356D03*
X003726Y005356D03*
X003731Y005356D03*
X003741Y005351D03*
X003746Y005351D03*
X003751Y005351D03*
X003756Y005351D03*
X003766Y005346D03*
X003771Y005346D03*
X003776Y005346D03*
X003786Y005341D03*
X003791Y005341D03*
X003796Y005341D03*
X003806Y005336D03*
X003811Y005336D03*
X003816Y005336D03*
X003821Y005336D03*
X003831Y005331D03*
X003836Y005331D03*
X003841Y005331D03*
X003851Y005326D03*
X003856Y005326D03*
X003861Y005326D03*
X003871Y005321D03*
X003876Y005321D03*
X003881Y005321D03*
X003886Y005321D03*
X003896Y005316D03*
X003901Y005316D03*
X003906Y005316D03*
X003916Y005311D03*
X003921Y005311D03*
X003926Y005311D03*
X003936Y005306D03*
X003941Y005306D03*
X003946Y005306D03*
X003951Y005306D03*
X003961Y005301D03*
X003966Y005301D03*
X003971Y005301D03*
X003981Y005296D03*
X003986Y005296D03*
X003991Y005296D03*
X004001Y005291D03*
X004006Y005291D03*
X004011Y005291D03*
X004016Y005291D03*
X004026Y005286D03*
X004031Y005286D03*
X004036Y005286D03*
X004046Y005281D03*
X004051Y005281D03*
X004056Y005281D03*
X004066Y005276D03*
X004071Y005276D03*
X004076Y005276D03*
X004081Y005276D03*
X004091Y005271D03*
X004096Y005271D03*
X004101Y005271D03*
X004111Y005266D03*
X004116Y005266D03*
X004121Y005266D03*
X004131Y005261D03*
X004136Y005261D03*
X004141Y005261D03*
X004146Y005261D03*
X004156Y005256D03*
X004161Y005256D03*
X004166Y005256D03*
X004176Y005251D03*
X004181Y005251D03*
X004186Y005251D03*
X004196Y005246D03*
X004201Y005246D03*
X004206Y005246D03*
X004221Y005241D03*
X004226Y005241D03*
X004231Y005241D03*
X004241Y005236D03*
X004246Y005236D03*
X004251Y005236D03*
X004261Y005231D03*
X004266Y005231D03*
X004271Y005231D03*
X004271Y005161D03*
X004261Y005156D03*
X004251Y005151D03*
X004241Y005146D03*
X004231Y005141D03*
X004221Y005136D03*
X004211Y005131D03*
X004201Y005126D03*
X004191Y005121D03*
X004181Y005116D03*
X004171Y005111D03*
X004161Y005106D03*
X004151Y005101D03*
X004141Y005096D03*
X004131Y005091D03*
X004121Y005086D03*
X004111Y005081D03*
X004101Y005076D03*
X004091Y005071D03*
X004081Y005066D03*
X004071Y005061D03*
X004066Y005056D03*
X004061Y005056D03*
X004056Y005051D03*
X004051Y005051D03*
X004046Y005046D03*
X004041Y005046D03*
X004036Y005041D03*
X004031Y005041D03*
X004026Y005036D03*
X004016Y005031D03*
X004006Y005026D03*
X003996Y005021D03*
X003986Y005016D03*
X003976Y005011D03*
X003966Y005006D03*
X003956Y005001D03*
X003946Y004996D03*
X003936Y004991D03*
X003786Y005041D03*
X003706Y005006D03*
X003701Y005006D03*
X003696Y005006D03*
X003691Y005001D03*
X003686Y005001D03*
X003676Y004996D03*
X003671Y004996D03*
X003666Y004991D03*
X003661Y004991D03*
X003651Y004986D03*
X003646Y004986D03*
X003641Y004981D03*
X003636Y004981D03*
X003626Y004976D03*
X003621Y004976D03*
X003616Y004971D03*
X003611Y004971D03*
X003601Y004966D03*
X003596Y004966D03*
X003591Y004961D03*
X003586Y004961D03*
X003581Y004961D03*
X003576Y004956D03*
X003571Y004956D03*
X003566Y004951D03*
X003561Y004951D03*
X003556Y004951D03*
X003546Y004946D03*
X003536Y004941D03*
X003531Y004941D03*
X003521Y004936D03*
X003511Y004931D03*
X003506Y004931D03*
X003496Y004926D03*
X003486Y004921D03*
X003476Y004916D03*
X003471Y004916D03*
X003461Y004911D03*
X003451Y004906D03*
X003446Y004906D03*
X003436Y004901D03*
X003426Y004896D03*
X003421Y004896D03*
X003411Y004891D03*
X003401Y004886D03*
X003386Y004881D03*
X003376Y004876D03*
X003351Y004866D03*
X003331Y004786D03*
X003336Y004781D03*
X003341Y004781D03*
X003351Y004776D03*
X003356Y004776D03*
X003361Y004771D03*
X003366Y004771D03*
X003376Y004766D03*
X003381Y004766D03*
X003386Y004761D03*
X003391Y004761D03*
X003401Y004756D03*
X003406Y004756D03*
X003411Y004751D03*
X003416Y004751D03*
X003426Y004746D03*
X003431Y004746D03*
X003436Y004741D03*
X003441Y004741D03*
X003446Y004741D03*
X003451Y004736D03*
X003456Y004736D03*
X003461Y004731D03*
X003466Y004731D03*
X003471Y004731D03*
X003476Y004726D03*
X003481Y004726D03*
X003491Y004721D03*
X003496Y004721D03*
X003501Y004716D03*
X003506Y004716D03*
X003516Y004711D03*
X003521Y004711D03*
X003526Y004706D03*
X003531Y004706D03*
X003541Y004701D03*
X003546Y004701D03*
X003551Y004696D03*
X003556Y004696D03*
X003566Y004691D03*
X003571Y004691D03*
X003576Y004686D03*
X003581Y004686D03*
X003586Y004686D03*
X003591Y004681D03*
X003596Y004681D03*
X003601Y004676D03*
X003606Y004676D03*
X003611Y004676D03*
X003616Y004671D03*
X003621Y004671D03*
X003631Y004666D03*
X003636Y004666D03*
X003641Y004661D03*
X003646Y004661D03*
X003656Y004656D03*
X003661Y004656D03*
X003666Y004651D03*
X003671Y004651D03*
X003681Y004646D03*
X003686Y004646D03*
X003691Y004641D03*
X003696Y004641D03*
X003706Y004636D03*
X003711Y004636D03*
X003716Y004631D03*
X003721Y004631D03*
X003726Y004631D03*
X003731Y004626D03*
X003736Y004626D03*
X003741Y004621D03*
X003746Y004621D03*
X003751Y004621D03*
X003756Y004616D03*
X003761Y004616D03*
X003771Y004611D03*
X003776Y004611D03*
X003781Y004606D03*
X003786Y004606D03*
X003796Y004601D03*
X003801Y004601D03*
X003806Y004596D03*
X003811Y004596D03*
X003821Y004591D03*
X003826Y004591D03*
X003831Y004586D03*
X003836Y004586D03*
X003846Y004581D03*
X003851Y004581D03*
X003856Y004576D03*
X003861Y004576D03*
X003866Y004576D03*
X003871Y004571D03*
X003876Y004571D03*
X003881Y004566D03*
X003886Y004566D03*
X003891Y004566D03*
X003896Y004561D03*
X003901Y004561D03*
X003906Y004556D03*
X003911Y004556D03*
X003916Y004556D03*
X003921Y004551D03*
X003926Y004551D03*
X003936Y004546D03*
X003941Y004546D03*
X003946Y004541D03*
X003951Y004541D03*
X003961Y004536D03*
X003966Y004536D03*
X003971Y004531D03*
X003976Y004531D03*
X003986Y004526D03*
X003991Y004526D03*
X003996Y004521D03*
X004001Y004521D03*
X004011Y004516D03*
X004016Y004516D03*
X004021Y004511D03*
X004026Y004511D03*
X004031Y004511D03*
X004036Y004506D03*
X004041Y004506D03*
X004046Y004501D03*
X004051Y004501D03*
X004056Y004501D03*
X004061Y004496D03*
X004066Y004496D03*
X004076Y004491D03*
X004081Y004491D03*
X004086Y004486D03*
X004091Y004486D03*
X004101Y004481D03*
X004106Y004481D03*
X004111Y004476D03*
X004116Y004476D03*
X004126Y004471D03*
X004131Y004471D03*
X004136Y004466D03*
X004141Y004466D03*
X004151Y004461D03*
X004156Y004461D03*
X004161Y004456D03*
X004166Y004456D03*
X004176Y004451D03*
X004181Y004451D03*
X004186Y004446D03*
X004191Y004446D03*
X004201Y004441D03*
X004206Y004441D03*
X004216Y004436D03*
X004221Y004436D03*
X004226Y004431D03*
X004231Y004431D03*
X004241Y004426D03*
X004246Y004426D03*
X004251Y004421D03*
X004371Y004376D03*
X004376Y004376D03*
X004386Y004371D03*
X004401Y004366D03*
X004411Y004361D03*
X004426Y004356D03*
X004436Y004351D03*
X004451Y004346D03*
X004476Y004336D03*
X004501Y004326D03*
X004516Y004321D03*
X004526Y004316D03*
X004541Y004311D03*
X004551Y004306D03*
X004566Y004301D03*
X004576Y004296D03*
X004591Y004291D03*
X004601Y004286D03*
X004616Y004281D03*
X004626Y004276D03*
X004641Y004271D03*
X004651Y004266D03*
X004656Y004266D03*
X004666Y004261D03*
X004676Y004256D03*
X004681Y004256D03*
X004686Y004256D03*
X004691Y004251D03*
X004696Y004251D03*
X004701Y004246D03*
X004266Y004771D03*
X004236Y004776D03*
X004211Y004781D03*
X004181Y004786D03*
X004151Y004791D03*
X004121Y004796D03*
X004096Y004801D03*
X004066Y004806D03*
X004036Y004811D03*
X004006Y004816D03*
X003976Y004821D03*
X003951Y004826D03*
X003921Y004831D03*
X003891Y004836D03*
X003861Y004841D03*
X003836Y004846D03*
X003806Y004851D03*
X003701Y004871D03*
X003106Y004856D03*
X002966Y005526D03*
X003696Y005606D03*
X003701Y005606D03*
X004356Y005206D03*
X004361Y005206D03*
X004456Y005321D03*
D75*
X002971Y004606D03*
D76*
X003246Y004819D03*
X003251Y004819D03*
X003331Y004859D03*
X003336Y004859D03*
X003341Y004864D03*
X003346Y004864D03*
X003356Y004869D03*
X003361Y004869D03*
X003366Y004874D03*
X003371Y004874D03*
X003381Y004879D03*
X003391Y004884D03*
X003396Y004884D03*
X003406Y004889D03*
X003416Y004894D03*
X003431Y004899D03*
X003441Y004904D03*
X003456Y004909D03*
X003466Y004914D03*
X003481Y004919D03*
X003491Y004924D03*
X003501Y004929D03*
X003516Y004934D03*
X003526Y004939D03*
X003541Y004944D03*
X003551Y004949D03*
X003706Y004874D03*
X003711Y004874D03*
X003806Y004924D03*
X003816Y004929D03*
X003826Y004934D03*
X003831Y004939D03*
X003836Y004939D03*
X003841Y004944D03*
X003846Y004944D03*
X003851Y004949D03*
X003856Y004949D03*
X003861Y004954D03*
X003866Y004954D03*
X003871Y004959D03*
X003876Y004959D03*
X003881Y004964D03*
X003886Y004964D03*
X003891Y004969D03*
X003896Y004969D03*
X003901Y004974D03*
X003906Y004974D03*
X003911Y004979D03*
X003916Y004979D03*
X003921Y004984D03*
X003926Y004984D03*
X003931Y004989D03*
X003941Y004994D03*
X003951Y004999D03*
X003961Y005004D03*
X003971Y005009D03*
X003981Y005014D03*
X003991Y005019D03*
X004001Y005024D03*
X004011Y005029D03*
X004021Y005034D03*
X004076Y005064D03*
X004086Y005069D03*
X004096Y005074D03*
X004106Y005079D03*
X004116Y005084D03*
X004126Y005089D03*
X004136Y005094D03*
X004146Y005099D03*
X004156Y005104D03*
X004166Y005109D03*
X004176Y005114D03*
X004186Y005119D03*
X004196Y005124D03*
X004206Y005129D03*
X004216Y005134D03*
X004226Y005139D03*
X004236Y005144D03*
X004246Y005149D03*
X004256Y005154D03*
X004266Y005159D03*
X003781Y005039D03*
X003666Y005104D03*
X003641Y005119D03*
X003616Y005134D03*
X003606Y005139D03*
X003591Y005149D03*
X003581Y005154D03*
X003571Y005159D03*
X003566Y005164D03*
X003556Y005169D03*
X003546Y005174D03*
X003541Y005179D03*
X003531Y005184D03*
X003521Y005189D03*
X003511Y005194D03*
X003506Y005199D03*
X003501Y005199D03*
X003496Y005204D03*
X003491Y005204D03*
X003486Y005209D03*
X003481Y005214D03*
X003476Y005214D03*
X003471Y005219D03*
X003466Y005219D03*
X003461Y005224D03*
X003456Y005229D03*
X003451Y005229D03*
X003446Y005234D03*
X003441Y005234D03*
X003436Y005239D03*
X003431Y005244D03*
X003426Y005244D03*
X003421Y005249D03*
X003416Y005249D03*
X003411Y005254D03*
X003406Y005259D03*
X003401Y005259D03*
X003396Y005264D03*
X003391Y005264D03*
X003386Y005269D03*
X003381Y005274D03*
X003376Y005274D03*
X003371Y005279D03*
X003366Y005279D03*
X003361Y005284D03*
X003356Y005289D03*
X003351Y005289D03*
X003346Y005294D03*
X003341Y005294D03*
X003336Y005299D03*
X003331Y005304D03*
X003326Y005304D03*
X003321Y005309D03*
X003316Y005309D03*
X003311Y005314D03*
X003306Y005319D03*
X003301Y005319D03*
X003296Y005324D03*
X003291Y005324D03*
X003286Y005329D03*
X003281Y005334D03*
X003276Y005334D03*
X003271Y005339D03*
X003366Y005444D03*
X003371Y005444D03*
X003466Y005489D03*
X003476Y005494D03*
X003486Y005499D03*
X003496Y005504D03*
X003506Y005509D03*
X003516Y005514D03*
X003526Y005519D03*
X003691Y005604D03*
X002971Y005524D03*
X004381Y004374D03*
X004391Y004369D03*
X004396Y004369D03*
X004406Y004364D03*
X004416Y004359D03*
X004421Y004359D03*
X004431Y004354D03*
X004441Y004349D03*
X004446Y004349D03*
X004456Y004344D03*
X004461Y004344D03*
X004466Y004339D03*
X004471Y004339D03*
X004481Y004334D03*
X004486Y004334D03*
X004491Y004329D03*
X004496Y004329D03*
X004506Y004324D03*
X004511Y004324D03*
X004521Y004319D03*
X004531Y004314D03*
X004536Y004314D03*
X004546Y004309D03*
X004556Y004304D03*
X004561Y004304D03*
X004571Y004299D03*
X004581Y004294D03*
X004586Y004294D03*
X004596Y004289D03*
X004606Y004284D03*
X004611Y004284D03*
X004621Y004279D03*
X004631Y004274D03*
X004636Y004274D03*
X004646Y004269D03*
X004661Y004264D03*
X004671Y004259D03*
D77*
X004306Y004241D03*
X002976Y004606D03*
D78*
X003261Y004819D03*
X003716Y004874D03*
X003721Y004874D03*
X003266Y005334D03*
X002976Y005519D03*
X003661Y005594D03*
X003666Y005594D03*
X004341Y005204D03*
X004346Y005204D03*
D79*
X004641Y005686D03*
X004291Y004231D03*
X002981Y004606D03*
D80*
X002981Y004926D03*
X003166Y004191D03*
X003171Y004186D03*
X003686Y003936D03*
X003691Y003931D03*
X003696Y003926D03*
X004146Y003926D03*
X004151Y003931D03*
X004156Y003936D03*
X004496Y005326D03*
X004036Y006576D03*
X004031Y006581D03*
X003586Y006586D03*
X003581Y006581D03*
X003576Y006576D03*
X003571Y006571D03*
X003546Y006546D03*
X003531Y006536D03*
X003096Y006486D03*
X003091Y006481D03*
X003086Y006476D03*
D81*
X003651Y005591D03*
X003656Y005591D03*
X003396Y005446D03*
X003391Y005446D03*
X003386Y005446D03*
X002981Y005516D03*
X003766Y005041D03*
X003731Y004876D03*
X003726Y004876D03*
X004336Y005201D03*
X004461Y005321D03*
D82*
X002986Y004696D03*
D83*
X002986Y006054D03*
D84*
X002991Y005511D03*
X003406Y005446D03*
X003621Y005581D03*
X003626Y005581D03*
X003636Y005586D03*
X003756Y005041D03*
X003741Y004881D03*
X003271Y004821D03*
X004321Y005201D03*
X004326Y005201D03*
X004576Y004736D03*
D85*
X004186Y006301D03*
X002991Y005821D03*
D86*
X002996Y004671D03*
D87*
X003286Y004821D03*
X003751Y004881D03*
X003756Y004881D03*
X004311Y005201D03*
X004316Y005201D03*
X004701Y004921D03*
X004366Y004361D03*
X003421Y005451D03*
X003601Y005576D03*
X003606Y005576D03*
X003141Y005306D03*
X003131Y005321D03*
X003116Y005341D03*
X003106Y005356D03*
X003101Y005361D03*
X003096Y005371D03*
X003056Y005426D03*
X003046Y005441D03*
X002996Y005506D03*
D88*
X002996Y005809D03*
X003076Y004339D03*
X004336Y004279D03*
D89*
X003001Y004664D03*
X004596Y005684D03*
D90*
X003771Y004886D03*
X003296Y004821D03*
X003191Y005236D03*
X003261Y005321D03*
X003091Y005381D03*
X003086Y005386D03*
X003076Y005401D03*
X003001Y005506D03*
X003041Y005766D03*
X003431Y005451D03*
X003436Y005451D03*
X003441Y005451D03*
X003571Y005566D03*
X003576Y005566D03*
D91*
X003001Y006336D03*
X004126Y006431D03*
X004546Y005951D03*
X004521Y005336D03*
D92*
X004471Y005324D03*
X004296Y005199D03*
X004291Y005199D03*
X004581Y004749D03*
X003776Y004884D03*
X003731Y005044D03*
X003306Y004824D03*
X003301Y004824D03*
X003201Y005229D03*
X003446Y005454D03*
X003561Y005564D03*
X003566Y005564D03*
X003006Y005504D03*
D93*
X003231Y005259D03*
X003006Y006349D03*
X004541Y005969D03*
D94*
X003011Y004646D03*
D95*
X003091Y004849D03*
X003316Y004824D03*
X003791Y004889D03*
X003796Y004889D03*
X004276Y005194D03*
X004476Y005324D03*
X003546Y005559D03*
X003536Y005554D03*
X003456Y005454D03*
X003011Y005499D03*
X003036Y005769D03*
D96*
X003016Y004639D03*
X004591Y005684D03*
D97*
X003716Y005046D03*
X003711Y005046D03*
X003801Y004891D03*
X003321Y004821D03*
X003016Y005496D03*
D98*
X003016Y006374D03*
X004221Y006254D03*
X004531Y005989D03*
X004661Y005684D03*
X004346Y004294D03*
X004226Y004039D03*
X003611Y004044D03*
X003606Y004054D03*
X003601Y004059D03*
X003596Y004064D03*
D99*
X003326Y004824D03*
X003021Y005494D03*
D100*
X003021Y005779D03*
X003251Y005294D03*
X003081Y004839D03*
X003176Y004179D03*
X003181Y004174D03*
X003186Y004169D03*
X004141Y003924D03*
X004666Y005684D03*
X004451Y006104D03*
X004446Y006109D03*
X004441Y006114D03*
X004436Y006119D03*
X004026Y006584D03*
X004021Y006589D03*
X004016Y006594D03*
X003591Y006589D03*
X003526Y006534D03*
X003101Y006494D03*
D101*
X003026Y004621D03*
X003031Y004616D03*
D102*
X003086Y004844D03*
X003026Y005489D03*
X003221Y006569D03*
X003231Y006574D03*
X003236Y006574D03*
X003241Y006574D03*
X003251Y006579D03*
X003256Y006579D03*
X003261Y006579D03*
X003271Y006584D03*
X003276Y006584D03*
X003281Y006584D03*
X003286Y006584D03*
X003291Y006584D03*
X003331Y006589D03*
X003336Y006589D03*
X003341Y006589D03*
X003361Y006584D03*
X003366Y006584D03*
X003371Y006584D03*
X003376Y006584D03*
X003381Y006584D03*
X003386Y006579D03*
X003391Y006579D03*
X003396Y006579D03*
X003401Y006579D03*
X003406Y006574D03*
X003411Y006574D03*
X003426Y006569D03*
X003696Y006659D03*
X003711Y006664D03*
X003721Y006669D03*
X003726Y006669D03*
X003731Y006669D03*
X003741Y006674D03*
X003746Y006674D03*
X003751Y006674D03*
X003756Y006674D03*
X003771Y006679D03*
X003776Y006679D03*
X003781Y006679D03*
X003786Y006679D03*
X003791Y006679D03*
X003796Y006679D03*
X003801Y006679D03*
X003806Y006679D03*
X003811Y006679D03*
X003816Y006679D03*
X003821Y006679D03*
X003826Y006679D03*
X003831Y006679D03*
X003836Y006679D03*
X003856Y006674D03*
X003861Y006674D03*
X003866Y006674D03*
X003871Y006674D03*
X003876Y006669D03*
X003881Y006669D03*
X003886Y006669D03*
X003896Y006664D03*
X003901Y006664D03*
X004246Y006204D03*
X004251Y006204D03*
X004256Y006204D03*
X004271Y006199D03*
X004276Y006199D03*
X004281Y006199D03*
X004286Y006199D03*
X004296Y006194D03*
X004301Y006194D03*
X004306Y006194D03*
X004316Y006189D03*
X004331Y006184D03*
X003496Y004099D03*
X003486Y004094D03*
X003481Y004094D03*
X003476Y004094D03*
X003466Y004089D03*
X003461Y004089D03*
X003456Y004089D03*
X003451Y004089D03*
X003441Y004084D03*
X003436Y004084D03*
X003431Y004084D03*
X003426Y004084D03*
X003421Y004084D03*
X003416Y004084D03*
X003411Y004084D03*
X003406Y004084D03*
X003401Y004084D03*
X003396Y004084D03*
X003391Y004084D03*
X003386Y004084D03*
X003381Y004084D03*
X003376Y004084D03*
X003371Y004084D03*
X003366Y004084D03*
X003361Y004084D03*
X003346Y004089D03*
X003341Y004089D03*
X003336Y004089D03*
X003331Y004089D03*
X003326Y004094D03*
X003321Y004094D03*
X003316Y004094D03*
X003306Y004099D03*
X003826Y003844D03*
X003841Y003839D03*
X003846Y003839D03*
X003851Y003839D03*
X003856Y003834D03*
X003861Y003834D03*
X003866Y003834D03*
X003871Y003834D03*
X003881Y003829D03*
X003886Y003829D03*
X003891Y003829D03*
X003896Y003829D03*
X003901Y003829D03*
X003906Y003829D03*
X003911Y003829D03*
X003916Y003829D03*
X003921Y003829D03*
X003926Y003829D03*
X003931Y003829D03*
X003936Y003829D03*
X003941Y003829D03*
X003946Y003829D03*
X003951Y003829D03*
X003956Y003829D03*
X003971Y003834D03*
X003976Y003834D03*
X003981Y003834D03*
X003986Y003834D03*
X003991Y003839D03*
X003996Y003839D03*
X004001Y003839D03*
X004011Y003844D03*
X004016Y003844D03*
D103*
X004041Y003854D03*
X004051Y003859D03*
X004061Y003864D03*
X004071Y003869D03*
X004081Y003874D03*
X003801Y003854D03*
X003791Y003859D03*
X003781Y003864D03*
X003771Y003869D03*
X003761Y003874D03*
X003531Y004114D03*
X003521Y004109D03*
X003266Y004114D03*
X003256Y004119D03*
X003251Y004124D03*
X003241Y004129D03*
X004486Y005324D03*
X004381Y006159D03*
X004376Y006164D03*
X004371Y006164D03*
X004366Y006169D03*
X004361Y006169D03*
X003971Y006629D03*
X003961Y006634D03*
X003956Y006639D03*
X003951Y006639D03*
X003946Y006644D03*
X003936Y006649D03*
X003666Y006644D03*
X003661Y006644D03*
X003656Y006639D03*
X003646Y006634D03*
X003506Y006529D03*
X003486Y006539D03*
X003476Y006544D03*
X003471Y006549D03*
X003461Y006554D03*
X003451Y006559D03*
X003196Y006559D03*
X003186Y006554D03*
X003176Y006549D03*
X003171Y006544D03*
X003166Y006544D03*
X003161Y006539D03*
X003026Y005774D03*
D104*
X003031Y005486D03*
X003206Y005236D03*
X004311Y006191D03*
X004321Y006186D03*
X004326Y006186D03*
X004336Y006181D03*
X004341Y006181D03*
X004346Y006176D03*
X004351Y006176D03*
X004356Y006171D03*
X003941Y006646D03*
X003931Y006651D03*
X003926Y006651D03*
X003921Y006656D03*
X003916Y006656D03*
X003911Y006661D03*
X003906Y006661D03*
X003891Y006666D03*
X003736Y006671D03*
X003716Y006666D03*
X003706Y006661D03*
X003701Y006661D03*
X003691Y006656D03*
X003686Y006656D03*
X003681Y006651D03*
X003676Y006651D03*
X003671Y006646D03*
X003466Y006551D03*
X003456Y006556D03*
X003446Y006561D03*
X003441Y006561D03*
X003436Y006566D03*
X003431Y006566D03*
X003421Y006571D03*
X003416Y006571D03*
X003246Y006576D03*
X003226Y006571D03*
X003216Y006566D03*
X003211Y006566D03*
X003206Y006561D03*
X003201Y006561D03*
X003191Y006556D03*
X003181Y006551D03*
X003261Y004116D03*
X003271Y004111D03*
X003276Y004111D03*
X003281Y004106D03*
X003286Y004106D03*
X003291Y004101D03*
X003296Y004101D03*
X003301Y004101D03*
X003311Y004096D03*
X003471Y004091D03*
X003491Y004096D03*
X003501Y004101D03*
X003506Y004101D03*
X003511Y004106D03*
X003516Y004106D03*
X003526Y004111D03*
X003536Y004116D03*
X003776Y003866D03*
X003786Y003861D03*
X003796Y003856D03*
X003806Y003851D03*
X003811Y003851D03*
X003816Y003846D03*
X003821Y003846D03*
X003831Y003841D03*
X003836Y003841D03*
X004006Y003841D03*
X004021Y003846D03*
X004026Y003846D03*
X004031Y003851D03*
X004036Y003851D03*
X004046Y003856D03*
X004056Y003861D03*
X004066Y003866D03*
D105*
X003966Y003831D03*
X003961Y003831D03*
X003876Y003831D03*
X003446Y004086D03*
X003356Y004086D03*
X003351Y004086D03*
X003256Y005306D03*
X003031Y005771D03*
X003266Y006581D03*
X003296Y006586D03*
X003301Y006586D03*
X003306Y006586D03*
X003311Y006586D03*
X003316Y006586D03*
X003321Y006586D03*
X003326Y006586D03*
X003346Y006586D03*
X003351Y006586D03*
X003356Y006586D03*
X003761Y006676D03*
X003766Y006676D03*
X003841Y006676D03*
X003846Y006676D03*
X003851Y006676D03*
X004261Y006201D03*
X004266Y006201D03*
X004291Y006196D03*
X004481Y005326D03*
X004586Y004761D03*
D106*
X004586Y005684D03*
X003036Y004609D03*
D107*
X003071Y004821D03*
X003216Y005256D03*
X003111Y004261D03*
X003571Y004091D03*
X003636Y004001D03*
X004206Y004001D03*
X004351Y004306D03*
X004506Y005331D03*
X003036Y006411D03*
D108*
X003126Y006514D03*
X003131Y006519D03*
X003136Y006524D03*
X003606Y006604D03*
X003611Y006609D03*
X003616Y006614D03*
X003621Y006614D03*
X003626Y006619D03*
X003631Y006624D03*
X003986Y006619D03*
X003991Y006614D03*
X003996Y006609D03*
X004001Y006609D03*
X004411Y006139D03*
X004416Y006134D03*
X003041Y005479D03*
X003206Y004154D03*
X003211Y004149D03*
X003216Y004144D03*
X003721Y003904D03*
X003726Y003899D03*
X003731Y003894D03*
X003741Y003889D03*
X004101Y003889D03*
X004111Y003894D03*
X004116Y003899D03*
X004121Y003904D03*
X004361Y004329D03*
D109*
X003746Y004879D03*
X003746Y005044D03*
X003751Y005044D03*
X003416Y005449D03*
X003411Y005449D03*
X003611Y005579D03*
X003616Y005579D03*
X003046Y005764D03*
X003276Y004824D03*
X003281Y004824D03*
X004466Y005324D03*
D110*
X004351Y005206D03*
X004571Y004726D03*
X004256Y004416D03*
X003821Y004931D03*
X003811Y004926D03*
X003776Y005041D03*
X003771Y005041D03*
X003706Y005081D03*
X003701Y005081D03*
X003696Y005086D03*
X003691Y005091D03*
X003686Y005091D03*
X003681Y005096D03*
X003676Y005096D03*
X003671Y005101D03*
X003661Y005106D03*
X003656Y005111D03*
X003651Y005111D03*
X003646Y005116D03*
X003636Y005121D03*
X003631Y005126D03*
X003626Y005126D03*
X003621Y005131D03*
X003611Y005136D03*
X003601Y005141D03*
X003596Y005146D03*
X003586Y005151D03*
X003576Y005156D03*
X003561Y005166D03*
X003551Y005171D03*
X003536Y005181D03*
X003526Y005186D03*
X003516Y005191D03*
X003381Y005446D03*
X003376Y005446D03*
X003671Y005596D03*
X003676Y005596D03*
X003681Y005601D03*
X003686Y005601D03*
X003051Y005766D03*
X003256Y004821D03*
D111*
X003056Y004584D03*
D112*
X003061Y004576D03*
D113*
X003066Y004379D03*
X004321Y004259D03*
D114*
X003071Y004351D03*
X004551Y005936D03*
X004201Y006281D03*
D115*
X004421Y006131D03*
X004426Y006126D03*
X004431Y006121D03*
X004011Y006596D03*
X004006Y006601D03*
X003601Y006601D03*
X003596Y006596D03*
X003521Y006531D03*
X003121Y006511D03*
X003116Y006506D03*
X003111Y006501D03*
X003106Y006496D03*
X004491Y005326D03*
X003546Y004111D03*
X003701Y003921D03*
X003706Y003916D03*
X003711Y003911D03*
X003716Y003906D03*
X004126Y003906D03*
X004131Y003911D03*
X004136Y003916D03*
X003201Y004156D03*
X003196Y004161D03*
X003191Y004166D03*
D116*
X003171Y004816D03*
X003616Y004856D03*
X003621Y004856D03*
X003271Y005436D03*
X003846Y005651D03*
X003851Y005651D03*
X004451Y005321D03*
D117*
X004441Y005219D03*
X004436Y005219D03*
X003846Y005034D03*
X003841Y005034D03*
X003626Y004859D03*
X003176Y004819D03*
X003276Y005434D03*
X003281Y005434D03*
X003836Y005649D03*
X003841Y005649D03*
D118*
X003831Y005646D03*
X003826Y005646D03*
X004426Y005216D03*
X004431Y005216D03*
X004671Y005681D03*
X003836Y005036D03*
X003631Y004856D03*
X003181Y004816D03*
X003286Y005436D03*
X003291Y005436D03*
D119*
X003806Y005639D03*
X003811Y005639D03*
X003816Y005644D03*
X003821Y005644D03*
X003831Y005034D03*
X003641Y004859D03*
X003636Y004859D03*
X003191Y004819D03*
X003186Y004819D03*
D120*
X003201Y004819D03*
X003206Y004819D03*
X003656Y004864D03*
X003316Y005439D03*
X003311Y005439D03*
X003306Y005439D03*
X003786Y005634D03*
X003791Y005634D03*
X004406Y005214D03*
X004411Y005214D03*
D121*
X004286Y005196D03*
X004281Y005196D03*
X003726Y005046D03*
X003721Y005046D03*
X003781Y004886D03*
X003786Y004886D03*
X003311Y004821D03*
X003451Y005451D03*
X003541Y005556D03*
X003551Y005561D03*
X003556Y005561D03*
D122*
X003746Y005621D03*
X003751Y005621D03*
X003336Y005441D03*
X003331Y005441D03*
X003806Y005036D03*
X003681Y004866D03*
X003676Y004866D03*
X004386Y005211D03*
X004391Y005211D03*
D123*
X004161Y006334D03*
X004151Y006349D03*
X004146Y006359D03*
D124*
X004156Y006341D03*
X004311Y004246D03*
D125*
X004536Y005344D03*
X004651Y005684D03*
X004181Y006309D03*
D126*
X004191Y006294D03*
X004556Y005919D03*
X004326Y004264D03*
D127*
X004261Y004206D03*
X004666Y004916D03*
D128*
X004266Y004209D03*
D129*
X004276Y004219D03*
X004636Y005684D03*
D130*
X004281Y004221D03*
D131*
X004331Y004269D03*
D132*
X004541Y005349D03*
D133*
X004546Y005351D03*
D134*
X004551Y005359D03*
X004676Y004899D03*
D135*
X004556Y005369D03*
X004631Y005684D03*
D136*
X004561Y005591D03*
D137*
X004566Y005581D03*
D138*
X004571Y005569D03*
D139*
X004576Y005554D03*
D140*
X004581Y005536D03*
D141*
X004596Y004996D03*
X004601Y004991D03*
D142*
X004601Y005684D03*
D143*
X004606Y004986D03*
D144*
X004606Y005684D03*
D145*
X004611Y005684D03*
X004616Y004979D03*
D146*
X004626Y004969D03*
X004616Y005684D03*
D147*
X004621Y005684D03*
D148*
X004626Y005686D03*
D149*
X004631Y004961D03*
D150*
X004646Y004946D03*
D151*
X004646Y005686D03*
D152*
X004651Y004939D03*
D153*
X004661Y004924D03*
D154*
X004681Y004889D03*
D155*
X007095Y005896D02*
X007216Y006045D01*
X007185Y006105D01*
X007389Y006189D01*
X007411Y006152D01*
X007440Y006120D01*
X007476Y006096D01*
X007517Y006081D01*
X007560Y006075D01*
X007604Y006081D01*
X007645Y006096D01*
X007682Y006121D01*
X007711Y006154D01*
X007732Y006193D01*
X007743Y006236D01*
X007743Y006280D01*
X007733Y006323D01*
X007713Y006362D01*
X007685Y006396D01*
X007649Y006422D01*
X007608Y006438D01*
X007564Y006444D01*
X007520Y006440D01*
X007478Y006425D01*
X007441Y006401D01*
X007411Y006369D01*
X007389Y006331D01*
X007185Y006415D01*
X007216Y006475D01*
X007095Y006624D01*
X007196Y006725D01*
X007345Y006604D01*
X007405Y006635D01*
X007469Y006656D01*
X007488Y006846D01*
X007632Y006846D01*
X007651Y006656D01*
X007715Y006635D01*
X007775Y006604D01*
X007924Y006725D01*
X008025Y006624D01*
X007904Y006475D01*
X007935Y006415D01*
X007956Y006351D01*
X008146Y006332D01*
X008146Y006188D01*
X007956Y006169D01*
X007935Y006105D01*
X007904Y006045D01*
X008025Y005896D01*
X007924Y005795D01*
X007775Y005916D01*
X007715Y005885D01*
X007651Y005864D01*
X007632Y005674D01*
X007488Y005674D01*
X007469Y005864D01*
X007405Y005885D01*
X007345Y005916D01*
X007196Y005795D01*
X007095Y005896D01*
X007098Y005900D02*
X007326Y005900D01*
X007374Y005900D02*
X007746Y005900D01*
X007794Y005900D02*
X008022Y005900D01*
X007975Y005958D02*
X007145Y005958D01*
X007192Y006016D02*
X007928Y006016D01*
X007919Y006073D02*
X007201Y006073D01*
X007248Y006131D02*
X007430Y006131D01*
X007390Y006188D02*
X007387Y006188D01*
X007407Y006361D02*
X007316Y006361D01*
X007186Y006418D02*
X007468Y006418D01*
X007653Y006418D02*
X007934Y006418D01*
X007953Y006361D02*
X007714Y006361D01*
X007738Y006303D02*
X008146Y006303D01*
X008146Y006246D02*
X007743Y006246D01*
X007729Y006188D02*
X008146Y006188D01*
X007943Y006131D02*
X007690Y006131D01*
X007649Y005843D02*
X007471Y005843D01*
X007477Y005785D02*
X007643Y005785D01*
X007637Y005728D02*
X007483Y005728D01*
X007256Y005843D02*
X007148Y005843D01*
X007215Y006476D02*
X007905Y006476D01*
X007952Y006534D02*
X007168Y006534D01*
X007121Y006591D02*
X007999Y006591D01*
X008000Y006649D02*
X007830Y006649D01*
X007900Y006706D02*
X007943Y006706D01*
X007673Y006649D02*
X007447Y006649D01*
X007474Y006706D02*
X007646Y006706D01*
X007640Y006764D02*
X007480Y006764D01*
X007486Y006821D02*
X007634Y006821D01*
X007290Y006649D02*
X007120Y006649D01*
X007177Y006706D02*
X007220Y006706D01*
X007864Y005843D02*
X007972Y005843D01*
M02*
