G75*
G70*
%OFA0B0*%
%FSLAX24Y24*%
%IPPOS*%
%LPD*%
%AMOC8*
5,1,8,0,0,1.08239X$1,22.5*
%
%ADD10C,0.0100*%
%ADD11C,0.0080*%
%ADD12C,0.0060*%
%ADD13C,0.0050*%
%ADD14C,0.0000*%
%ADD15C,0.0120*%
%ADD16C,0.0070*%
D10*
X002310Y006760D02*
X002310Y007460D01*
X002410Y007360D01*
X002420Y007350D02*
X002200Y007350D01*
X002210Y007360D02*
X002310Y007460D01*
X002470Y006960D02*
X002610Y007010D01*
X002560Y006910D01*
X002470Y006960D01*
X002560Y006910D02*
X002558Y006940D01*
X002553Y006970D01*
X002544Y006999D01*
X002531Y007026D01*
X002516Y007052D01*
X002497Y007076D01*
X002476Y007097D01*
X002452Y007116D01*
X002426Y007131D01*
X002399Y007144D01*
X002370Y007153D01*
X002340Y007158D01*
X002310Y007160D01*
X002280Y007158D01*
X002250Y007153D01*
X002221Y007144D01*
X002194Y007131D01*
X002168Y007116D01*
X002144Y007097D01*
X002123Y007076D01*
X002104Y007052D01*
X002089Y007026D01*
X002076Y006999D01*
X002067Y006970D01*
X002062Y006940D01*
X002060Y006910D01*
X002910Y007160D02*
X003010Y007260D01*
X003010Y007060D01*
X002910Y007160D01*
X003660Y007160D01*
X003830Y007060D02*
X003910Y006960D01*
X004010Y007040D01*
X003830Y007060D01*
X003460Y006960D02*
X003432Y006962D01*
X003404Y006967D01*
X003377Y006976D01*
X003352Y006988D01*
X003328Y007003D01*
X003306Y007021D01*
X003287Y007042D01*
X003270Y007064D01*
X003256Y007089D01*
X003246Y007115D01*
X003239Y007143D01*
X003235Y007171D01*
X003235Y007199D01*
X003239Y007227D01*
X003246Y007255D01*
X003256Y007281D01*
X003270Y007306D01*
X003287Y007328D01*
X003306Y007349D01*
X003328Y007367D01*
X003352Y007382D01*
X003377Y007394D01*
X003404Y007403D01*
X003432Y007408D01*
X003460Y007410D01*
X003410Y007310D01*
X003360Y007460D01*
X003460Y007410D01*
X003910Y006960D02*
X003908Y006998D01*
X003910Y007035D01*
X003916Y007073D01*
X003926Y007110D01*
X003939Y007145D01*
X003956Y007179D01*
X003976Y007212D01*
X004000Y007242D01*
X004026Y007269D01*
X004055Y007294D01*
X004086Y007315D01*
X004120Y007334D01*
X004155Y007349D01*
X004191Y007360D01*
X004228Y007368D01*
X004266Y007372D01*
X004304Y007372D01*
X004342Y007368D01*
X004379Y007360D01*
X004415Y007349D01*
X004450Y007334D01*
X004484Y007315D01*
X004515Y007294D01*
X004544Y007269D01*
X004570Y007242D01*
X004594Y007212D01*
X004614Y007179D01*
X004631Y007145D01*
X004644Y007110D01*
X004654Y007073D01*
X004660Y007035D01*
X004662Y006998D01*
X004660Y006960D01*
D11*
X001420Y006933D02*
X001420Y006723D01*
X001000Y006723D01*
X001000Y006933D01*
X001070Y007003D01*
X001350Y007003D01*
X001420Y006933D01*
X001350Y006543D02*
X001070Y006543D01*
X001350Y006262D01*
X001420Y006332D01*
X001420Y006473D01*
X001350Y006543D01*
X001070Y006543D02*
X001000Y006473D01*
X001000Y006332D01*
X001070Y006262D01*
X001350Y006262D01*
X001350Y006082D02*
X001420Y006012D01*
X001420Y005872D01*
X001350Y005802D01*
X001070Y006082D01*
X001350Y006082D01*
X001350Y005802D02*
X001070Y005802D01*
X001000Y005872D01*
X001000Y006012D01*
X001070Y006082D01*
X001070Y005622D02*
X001000Y005552D01*
X001000Y005412D01*
X001070Y005342D01*
X001210Y005161D02*
X001210Y004881D01*
X001000Y005091D01*
X001420Y005091D01*
X001420Y005342D02*
X001140Y005622D01*
X001070Y005622D01*
X001420Y005622D02*
X001420Y005342D01*
X001350Y004701D02*
X001210Y004701D01*
X001210Y004561D01*
X001070Y004701D02*
X001000Y004631D01*
X001000Y004491D01*
X001070Y004421D01*
X001350Y004421D01*
X001420Y004491D01*
X001420Y004631D01*
X001350Y004701D01*
X001350Y004241D02*
X001280Y004241D01*
X001210Y004171D01*
X001210Y004101D01*
X001210Y004171D02*
X001140Y004241D01*
X001070Y004241D01*
X001000Y004171D01*
X001000Y004030D01*
X001070Y003960D01*
X001350Y003960D02*
X001420Y004030D01*
X001420Y004171D01*
X001350Y004241D01*
X001420Y003780D02*
X001420Y003500D01*
X001000Y003500D01*
X003160Y002010D02*
X003160Y001510D01*
X003410Y001260D01*
X003910Y001260D01*
X004160Y001510D01*
X004410Y001260D01*
X004910Y001260D01*
X005160Y001510D01*
X005410Y001260D01*
X005910Y001260D01*
X006160Y001510D01*
X006410Y001260D01*
X006910Y001260D01*
X007160Y001510D01*
X007160Y002010D01*
X006910Y002260D01*
X006410Y002260D01*
X006160Y002010D01*
X005910Y002260D01*
X005410Y002260D01*
X005160Y002010D01*
X004910Y002260D01*
X004410Y002260D01*
X004160Y002010D01*
X003910Y002260D01*
X003410Y002260D01*
X003160Y002010D01*
X008060Y003410D02*
X008310Y003160D01*
X008810Y003160D01*
X009060Y003410D01*
X009060Y003910D01*
X008810Y004160D01*
X009060Y004410D01*
X009060Y004910D01*
X008810Y005160D01*
X009060Y005410D01*
X009060Y005910D01*
X008810Y006160D01*
X009060Y006410D01*
X009060Y006910D01*
X008810Y007160D01*
X008310Y007160D01*
X008060Y006910D01*
X008060Y006410D01*
X008310Y006160D01*
X008060Y005910D01*
X008060Y005410D01*
X008310Y005160D01*
X008060Y004910D01*
X008060Y004410D01*
X008310Y004160D01*
X008060Y003910D01*
X008060Y003410D01*
D12*
X007385Y004390D02*
X007158Y004390D01*
X007385Y004617D01*
X007385Y004674D01*
X007328Y004730D01*
X007215Y004730D01*
X007158Y004674D01*
X007017Y004674D02*
X007017Y004560D01*
X006960Y004503D01*
X006790Y004503D01*
X006790Y004390D02*
X006790Y004730D01*
X006960Y004730D01*
X007017Y004674D01*
X006903Y004503D02*
X007017Y004390D01*
X006855Y003403D02*
X006628Y003403D01*
X006515Y003290D01*
X006628Y003177D01*
X006855Y003177D01*
X006798Y003035D02*
X006571Y003035D01*
X006515Y002978D01*
X006515Y002808D01*
X006855Y002808D01*
X006855Y002978D01*
X006798Y003035D01*
X006685Y003177D02*
X006685Y003403D01*
X006742Y002667D02*
X006685Y002610D01*
X006685Y002497D01*
X006628Y002440D01*
X006571Y002440D01*
X006515Y002497D01*
X006515Y002610D01*
X006571Y002667D01*
X006742Y002667D02*
X006798Y002667D01*
X006855Y002610D01*
X006855Y002497D01*
X006798Y002440D01*
X005855Y002497D02*
X005798Y002440D01*
X005855Y002497D02*
X005855Y002610D01*
X005798Y002667D01*
X005742Y002667D01*
X005685Y002610D01*
X005685Y002497D01*
X005628Y002440D01*
X005571Y002440D01*
X005515Y002497D01*
X005515Y002610D01*
X005571Y002667D01*
X005571Y002808D02*
X005798Y002808D01*
X005855Y002865D01*
X005855Y002978D01*
X005798Y003035D01*
X005855Y003177D02*
X005855Y003403D01*
X005855Y003177D02*
X005515Y003177D01*
X005571Y003035D02*
X005515Y002978D01*
X005515Y002865D01*
X005571Y002808D01*
X004855Y002865D02*
X004855Y002978D01*
X004798Y003035D01*
X004798Y003177D02*
X004855Y003233D01*
X004855Y003347D01*
X004798Y003403D01*
X004798Y003177D02*
X004571Y003177D01*
X004515Y003233D01*
X004515Y003347D01*
X004571Y003403D01*
X004571Y003035D02*
X004515Y002978D01*
X004515Y002865D01*
X004571Y002808D01*
X004798Y002808D01*
X004855Y002865D01*
X004742Y002667D02*
X004515Y002667D01*
X004742Y002667D02*
X004855Y002553D01*
X004742Y002440D01*
X004515Y002440D01*
X003855Y002497D02*
X003855Y002610D01*
X003798Y002667D01*
X003685Y002667D01*
X003685Y002553D01*
X003798Y002440D02*
X003571Y002440D01*
X003515Y002497D01*
X003515Y002610D01*
X003571Y002667D01*
X003515Y002808D02*
X003855Y003035D01*
X003515Y003035D01*
X003515Y003177D02*
X003515Y003347D01*
X003571Y003403D01*
X003798Y003403D01*
X003855Y003347D01*
X003855Y003177D01*
X003515Y003177D01*
X003515Y002808D02*
X003855Y002808D01*
X003855Y002497D02*
X003798Y002440D01*
X003149Y002597D02*
X003092Y002540D01*
X002978Y002540D01*
X002922Y002597D01*
X003035Y002710D02*
X003092Y002710D01*
X003149Y002653D01*
X003149Y002597D01*
X003092Y002710D02*
X003149Y002767D01*
X003149Y002824D01*
X003092Y002880D01*
X002978Y002880D01*
X002922Y002824D01*
X002780Y002824D02*
X002780Y002710D01*
X002724Y002653D01*
X002553Y002653D01*
X002553Y002540D02*
X002553Y002880D01*
X002724Y002880D01*
X002780Y002824D01*
X002667Y002653D02*
X002780Y002540D01*
X003460Y003940D02*
X003403Y003997D01*
X003403Y004224D01*
X003460Y004280D01*
X003574Y004280D01*
X003630Y004224D01*
X003772Y004167D02*
X003885Y004280D01*
X003885Y003940D01*
X003772Y003940D02*
X003999Y003940D01*
X003630Y003997D02*
X003574Y003940D01*
X003460Y003940D01*
X002130Y004947D02*
X002130Y005060D01*
X002073Y005117D01*
X002130Y005258D02*
X001903Y005485D01*
X001846Y005485D01*
X001790Y005428D01*
X001790Y005315D01*
X001846Y005258D01*
X001846Y005117D02*
X001790Y005060D01*
X001790Y004947D01*
X001846Y004890D01*
X002073Y004890D01*
X002130Y004947D01*
X002130Y005258D02*
X002130Y005485D01*
X002140Y006390D02*
X002480Y006617D01*
X002480Y006390D02*
X002140Y006617D01*
X003090Y006617D02*
X003146Y006617D01*
X003260Y006503D01*
X003430Y006503D01*
X003260Y006503D02*
X003146Y006390D01*
X003090Y006390D01*
X004140Y006390D02*
X004140Y006617D01*
X004196Y006617D01*
X004423Y006390D01*
X004480Y006390D01*
X004480Y006617D01*
X004897Y007890D02*
X005010Y007890D01*
X005067Y007947D01*
X005208Y008060D02*
X005435Y008060D01*
X005378Y007890D02*
X005378Y008230D01*
X005208Y008060D01*
X005067Y008174D02*
X005010Y008230D01*
X004897Y008230D01*
X004840Y008174D01*
X004840Y007947D01*
X004897Y007890D01*
X006990Y007940D02*
X006990Y008280D01*
X007160Y008280D01*
X007217Y008224D01*
X007217Y008110D01*
X007160Y008053D01*
X006990Y008053D01*
X007103Y008053D02*
X007217Y007940D01*
X007358Y007940D02*
X007585Y007940D01*
X007472Y007940D02*
X007472Y008280D01*
X007358Y008167D01*
X007365Y006080D02*
X007308Y006024D01*
X007365Y006080D02*
X007478Y006080D01*
X007535Y006024D01*
X007535Y005967D01*
X007478Y005910D01*
X007535Y005853D01*
X007535Y005797D01*
X007478Y005740D01*
X007365Y005740D01*
X007308Y005797D01*
X007167Y005797D02*
X007110Y005740D01*
X006997Y005740D01*
X006940Y005797D01*
X006940Y006024D01*
X006997Y006080D01*
X007110Y006080D01*
X007167Y006024D01*
X007422Y005910D02*
X007478Y005910D01*
X005335Y004090D02*
X005335Y003750D01*
X005222Y003750D02*
X005449Y003750D01*
X005222Y003977D02*
X005335Y004090D01*
X005080Y004090D02*
X005080Y003807D01*
X005024Y003750D01*
X004910Y003750D01*
X004853Y003807D01*
X004853Y004090D01*
D13*
X009235Y004050D02*
X009235Y003960D01*
X009280Y003915D01*
X009460Y003915D01*
X009505Y003960D01*
X009505Y004050D01*
X009460Y004096D01*
X009280Y004096D01*
X009235Y004050D01*
X009280Y003801D02*
X009235Y003756D01*
X009235Y003621D01*
X009505Y003621D01*
X009505Y003756D01*
X009460Y003801D01*
X009280Y003801D01*
X009280Y003506D02*
X009235Y003461D01*
X009235Y003371D01*
X009280Y003326D01*
X009325Y003326D01*
X009370Y003371D01*
X009370Y003461D01*
X009415Y003506D01*
X009460Y003506D01*
X009505Y003461D01*
X009505Y003371D01*
X009460Y003326D01*
X009460Y004421D02*
X009280Y004421D01*
X009235Y004466D01*
X009235Y004556D01*
X009280Y004601D01*
X009280Y004715D02*
X009325Y004715D01*
X009370Y004760D01*
X009370Y004850D01*
X009415Y004896D01*
X009460Y004896D01*
X009505Y004850D01*
X009505Y004760D01*
X009460Y004715D01*
X009460Y004601D02*
X009505Y004556D01*
X009505Y004466D01*
X009460Y004421D01*
X009280Y004715D02*
X009235Y004760D01*
X009235Y004850D01*
X009280Y004896D01*
X009235Y005180D02*
X009235Y005270D01*
X009235Y005225D02*
X009505Y005225D01*
X009505Y005180D02*
X009505Y005270D01*
X009505Y005376D02*
X009235Y005376D01*
X009505Y005556D01*
X009235Y005556D01*
X009235Y005671D02*
X009235Y005851D01*
X009235Y005761D02*
X009505Y005761D01*
X009505Y005965D02*
X009325Y006146D01*
X009280Y006146D01*
X009235Y006100D01*
X009235Y006010D01*
X009280Y005965D01*
X009505Y005965D02*
X009505Y006146D01*
X009505Y006424D02*
X009505Y006514D01*
X009505Y006469D02*
X009235Y006469D01*
X009235Y006424D02*
X009235Y006514D01*
X009235Y006621D02*
X009505Y006801D01*
X009235Y006801D01*
X009235Y006621D02*
X009505Y006621D01*
X009505Y007005D02*
X009235Y007005D01*
X009235Y006915D02*
X009235Y007096D01*
D14*
X001785Y000536D02*
X001719Y000534D01*
X001653Y000536D01*
X001587Y000542D01*
X001521Y000551D01*
X001456Y000564D01*
X001391Y000581D01*
X001328Y000601D01*
X001266Y000625D01*
X001206Y000652D01*
X001147Y000683D01*
X001089Y000717D01*
X001034Y000754D01*
X000981Y000794D01*
X000931Y000837D01*
X000882Y000882D01*
X000837Y000931D01*
X000794Y000981D01*
X000754Y001034D01*
X000717Y001089D01*
X000683Y001147D01*
X000652Y001206D01*
X000625Y001266D01*
X000601Y001328D01*
X000581Y001391D01*
X000564Y001456D01*
X000551Y001521D01*
X000542Y001587D01*
X000536Y001653D01*
X000534Y001719D01*
X000536Y001785D01*
X000535Y001785D02*
X000535Y008535D01*
X001160Y008535D02*
X001162Y008585D01*
X001168Y008634D01*
X001178Y008683D01*
X001191Y008730D01*
X001209Y008777D01*
X001230Y008822D01*
X001254Y008865D01*
X001282Y008906D01*
X001313Y008945D01*
X001347Y008981D01*
X001384Y009015D01*
X001424Y009045D01*
X001465Y009072D01*
X001509Y009096D01*
X001554Y009116D01*
X001601Y009132D01*
X001649Y009145D01*
X001698Y009154D01*
X001748Y009159D01*
X001797Y009160D01*
X001847Y009157D01*
X001896Y009150D01*
X001945Y009139D01*
X001992Y009125D01*
X002038Y009106D01*
X002083Y009084D01*
X002126Y009059D01*
X002166Y009030D01*
X002204Y008998D01*
X002240Y008964D01*
X002273Y008926D01*
X002302Y008886D01*
X002328Y008844D01*
X002351Y008800D01*
X002370Y008754D01*
X002386Y008707D01*
X002398Y008658D01*
X002406Y008609D01*
X002410Y008560D01*
X002410Y008510D01*
X002406Y008461D01*
X002398Y008412D01*
X002386Y008363D01*
X002370Y008316D01*
X002351Y008270D01*
X002328Y008226D01*
X002302Y008184D01*
X002273Y008144D01*
X002240Y008106D01*
X002204Y008072D01*
X002166Y008040D01*
X002126Y008011D01*
X002083Y007986D01*
X002038Y007964D01*
X001992Y007945D01*
X001945Y007931D01*
X001896Y007920D01*
X001847Y007913D01*
X001797Y007910D01*
X001748Y007911D01*
X001698Y007916D01*
X001649Y007925D01*
X001601Y007938D01*
X001554Y007954D01*
X001509Y007974D01*
X001465Y007998D01*
X001424Y008025D01*
X001384Y008055D01*
X001347Y008089D01*
X001313Y008125D01*
X001282Y008164D01*
X001254Y008205D01*
X001230Y008248D01*
X001209Y008293D01*
X001191Y008340D01*
X001178Y008387D01*
X001168Y008436D01*
X001162Y008485D01*
X001160Y008535D01*
X000535Y008535D02*
X000537Y008603D01*
X000542Y008670D01*
X000551Y008737D01*
X000564Y008804D01*
X000581Y008869D01*
X000600Y008934D01*
X000624Y008998D01*
X000651Y009060D01*
X000681Y009121D01*
X000714Y009179D01*
X000750Y009236D01*
X000790Y009291D01*
X000832Y009344D01*
X000878Y009395D01*
X000925Y009442D01*
X000976Y009488D01*
X001029Y009530D01*
X001084Y009570D01*
X001141Y009606D01*
X001199Y009639D01*
X001260Y009669D01*
X001322Y009696D01*
X001386Y009720D01*
X001451Y009739D01*
X001516Y009756D01*
X001583Y009769D01*
X001650Y009778D01*
X001717Y009783D01*
X001785Y009785D01*
X008535Y009785D01*
X008603Y009783D01*
X008670Y009778D01*
X008737Y009769D01*
X008804Y009756D01*
X008869Y009739D01*
X008934Y009720D01*
X008998Y009696D01*
X009060Y009669D01*
X009121Y009639D01*
X009179Y009606D01*
X009236Y009570D01*
X009291Y009530D01*
X009344Y009488D01*
X009395Y009442D01*
X009442Y009395D01*
X009488Y009344D01*
X009530Y009291D01*
X009570Y009236D01*
X009606Y009179D01*
X009639Y009121D01*
X009669Y009060D01*
X009696Y008998D01*
X009720Y008934D01*
X009739Y008869D01*
X009756Y008804D01*
X009769Y008737D01*
X009778Y008670D01*
X009783Y008603D01*
X009785Y008535D01*
X009785Y001785D01*
X009783Y001717D01*
X009778Y001650D01*
X009769Y001583D01*
X009756Y001516D01*
X009739Y001451D01*
X009720Y001386D01*
X009696Y001322D01*
X009669Y001260D01*
X009639Y001199D01*
X009606Y001141D01*
X009570Y001084D01*
X009530Y001029D01*
X009488Y000976D01*
X009442Y000925D01*
X009395Y000878D01*
X009344Y000832D01*
X009291Y000790D01*
X009236Y000750D01*
X009179Y000714D01*
X009121Y000681D01*
X009060Y000651D01*
X008998Y000624D01*
X008934Y000600D01*
X008869Y000581D01*
X008804Y000564D01*
X008737Y000551D01*
X008670Y000542D01*
X008603Y000537D01*
X008535Y000535D01*
X001785Y000535D01*
X001160Y001785D02*
X001162Y001835D01*
X001168Y001884D01*
X001178Y001933D01*
X001191Y001980D01*
X001209Y002027D01*
X001230Y002072D01*
X001254Y002115D01*
X001282Y002156D01*
X001313Y002195D01*
X001347Y002231D01*
X001384Y002265D01*
X001424Y002295D01*
X001465Y002322D01*
X001509Y002346D01*
X001554Y002366D01*
X001601Y002382D01*
X001649Y002395D01*
X001698Y002404D01*
X001748Y002409D01*
X001797Y002410D01*
X001847Y002407D01*
X001896Y002400D01*
X001945Y002389D01*
X001992Y002375D01*
X002038Y002356D01*
X002083Y002334D01*
X002126Y002309D01*
X002166Y002280D01*
X002204Y002248D01*
X002240Y002214D01*
X002273Y002176D01*
X002302Y002136D01*
X002328Y002094D01*
X002351Y002050D01*
X002370Y002004D01*
X002386Y001957D01*
X002398Y001908D01*
X002406Y001859D01*
X002410Y001810D01*
X002410Y001760D01*
X002406Y001711D01*
X002398Y001662D01*
X002386Y001613D01*
X002370Y001566D01*
X002351Y001520D01*
X002328Y001476D01*
X002302Y001434D01*
X002273Y001394D01*
X002240Y001356D01*
X002204Y001322D01*
X002166Y001290D01*
X002126Y001261D01*
X002083Y001236D01*
X002038Y001214D01*
X001992Y001195D01*
X001945Y001181D01*
X001896Y001170D01*
X001847Y001163D01*
X001797Y001160D01*
X001748Y001161D01*
X001698Y001166D01*
X001649Y001175D01*
X001601Y001188D01*
X001554Y001204D01*
X001509Y001224D01*
X001465Y001248D01*
X001424Y001275D01*
X001384Y001305D01*
X001347Y001339D01*
X001313Y001375D01*
X001282Y001414D01*
X001254Y001455D01*
X001230Y001498D01*
X001209Y001543D01*
X001191Y001590D01*
X001178Y001637D01*
X001168Y001686D01*
X001162Y001735D01*
X001160Y001785D01*
X007910Y001785D02*
X007912Y001835D01*
X007918Y001884D01*
X007928Y001933D01*
X007941Y001980D01*
X007959Y002027D01*
X007980Y002072D01*
X008004Y002115D01*
X008032Y002156D01*
X008063Y002195D01*
X008097Y002231D01*
X008134Y002265D01*
X008174Y002295D01*
X008215Y002322D01*
X008259Y002346D01*
X008304Y002366D01*
X008351Y002382D01*
X008399Y002395D01*
X008448Y002404D01*
X008498Y002409D01*
X008547Y002410D01*
X008597Y002407D01*
X008646Y002400D01*
X008695Y002389D01*
X008742Y002375D01*
X008788Y002356D01*
X008833Y002334D01*
X008876Y002309D01*
X008916Y002280D01*
X008954Y002248D01*
X008990Y002214D01*
X009023Y002176D01*
X009052Y002136D01*
X009078Y002094D01*
X009101Y002050D01*
X009120Y002004D01*
X009136Y001957D01*
X009148Y001908D01*
X009156Y001859D01*
X009160Y001810D01*
X009160Y001760D01*
X009156Y001711D01*
X009148Y001662D01*
X009136Y001613D01*
X009120Y001566D01*
X009101Y001520D01*
X009078Y001476D01*
X009052Y001434D01*
X009023Y001394D01*
X008990Y001356D01*
X008954Y001322D01*
X008916Y001290D01*
X008876Y001261D01*
X008833Y001236D01*
X008788Y001214D01*
X008742Y001195D01*
X008695Y001181D01*
X008646Y001170D01*
X008597Y001163D01*
X008547Y001160D01*
X008498Y001161D01*
X008448Y001166D01*
X008399Y001175D01*
X008351Y001188D01*
X008304Y001204D01*
X008259Y001224D01*
X008215Y001248D01*
X008174Y001275D01*
X008134Y001305D01*
X008097Y001339D01*
X008063Y001375D01*
X008032Y001414D01*
X008004Y001455D01*
X007980Y001498D01*
X007959Y001543D01*
X007941Y001590D01*
X007928Y001637D01*
X007918Y001686D01*
X007912Y001735D01*
X007910Y001785D01*
X007910Y008535D02*
X007912Y008585D01*
X007918Y008634D01*
X007928Y008683D01*
X007941Y008730D01*
X007959Y008777D01*
X007980Y008822D01*
X008004Y008865D01*
X008032Y008906D01*
X008063Y008945D01*
X008097Y008981D01*
X008134Y009015D01*
X008174Y009045D01*
X008215Y009072D01*
X008259Y009096D01*
X008304Y009116D01*
X008351Y009132D01*
X008399Y009145D01*
X008448Y009154D01*
X008498Y009159D01*
X008547Y009160D01*
X008597Y009157D01*
X008646Y009150D01*
X008695Y009139D01*
X008742Y009125D01*
X008788Y009106D01*
X008833Y009084D01*
X008876Y009059D01*
X008916Y009030D01*
X008954Y008998D01*
X008990Y008964D01*
X009023Y008926D01*
X009052Y008886D01*
X009078Y008844D01*
X009101Y008800D01*
X009120Y008754D01*
X009136Y008707D01*
X009148Y008658D01*
X009156Y008609D01*
X009160Y008560D01*
X009160Y008510D01*
X009156Y008461D01*
X009148Y008412D01*
X009136Y008363D01*
X009120Y008316D01*
X009101Y008270D01*
X009078Y008226D01*
X009052Y008184D01*
X009023Y008144D01*
X008990Y008106D01*
X008954Y008072D01*
X008916Y008040D01*
X008876Y008011D01*
X008833Y007986D01*
X008788Y007964D01*
X008742Y007945D01*
X008695Y007931D01*
X008646Y007920D01*
X008597Y007913D01*
X008547Y007910D01*
X008498Y007911D01*
X008448Y007916D01*
X008399Y007925D01*
X008351Y007938D01*
X008304Y007954D01*
X008259Y007974D01*
X008215Y007998D01*
X008174Y008025D01*
X008134Y008055D01*
X008097Y008089D01*
X008063Y008125D01*
X008032Y008164D01*
X008004Y008205D01*
X007980Y008248D01*
X007959Y008293D01*
X007941Y008340D01*
X007928Y008387D01*
X007918Y008436D01*
X007912Y008485D01*
X007910Y008535D01*
D15*
X008535Y009410D02*
X008477Y009408D01*
X008418Y009402D01*
X008361Y009392D01*
X008304Y009379D01*
X008248Y009362D01*
X008193Y009341D01*
X008140Y009316D01*
X008089Y009288D01*
X008040Y009256D01*
X007993Y009222D01*
X007948Y009184D01*
X007906Y009143D01*
X007867Y009100D01*
X007831Y009054D01*
X007797Y009006D01*
X007768Y008956D01*
X007741Y008903D01*
X007718Y008849D01*
X007699Y008794D01*
X007684Y008738D01*
X007672Y008681D01*
X007664Y008623D01*
X007660Y008564D01*
X007660Y008506D01*
X007664Y008447D01*
X007672Y008389D01*
X007684Y008332D01*
X007699Y008276D01*
X007718Y008221D01*
X007741Y008167D01*
X007768Y008114D01*
X007797Y008064D01*
X007831Y008016D01*
X007867Y007970D01*
X007906Y007927D01*
X007948Y007886D01*
X007993Y007848D01*
X008040Y007814D01*
X008089Y007782D01*
X008140Y007754D01*
X008193Y007729D01*
X008248Y007708D01*
X008304Y007691D01*
X008361Y007678D01*
X008418Y007668D01*
X008477Y007662D01*
X008535Y007660D01*
X008593Y007662D01*
X008652Y007668D01*
X008709Y007678D01*
X008766Y007691D01*
X008822Y007708D01*
X008877Y007729D01*
X008930Y007754D01*
X008981Y007782D01*
X009030Y007814D01*
X009077Y007848D01*
X009122Y007886D01*
X009164Y007927D01*
X009203Y007970D01*
X009239Y008016D01*
X009273Y008064D01*
X009302Y008114D01*
X009329Y008167D01*
X009352Y008221D01*
X009371Y008276D01*
X009386Y008332D01*
X009398Y008389D01*
X009406Y008447D01*
X009410Y008506D01*
X009410Y008564D01*
X009406Y008623D01*
X009398Y008681D01*
X009386Y008738D01*
X009371Y008794D01*
X009352Y008849D01*
X009329Y008903D01*
X009302Y008956D01*
X009273Y009006D01*
X009239Y009054D01*
X009203Y009100D01*
X009164Y009143D01*
X009122Y009184D01*
X009077Y009222D01*
X009030Y009256D01*
X008981Y009288D01*
X008930Y009316D01*
X008877Y009341D01*
X008822Y009362D01*
X008766Y009379D01*
X008709Y009392D01*
X008652Y009402D01*
X008593Y009408D01*
X008535Y009410D01*
X001785Y009410D02*
X001727Y009408D01*
X001668Y009402D01*
X001611Y009392D01*
X001554Y009379D01*
X001498Y009362D01*
X001443Y009341D01*
X001390Y009316D01*
X001339Y009288D01*
X001290Y009256D01*
X001243Y009222D01*
X001198Y009184D01*
X001156Y009143D01*
X001117Y009100D01*
X001081Y009054D01*
X001047Y009006D01*
X001018Y008956D01*
X000991Y008903D01*
X000968Y008849D01*
X000949Y008794D01*
X000934Y008738D01*
X000922Y008681D01*
X000914Y008623D01*
X000910Y008564D01*
X000910Y008506D01*
X000914Y008447D01*
X000922Y008389D01*
X000934Y008332D01*
X000949Y008276D01*
X000968Y008221D01*
X000991Y008167D01*
X001018Y008114D01*
X001047Y008064D01*
X001081Y008016D01*
X001117Y007970D01*
X001156Y007927D01*
X001198Y007886D01*
X001243Y007848D01*
X001290Y007814D01*
X001339Y007782D01*
X001390Y007754D01*
X001443Y007729D01*
X001498Y007708D01*
X001554Y007691D01*
X001611Y007678D01*
X001668Y007668D01*
X001727Y007662D01*
X001785Y007660D01*
X001843Y007662D01*
X001902Y007668D01*
X001959Y007678D01*
X002016Y007691D01*
X002072Y007708D01*
X002127Y007729D01*
X002180Y007754D01*
X002231Y007782D01*
X002280Y007814D01*
X002327Y007848D01*
X002372Y007886D01*
X002414Y007927D01*
X002453Y007970D01*
X002489Y008016D01*
X002523Y008064D01*
X002552Y008114D01*
X002579Y008167D01*
X002602Y008221D01*
X002621Y008276D01*
X002636Y008332D01*
X002648Y008389D01*
X002656Y008447D01*
X002660Y008506D01*
X002660Y008564D01*
X002656Y008623D01*
X002648Y008681D01*
X002636Y008738D01*
X002621Y008794D01*
X002602Y008849D01*
X002579Y008903D01*
X002552Y008956D01*
X002523Y009006D01*
X002489Y009054D01*
X002453Y009100D01*
X002414Y009143D01*
X002372Y009184D01*
X002327Y009222D01*
X002280Y009256D01*
X002231Y009288D01*
X002180Y009316D01*
X002127Y009341D01*
X002072Y009362D01*
X002016Y009379D01*
X001959Y009392D01*
X001902Y009402D01*
X001843Y009408D01*
X001785Y009410D01*
X001785Y002660D02*
X001727Y002658D01*
X001668Y002652D01*
X001611Y002642D01*
X001554Y002629D01*
X001498Y002612D01*
X001443Y002591D01*
X001390Y002566D01*
X001339Y002538D01*
X001290Y002506D01*
X001243Y002472D01*
X001198Y002434D01*
X001156Y002393D01*
X001117Y002350D01*
X001081Y002304D01*
X001047Y002256D01*
X001018Y002206D01*
X000991Y002153D01*
X000968Y002099D01*
X000949Y002044D01*
X000934Y001988D01*
X000922Y001931D01*
X000914Y001873D01*
X000910Y001814D01*
X000910Y001756D01*
X000914Y001697D01*
X000922Y001639D01*
X000934Y001582D01*
X000949Y001526D01*
X000968Y001471D01*
X000991Y001417D01*
X001018Y001364D01*
X001047Y001314D01*
X001081Y001266D01*
X001117Y001220D01*
X001156Y001177D01*
X001198Y001136D01*
X001243Y001098D01*
X001290Y001064D01*
X001339Y001032D01*
X001390Y001004D01*
X001443Y000979D01*
X001498Y000958D01*
X001554Y000941D01*
X001611Y000928D01*
X001668Y000918D01*
X001727Y000912D01*
X001785Y000910D01*
X001843Y000912D01*
X001902Y000918D01*
X001959Y000928D01*
X002016Y000941D01*
X002072Y000958D01*
X002127Y000979D01*
X002180Y001004D01*
X002231Y001032D01*
X002280Y001064D01*
X002327Y001098D01*
X002372Y001136D01*
X002414Y001177D01*
X002453Y001220D01*
X002489Y001266D01*
X002523Y001314D01*
X002552Y001364D01*
X002579Y001417D01*
X002602Y001471D01*
X002621Y001526D01*
X002636Y001582D01*
X002648Y001639D01*
X002656Y001697D01*
X002660Y001756D01*
X002660Y001814D01*
X002656Y001873D01*
X002648Y001931D01*
X002636Y001988D01*
X002621Y002044D01*
X002602Y002099D01*
X002579Y002153D01*
X002552Y002206D01*
X002523Y002256D01*
X002489Y002304D01*
X002453Y002350D01*
X002414Y002393D01*
X002372Y002434D01*
X002327Y002472D01*
X002280Y002506D01*
X002231Y002538D01*
X002180Y002566D01*
X002127Y002591D01*
X002072Y002612D01*
X002016Y002629D01*
X001959Y002642D01*
X001902Y002652D01*
X001843Y002658D01*
X001785Y002660D01*
X008535Y002660D02*
X008477Y002658D01*
X008418Y002652D01*
X008361Y002642D01*
X008304Y002629D01*
X008248Y002612D01*
X008193Y002591D01*
X008140Y002566D01*
X008089Y002538D01*
X008040Y002506D01*
X007993Y002472D01*
X007948Y002434D01*
X007906Y002393D01*
X007867Y002350D01*
X007831Y002304D01*
X007797Y002256D01*
X007768Y002206D01*
X007741Y002153D01*
X007718Y002099D01*
X007699Y002044D01*
X007684Y001988D01*
X007672Y001931D01*
X007664Y001873D01*
X007660Y001814D01*
X007660Y001756D01*
X007664Y001697D01*
X007672Y001639D01*
X007684Y001582D01*
X007699Y001526D01*
X007718Y001471D01*
X007741Y001417D01*
X007768Y001364D01*
X007797Y001314D01*
X007831Y001266D01*
X007867Y001220D01*
X007906Y001177D01*
X007948Y001136D01*
X007993Y001098D01*
X008040Y001064D01*
X008089Y001032D01*
X008140Y001004D01*
X008193Y000979D01*
X008248Y000958D01*
X008304Y000941D01*
X008361Y000928D01*
X008418Y000918D01*
X008477Y000912D01*
X008535Y000910D01*
X008593Y000912D01*
X008652Y000918D01*
X008709Y000928D01*
X008766Y000941D01*
X008822Y000958D01*
X008877Y000979D01*
X008930Y001004D01*
X008981Y001032D01*
X009030Y001064D01*
X009077Y001098D01*
X009122Y001136D01*
X009164Y001177D01*
X009203Y001220D01*
X009239Y001266D01*
X009273Y001314D01*
X009302Y001364D01*
X009329Y001417D01*
X009352Y001471D01*
X009371Y001526D01*
X009386Y001582D01*
X009398Y001639D01*
X009406Y001697D01*
X009410Y001756D01*
X009410Y001814D01*
X009406Y001873D01*
X009398Y001931D01*
X009386Y001988D01*
X009371Y002044D01*
X009352Y002099D01*
X009329Y002153D01*
X009302Y002206D01*
X009273Y002256D01*
X009239Y002304D01*
X009203Y002350D01*
X009164Y002393D01*
X009122Y002434D01*
X009077Y002472D01*
X009030Y002506D01*
X008981Y002538D01*
X008930Y002566D01*
X008877Y002591D01*
X008822Y002612D01*
X008766Y002629D01*
X008709Y002642D01*
X008652Y002652D01*
X008593Y002658D01*
X008535Y002660D01*
D16*
X005947Y004373D02*
X005947Y004609D01*
X005947Y004373D02*
X005711Y004373D01*
X004609Y004373D02*
X004373Y004609D01*
X004373Y005711D02*
X004373Y005947D01*
X004609Y005947D01*
X005711Y005947D02*
X005947Y005947D01*
X005947Y005711D01*
M02*
