%
M48
M72
T01C0.0236
T02C0.0400
T03C0.1250
%
T01
X1260Y3060
X4160Y2760
X5188Y5188
X6610Y5810
X7860Y7310
X3760Y6260
X7760Y2860
T02
X8560Y3660
X8560Y4660
X8560Y5660
X8560Y6660
X6660Y8560
X5660Y8560
X4660Y8560
X3660Y8560
X3660Y1760
X4660Y1760
X5660Y1760
X6660Y1760
T03
X1785Y1785
X1785Y8535
X8535Y8535
X8535Y1785
M30
