G75*
G70*
%OFA0B0*%
%FSLAX24Y24*%
%IPPOS*%
%LPD*%
%AMOC8*
5,1,8,0,0,1.08239X$1,22.5*
%
%ADD10C,0.0060*%
%ADD11C,0.0000*%
%ADD12C,0.0080*%
%ADD13C,0.0050*%
%ADD14R,0.0005X0.0110*%
%ADD15R,0.0005X0.0210*%
%ADD16R,0.0005X0.0280*%
%ADD17R,0.0005X0.0325*%
%ADD18R,0.0005X0.0365*%
%ADD19R,0.0005X0.0410*%
%ADD20R,0.0005X0.0440*%
%ADD21R,0.0005X0.0470*%
%ADD22R,0.0005X0.0505*%
%ADD23R,0.0005X0.0530*%
%ADD24R,0.0005X0.0555*%
%ADD25R,0.0005X0.0580*%
%ADD26R,0.0005X0.0600*%
%ADD27R,0.0005X0.0625*%
%ADD28R,0.0005X0.0645*%
%ADD29R,0.0005X0.0665*%
%ADD30R,0.0005X0.0685*%
%ADD31R,0.0005X0.0705*%
%ADD32R,0.0005X0.0715*%
%ADD33R,0.0005X0.0735*%
%ADD34R,0.0005X0.0755*%
%ADD35R,0.0005X0.0090*%
%ADD36R,0.0005X0.0770*%
%ADD37R,0.0005X0.0190*%
%ADD38R,0.0005X0.0355*%
%ADD39R,0.0005X0.0360*%
%ADD40R,0.0005X0.0260*%
%ADD41R,0.0005X0.0315*%
%ADD42R,0.0005X0.0320*%
%ADD43R,0.0005X0.0295*%
%ADD44R,0.0005X0.0275*%
%ADD45R,0.0005X0.0400*%
%ADD46R,0.0005X0.0265*%
%ADD47R,0.0005X0.0435*%
%ADD48R,0.0005X0.0255*%
%ADD49R,0.0005X0.0465*%
%ADD50R,0.0005X0.0245*%
%ADD51R,0.0005X0.0495*%
%ADD52R,0.0005X0.0235*%
%ADD53R,0.0005X0.0525*%
%ADD54R,0.0005X0.0230*%
%ADD55R,0.0005X0.0240*%
%ADD56R,0.0005X0.0545*%
%ADD57R,0.0005X0.0820*%
%ADD58R,0.0005X0.0220*%
%ADD59R,0.0005X0.0025*%
%ADD60R,0.0005X0.0795*%
%ADD61R,0.0005X0.0215*%
%ADD62R,0.0005X0.0035*%
%ADD63R,0.0005X0.0040*%
%ADD64R,0.0005X0.0800*%
%ADD65R,0.0005X0.0205*%
%ADD66R,0.0005X0.0050*%
%ADD67R,0.0005X0.0805*%
%ADD68R,0.0005X0.0165*%
%ADD69R,0.0005X0.0055*%
%ADD70R,0.0005X0.0200*%
%ADD71R,0.0005X0.0060*%
%ADD72R,0.0005X0.0300*%
%ADD73R,0.0005X0.0195*%
%ADD74R,0.0005X0.0065*%
%ADD75R,0.0005X0.0345*%
%ADD76R,0.0005X0.0070*%
%ADD77R,0.0005X0.0385*%
%ADD78R,0.0005X0.0080*%
%ADD79R,0.0005X0.0425*%
%ADD80R,0.0005X0.0185*%
%ADD81R,0.0005X0.0085*%
%ADD82R,0.0005X0.0635*%
%ADD83R,0.0005X0.0810*%
%ADD84R,0.0005X0.0095*%
%ADD85R,0.0005X0.0335*%
%ADD86R,0.0005X0.0655*%
%ADD87R,0.0005X0.0105*%
%ADD88R,0.0005X0.0290*%
%ADD89R,0.0005X0.0660*%
%ADD90R,0.0005X0.0115*%
%ADD91R,0.0005X0.0285*%
%ADD92R,0.0005X0.0120*%
%ADD93R,0.0005X0.0270*%
%ADD94R,0.0005X0.0675*%
%ADD95R,0.0005X0.0130*%
%ADD96R,0.0005X0.0680*%
%ADD97R,0.0005X0.0135*%
%ADD98R,0.0005X0.0250*%
%ADD99R,0.0005X0.0140*%
%ADD100R,0.0005X0.0180*%
%ADD101R,0.0005X0.0695*%
%ADD102R,0.0005X0.0150*%
%ADD103R,0.0005X0.0160*%
%ADD104R,0.0005X0.0155*%
%ADD105R,0.0005X0.0145*%
%ADD106R,0.0005X0.0700*%
%ADD107R,0.0005X0.0225*%
%ADD108R,0.0005X0.0170*%
%ADD109R,0.0005X0.0100*%
%ADD110R,0.0005X0.0075*%
%ADD111R,0.0005X0.0720*%
%ADD112R,0.0005X0.0725*%
%ADD113R,0.0005X0.0340*%
%ADD114R,0.0005X0.0305*%
%ADD115R,0.0005X0.0175*%
%ADD116R,0.0005X0.0005*%
%ADD117R,0.0005X0.0010*%
%ADD118R,0.0005X0.0015*%
%ADD119R,0.0005X0.0020*%
%ADD120R,0.0005X0.0030*%
%ADD121R,0.0005X0.0125*%
%ADD122R,0.0005X0.0045*%
%ADD123R,0.0005X0.0370*%
%ADD124R,0.0005X0.0375*%
%ADD125R,0.0005X0.0350*%
%ADD126R,0.0005X0.0330*%
%ADD127R,0.0005X0.0485*%
%ADD128R,0.0005X0.0480*%
%ADD129R,0.0005X0.0460*%
%ADD130R,0.0005X0.0445*%
%ADD131R,0.0005X0.0310*%
%ADD132R,0.0005X0.0380*%
%ADD133R,0.0005X0.0415*%
%ADD134R,0.0005X0.0450*%
%ADD135R,0.0005X0.0490*%
%ADD136R,0.0005X0.0965*%
%ADD137R,0.0005X0.0975*%
%ADD138R,0.0005X0.0980*%
%ADD139R,0.0005X0.0990*%
%ADD140R,0.0005X0.1005*%
%ADD141R,0.0005X0.0615*%
%ADD142R,0.0005X0.0640*%
%ADD143R,0.0005X0.0605*%
%ADD144R,0.0005X0.0620*%
%ADD145R,0.0005X0.0590*%
%ADD146R,0.0005X0.0570*%
%ADD147R,0.0005X0.0540*%
%ADD148R,0.0005X0.0515*%
%ADD149R,0.0005X0.0565*%
%ADD150R,0.0005X0.0535*%
%ADD151R,0.0005X0.0395*%
%ADD152R,0.0005X0.0520*%
%ADD153R,0.0005X0.0500*%
%ADD154R,0.0005X0.0430*%
%ADD155C,0.0059*%
D10*
X003046Y000872D02*
X003103Y000815D01*
X003217Y000815D01*
X003273Y000872D01*
X003046Y001099D01*
X003046Y000872D01*
X003046Y001099D02*
X003103Y001155D01*
X003217Y001155D01*
X003273Y001099D01*
X003273Y000872D01*
X003401Y000872D02*
X003401Y000815D01*
X003457Y000815D01*
X003457Y000872D01*
X003401Y000872D01*
X003599Y000872D02*
X003656Y000815D01*
X003769Y000815D01*
X003826Y000872D01*
X003712Y000985D02*
X003656Y000985D01*
X003599Y000928D01*
X003599Y000872D01*
X003656Y000985D02*
X003599Y001042D01*
X003599Y001099D01*
X003656Y001155D01*
X003769Y001155D01*
X003826Y001099D01*
X004336Y001042D02*
X004336Y000815D01*
X004336Y000985D02*
X004562Y000985D01*
X004562Y001042D02*
X004449Y001155D01*
X004336Y001042D01*
X004562Y001042D02*
X004562Y000815D01*
X004704Y000872D02*
X004761Y000815D01*
X004874Y000815D01*
X004931Y000872D01*
X004874Y000985D02*
X004761Y000985D01*
X004704Y000928D01*
X004704Y000872D01*
X004874Y000985D02*
X004931Y001042D01*
X004931Y001099D01*
X004874Y001155D01*
X004761Y001155D01*
X004704Y001099D01*
X005072Y000985D02*
X005299Y000985D01*
X005441Y001099D02*
X005441Y001155D01*
X005441Y001099D02*
X005554Y000985D01*
X005554Y000815D01*
X005554Y000985D02*
X005667Y001099D01*
X005667Y001155D01*
X005809Y001099D02*
X005809Y001042D01*
X005866Y000985D01*
X006036Y000985D01*
X006036Y000815D02*
X005866Y000815D01*
X005809Y000872D01*
X005809Y000928D01*
X005866Y000985D01*
X005809Y001099D02*
X005866Y001155D01*
X006036Y001155D01*
X006036Y000815D01*
X006545Y000872D02*
X006602Y000815D01*
X006716Y000815D01*
X006772Y000872D01*
X006772Y001099D01*
X006716Y001155D01*
X006602Y001155D01*
X006545Y001099D01*
X006914Y001099D02*
X006970Y001155D01*
X007084Y001155D01*
X007141Y001099D01*
X007141Y000872D01*
X007084Y000815D01*
X006970Y000815D01*
X006914Y000872D01*
X006660Y003060D02*
X007260Y003060D01*
X007277Y003062D01*
X007294Y003066D01*
X007310Y003073D01*
X007324Y003083D01*
X007337Y003096D01*
X007347Y003110D01*
X007354Y003126D01*
X007358Y003143D01*
X007360Y003160D01*
X007360Y004160D01*
X007358Y004177D01*
X007354Y004194D01*
X007347Y004210D01*
X007337Y004224D01*
X007324Y004237D01*
X007310Y004247D01*
X007294Y004254D01*
X007277Y004258D01*
X007260Y004260D01*
X006660Y004260D01*
X006643Y004258D01*
X006626Y004254D01*
X006610Y004247D01*
X006596Y004237D01*
X006583Y004224D01*
X006573Y004210D01*
X006566Y004194D01*
X006562Y004177D01*
X006560Y004160D01*
X006560Y003160D01*
X006562Y003143D01*
X006566Y003126D01*
X006573Y003110D01*
X006583Y003096D01*
X006596Y003083D01*
X006610Y003073D01*
X006626Y003066D01*
X006643Y003062D01*
X006660Y003060D01*
X006280Y003390D02*
X006280Y003503D01*
X006280Y003447D02*
X005940Y003447D01*
X005940Y003503D02*
X005940Y003390D01*
X005780Y003348D02*
X005667Y003462D01*
X005440Y003462D01*
X005497Y003603D02*
X005610Y003603D01*
X005667Y003660D01*
X005667Y003830D01*
X005610Y003972D02*
X005497Y003972D01*
X005440Y004028D01*
X005440Y004199D01*
X005780Y004199D01*
X005667Y004199D02*
X005667Y004028D01*
X005610Y003972D01*
X005440Y003830D02*
X005440Y003660D01*
X005497Y003603D01*
X005610Y003462D02*
X005610Y003235D01*
X005667Y003235D02*
X005780Y003348D01*
X005667Y003235D02*
X005440Y003235D01*
X005440Y003830D02*
X005780Y003830D01*
X005940Y003897D02*
X005940Y004010D01*
X005997Y004067D01*
X005940Y003897D02*
X005997Y003840D01*
X006224Y003840D01*
X006280Y003897D01*
X006280Y004010D01*
X006224Y004067D01*
X006280Y004590D02*
X006280Y004703D01*
X006280Y004647D02*
X005940Y004647D01*
X005940Y004703D02*
X005940Y004590D01*
X005780Y004565D02*
X005780Y004678D01*
X005724Y004735D01*
X005610Y004678D02*
X005610Y004565D01*
X005667Y004508D01*
X005724Y004508D01*
X005780Y004565D01*
X005610Y004678D02*
X005553Y004735D01*
X005497Y004735D01*
X005440Y004678D01*
X005440Y004565D01*
X005497Y004508D01*
X005497Y004876D02*
X005440Y004933D01*
X005440Y005046D01*
X005553Y005103D02*
X005553Y004876D01*
X005497Y004876D02*
X005610Y004876D01*
X005667Y004933D01*
X005667Y005046D01*
X005610Y005103D01*
X005553Y005103D01*
X005440Y005244D02*
X005440Y005358D01*
X005440Y005301D02*
X005780Y005301D01*
X005780Y005244D01*
X005940Y005210D02*
X005940Y005097D01*
X005997Y005040D01*
X006224Y005040D01*
X006280Y005097D01*
X006280Y005210D01*
X006224Y005267D01*
X005997Y005267D02*
X005940Y005210D01*
X007490Y004110D02*
X007490Y003997D01*
X007547Y003940D01*
X007774Y004167D01*
X007547Y004167D01*
X007490Y004110D01*
X007547Y003940D02*
X007774Y003940D01*
X007830Y003997D01*
X007830Y004110D01*
X007774Y004167D01*
X007540Y003417D02*
X007540Y003190D01*
X007540Y003303D02*
X007880Y003303D01*
X007767Y003190D01*
X006749Y006935D02*
X006692Y006935D01*
X006635Y006992D01*
X006635Y007105D01*
X006578Y007162D01*
X006522Y007162D01*
X006465Y007105D01*
X006465Y006992D01*
X006522Y006935D01*
X006749Y006935D02*
X006805Y006992D01*
X006805Y007105D01*
X006749Y007162D01*
X006805Y007303D02*
X006805Y007474D01*
X006749Y007530D01*
X006522Y007530D01*
X006465Y007474D01*
X006465Y007303D01*
X006805Y007303D01*
X006692Y007672D02*
X006465Y007672D01*
X006635Y007672D02*
X006635Y007899D01*
X006692Y007899D02*
X006465Y007899D01*
X006692Y007899D02*
X006805Y007785D01*
X006692Y007672D01*
X005805Y007672D02*
X005465Y007672D01*
X005465Y007899D01*
X005522Y007530D02*
X005465Y007474D01*
X005465Y007360D01*
X005522Y007303D01*
X005749Y007303D01*
X005805Y007360D01*
X005805Y007474D01*
X005749Y007530D01*
X005749Y007162D02*
X005805Y007105D01*
X005805Y006992D01*
X005749Y006935D01*
X005692Y006935D01*
X005635Y006992D01*
X005635Y007105D01*
X005578Y007162D01*
X005522Y007162D01*
X005465Y007105D01*
X005465Y006992D01*
X005522Y006935D01*
X004805Y006935D02*
X004578Y006935D01*
X004465Y007048D01*
X004578Y007162D01*
X004805Y007162D01*
X004749Y007303D02*
X004522Y007303D01*
X004465Y007360D01*
X004465Y007474D01*
X004522Y007530D01*
X004522Y007672D02*
X004465Y007728D01*
X004465Y007842D01*
X004522Y007899D01*
X004522Y007672D02*
X004749Y007672D01*
X004805Y007728D01*
X004805Y007842D01*
X004749Y007899D01*
X004749Y007530D02*
X004805Y007474D01*
X004805Y007360D01*
X004749Y007303D01*
X003805Y007303D02*
X003465Y007530D01*
X003805Y007530D01*
X003805Y007672D02*
X003805Y007842D01*
X003749Y007899D01*
X003522Y007899D01*
X003465Y007842D01*
X003465Y007672D01*
X003805Y007672D01*
X003805Y007303D02*
X003465Y007303D01*
X003522Y007162D02*
X003635Y007162D01*
X003635Y007048D01*
X003522Y006935D02*
X003465Y006992D01*
X003465Y007105D01*
X003522Y007162D01*
X003749Y007162D02*
X003805Y007105D01*
X003805Y006992D01*
X003749Y006935D01*
X003522Y006935D01*
D11*
X000536Y001785D02*
X000534Y001719D01*
X000536Y001653D01*
X000542Y001587D01*
X000551Y001521D01*
X000564Y001456D01*
X000581Y001391D01*
X000601Y001328D01*
X000625Y001266D01*
X000652Y001206D01*
X000683Y001147D01*
X000717Y001089D01*
X000754Y001034D01*
X000794Y000981D01*
X000837Y000931D01*
X000882Y000882D01*
X000931Y000837D01*
X000981Y000794D01*
X001034Y000754D01*
X001089Y000717D01*
X001147Y000683D01*
X001206Y000652D01*
X001266Y000625D01*
X001328Y000601D01*
X001391Y000581D01*
X001456Y000564D01*
X001521Y000551D01*
X001587Y000542D01*
X001653Y000536D01*
X001719Y000534D01*
X001785Y000536D01*
X001785Y000535D02*
X008535Y000535D01*
X008603Y000537D01*
X008670Y000542D01*
X008737Y000551D01*
X008804Y000564D01*
X008869Y000581D01*
X008934Y000600D01*
X008998Y000624D01*
X009060Y000651D01*
X009121Y000681D01*
X009179Y000714D01*
X009236Y000750D01*
X009291Y000790D01*
X009344Y000832D01*
X009395Y000878D01*
X009442Y000925D01*
X009488Y000976D01*
X009530Y001029D01*
X009570Y001084D01*
X009606Y001141D01*
X009639Y001199D01*
X009669Y001260D01*
X009696Y001322D01*
X009720Y001386D01*
X009739Y001451D01*
X009756Y001516D01*
X009769Y001583D01*
X009778Y001650D01*
X009783Y001717D01*
X009785Y001785D01*
X009785Y008535D01*
X009783Y008603D01*
X009778Y008670D01*
X009769Y008737D01*
X009756Y008804D01*
X009739Y008869D01*
X009720Y008934D01*
X009696Y008998D01*
X009669Y009060D01*
X009639Y009121D01*
X009606Y009179D01*
X009570Y009236D01*
X009530Y009291D01*
X009488Y009344D01*
X009442Y009395D01*
X009395Y009442D01*
X009344Y009488D01*
X009291Y009530D01*
X009236Y009570D01*
X009179Y009606D01*
X009121Y009639D01*
X009060Y009669D01*
X008998Y009696D01*
X008934Y009720D01*
X008869Y009739D01*
X008804Y009756D01*
X008737Y009769D01*
X008670Y009778D01*
X008603Y009783D01*
X008535Y009785D01*
X001785Y009785D01*
X001160Y008535D02*
X001162Y008585D01*
X001168Y008634D01*
X001178Y008683D01*
X001191Y008730D01*
X001209Y008777D01*
X001230Y008822D01*
X001254Y008865D01*
X001282Y008906D01*
X001313Y008945D01*
X001347Y008981D01*
X001384Y009015D01*
X001424Y009045D01*
X001465Y009072D01*
X001509Y009096D01*
X001554Y009116D01*
X001601Y009132D01*
X001649Y009145D01*
X001698Y009154D01*
X001748Y009159D01*
X001797Y009160D01*
X001847Y009157D01*
X001896Y009150D01*
X001945Y009139D01*
X001992Y009125D01*
X002038Y009106D01*
X002083Y009084D01*
X002126Y009059D01*
X002166Y009030D01*
X002204Y008998D01*
X002240Y008964D01*
X002273Y008926D01*
X002302Y008886D01*
X002328Y008844D01*
X002351Y008800D01*
X002370Y008754D01*
X002386Y008707D01*
X002398Y008658D01*
X002406Y008609D01*
X002410Y008560D01*
X002410Y008510D01*
X002406Y008461D01*
X002398Y008412D01*
X002386Y008363D01*
X002370Y008316D01*
X002351Y008270D01*
X002328Y008226D01*
X002302Y008184D01*
X002273Y008144D01*
X002240Y008106D01*
X002204Y008072D01*
X002166Y008040D01*
X002126Y008011D01*
X002083Y007986D01*
X002038Y007964D01*
X001992Y007945D01*
X001945Y007931D01*
X001896Y007920D01*
X001847Y007913D01*
X001797Y007910D01*
X001748Y007911D01*
X001698Y007916D01*
X001649Y007925D01*
X001601Y007938D01*
X001554Y007954D01*
X001509Y007974D01*
X001465Y007998D01*
X001424Y008025D01*
X001384Y008055D01*
X001347Y008089D01*
X001313Y008125D01*
X001282Y008164D01*
X001254Y008205D01*
X001230Y008248D01*
X001209Y008293D01*
X001191Y008340D01*
X001178Y008387D01*
X001168Y008436D01*
X001162Y008485D01*
X001160Y008535D01*
X000535Y008535D02*
X000535Y001785D01*
X001160Y001785D02*
X001162Y001835D01*
X001168Y001884D01*
X001178Y001933D01*
X001191Y001980D01*
X001209Y002027D01*
X001230Y002072D01*
X001254Y002115D01*
X001282Y002156D01*
X001313Y002195D01*
X001347Y002231D01*
X001384Y002265D01*
X001424Y002295D01*
X001465Y002322D01*
X001509Y002346D01*
X001554Y002366D01*
X001601Y002382D01*
X001649Y002395D01*
X001698Y002404D01*
X001748Y002409D01*
X001797Y002410D01*
X001847Y002407D01*
X001896Y002400D01*
X001945Y002389D01*
X001992Y002375D01*
X002038Y002356D01*
X002083Y002334D01*
X002126Y002309D01*
X002166Y002280D01*
X002204Y002248D01*
X002240Y002214D01*
X002273Y002176D01*
X002302Y002136D01*
X002328Y002094D01*
X002351Y002050D01*
X002370Y002004D01*
X002386Y001957D01*
X002398Y001908D01*
X002406Y001859D01*
X002410Y001810D01*
X002410Y001760D01*
X002406Y001711D01*
X002398Y001662D01*
X002386Y001613D01*
X002370Y001566D01*
X002351Y001520D01*
X002328Y001476D01*
X002302Y001434D01*
X002273Y001394D01*
X002240Y001356D01*
X002204Y001322D01*
X002166Y001290D01*
X002126Y001261D01*
X002083Y001236D01*
X002038Y001214D01*
X001992Y001195D01*
X001945Y001181D01*
X001896Y001170D01*
X001847Y001163D01*
X001797Y001160D01*
X001748Y001161D01*
X001698Y001166D01*
X001649Y001175D01*
X001601Y001188D01*
X001554Y001204D01*
X001509Y001224D01*
X001465Y001248D01*
X001424Y001275D01*
X001384Y001305D01*
X001347Y001339D01*
X001313Y001375D01*
X001282Y001414D01*
X001254Y001455D01*
X001230Y001498D01*
X001209Y001543D01*
X001191Y001590D01*
X001178Y001637D01*
X001168Y001686D01*
X001162Y001735D01*
X001160Y001785D01*
X000535Y008535D02*
X000537Y008603D01*
X000542Y008670D01*
X000551Y008737D01*
X000564Y008804D01*
X000581Y008869D01*
X000600Y008934D01*
X000624Y008998D01*
X000651Y009060D01*
X000681Y009121D01*
X000714Y009179D01*
X000750Y009236D01*
X000790Y009291D01*
X000832Y009344D01*
X000878Y009395D01*
X000925Y009442D01*
X000976Y009488D01*
X001029Y009530D01*
X001084Y009570D01*
X001141Y009606D01*
X001199Y009639D01*
X001260Y009669D01*
X001322Y009696D01*
X001386Y009720D01*
X001451Y009739D01*
X001516Y009756D01*
X001583Y009769D01*
X001650Y009778D01*
X001717Y009783D01*
X001785Y009785D01*
X007910Y008535D02*
X007912Y008585D01*
X007918Y008634D01*
X007928Y008683D01*
X007941Y008730D01*
X007959Y008777D01*
X007980Y008822D01*
X008004Y008865D01*
X008032Y008906D01*
X008063Y008945D01*
X008097Y008981D01*
X008134Y009015D01*
X008174Y009045D01*
X008215Y009072D01*
X008259Y009096D01*
X008304Y009116D01*
X008351Y009132D01*
X008399Y009145D01*
X008448Y009154D01*
X008498Y009159D01*
X008547Y009160D01*
X008597Y009157D01*
X008646Y009150D01*
X008695Y009139D01*
X008742Y009125D01*
X008788Y009106D01*
X008833Y009084D01*
X008876Y009059D01*
X008916Y009030D01*
X008954Y008998D01*
X008990Y008964D01*
X009023Y008926D01*
X009052Y008886D01*
X009078Y008844D01*
X009101Y008800D01*
X009120Y008754D01*
X009136Y008707D01*
X009148Y008658D01*
X009156Y008609D01*
X009160Y008560D01*
X009160Y008510D01*
X009156Y008461D01*
X009148Y008412D01*
X009136Y008363D01*
X009120Y008316D01*
X009101Y008270D01*
X009078Y008226D01*
X009052Y008184D01*
X009023Y008144D01*
X008990Y008106D01*
X008954Y008072D01*
X008916Y008040D01*
X008876Y008011D01*
X008833Y007986D01*
X008788Y007964D01*
X008742Y007945D01*
X008695Y007931D01*
X008646Y007920D01*
X008597Y007913D01*
X008547Y007910D01*
X008498Y007911D01*
X008448Y007916D01*
X008399Y007925D01*
X008351Y007938D01*
X008304Y007954D01*
X008259Y007974D01*
X008215Y007998D01*
X008174Y008025D01*
X008134Y008055D01*
X008097Y008089D01*
X008063Y008125D01*
X008032Y008164D01*
X008004Y008205D01*
X007980Y008248D01*
X007959Y008293D01*
X007941Y008340D01*
X007928Y008387D01*
X007918Y008436D01*
X007912Y008485D01*
X007910Y008535D01*
X007910Y001785D02*
X007912Y001835D01*
X007918Y001884D01*
X007928Y001933D01*
X007941Y001980D01*
X007959Y002027D01*
X007980Y002072D01*
X008004Y002115D01*
X008032Y002156D01*
X008063Y002195D01*
X008097Y002231D01*
X008134Y002265D01*
X008174Y002295D01*
X008215Y002322D01*
X008259Y002346D01*
X008304Y002366D01*
X008351Y002382D01*
X008399Y002395D01*
X008448Y002404D01*
X008498Y002409D01*
X008547Y002410D01*
X008597Y002407D01*
X008646Y002400D01*
X008695Y002389D01*
X008742Y002375D01*
X008788Y002356D01*
X008833Y002334D01*
X008876Y002309D01*
X008916Y002280D01*
X008954Y002248D01*
X008990Y002214D01*
X009023Y002176D01*
X009052Y002136D01*
X009078Y002094D01*
X009101Y002050D01*
X009120Y002004D01*
X009136Y001957D01*
X009148Y001908D01*
X009156Y001859D01*
X009160Y001810D01*
X009160Y001760D01*
X009156Y001711D01*
X009148Y001662D01*
X009136Y001613D01*
X009120Y001566D01*
X009101Y001520D01*
X009078Y001476D01*
X009052Y001434D01*
X009023Y001394D01*
X008990Y001356D01*
X008954Y001322D01*
X008916Y001290D01*
X008876Y001261D01*
X008833Y001236D01*
X008788Y001214D01*
X008742Y001195D01*
X008695Y001181D01*
X008646Y001170D01*
X008597Y001163D01*
X008547Y001160D01*
X008498Y001161D01*
X008448Y001166D01*
X008399Y001175D01*
X008351Y001188D01*
X008304Y001204D01*
X008259Y001224D01*
X008215Y001248D01*
X008174Y001275D01*
X008134Y001305D01*
X008097Y001339D01*
X008063Y001375D01*
X008032Y001414D01*
X008004Y001455D01*
X007980Y001498D01*
X007959Y001543D01*
X007941Y001590D01*
X007928Y001637D01*
X007918Y001686D01*
X007912Y001735D01*
X007910Y001785D01*
D12*
X007354Y004645D02*
X007354Y005275D01*
X007353Y005275D02*
X007348Y005291D01*
X007340Y005307D01*
X007330Y005321D01*
X007318Y005333D01*
X007303Y005343D01*
X007287Y005350D01*
X007270Y005354D01*
X007253Y005355D01*
X007235Y005353D01*
X006685Y005353D02*
X006665Y005355D01*
X006646Y005353D01*
X006627Y005347D01*
X006610Y005338D01*
X006594Y005326D01*
X006582Y005311D01*
X006573Y005293D01*
X006567Y005275D01*
X006566Y005275D02*
X006566Y004645D01*
X006567Y004645D02*
X006573Y004627D01*
X006582Y004609D01*
X006594Y004594D01*
X006610Y004582D01*
X006627Y004573D01*
X006646Y004567D01*
X006665Y004565D01*
X006685Y004567D01*
X007235Y004567D02*
X007253Y004565D01*
X007270Y004566D01*
X007287Y004570D01*
X007303Y004577D01*
X007318Y004587D01*
X007330Y004599D01*
X007340Y004613D01*
X007348Y004629D01*
X007353Y004645D01*
X006910Y008060D02*
X006410Y008060D01*
X006160Y008310D01*
X005910Y008060D01*
X005410Y008060D01*
X005160Y008310D01*
X004910Y008060D01*
X004410Y008060D01*
X004160Y008310D01*
X003910Y008060D01*
X003410Y008060D01*
X003160Y008310D01*
X003160Y008810D01*
X003410Y009060D01*
X003910Y009060D01*
X004160Y008810D01*
X004410Y009060D01*
X004910Y009060D01*
X005160Y008810D01*
X005410Y009060D01*
X005910Y009060D01*
X006160Y008810D01*
X006410Y009060D01*
X006910Y009060D01*
X007160Y008810D01*
X007160Y008310D01*
X006910Y008060D01*
X002295Y006681D02*
X001875Y006681D01*
X002015Y006681D02*
X002155Y006891D01*
X002085Y007065D02*
X001945Y007065D01*
X001875Y007135D01*
X001875Y007275D01*
X002015Y007345D02*
X002015Y007065D01*
X002085Y007065D02*
X002155Y007135D01*
X002155Y007275D01*
X002085Y007345D01*
X002015Y007345D01*
X001875Y006891D02*
X002015Y006681D01*
X001945Y006501D02*
X002085Y006501D01*
X002155Y006431D01*
X002155Y006291D01*
X002085Y006221D01*
X001945Y006221D01*
X001875Y006291D01*
X001875Y006431D01*
X001945Y006501D01*
X001875Y006040D02*
X002085Y006040D01*
X002155Y005970D01*
X002085Y005900D01*
X001875Y005900D01*
X001875Y005760D02*
X002155Y005760D01*
X002155Y005830D01*
X002085Y005900D01*
X002015Y005580D02*
X001945Y005580D01*
X001875Y005510D01*
X001875Y005370D01*
X001945Y005300D01*
X002085Y005370D02*
X002085Y005510D01*
X002015Y005580D01*
X002225Y005580D02*
X002295Y005510D01*
X002295Y005370D01*
X002225Y005300D01*
X002155Y005300D01*
X002085Y005370D01*
X002155Y004970D02*
X002155Y004760D01*
X002085Y004690D01*
X001945Y004690D01*
X001875Y004760D01*
X001875Y004970D01*
X001495Y005099D02*
X001425Y005099D01*
X001285Y004959D01*
X001075Y004959D01*
X001285Y004959D02*
X001425Y004819D01*
X001495Y004819D01*
X001425Y004639D02*
X001495Y004569D01*
X001495Y004428D01*
X001425Y004358D01*
X001145Y004358D01*
X001075Y004428D01*
X001075Y004569D01*
X001145Y004639D01*
X001285Y004639D01*
X001285Y004499D01*
X001735Y004132D02*
X001735Y004062D01*
X001735Y004132D02*
X001805Y004203D01*
X002155Y004203D01*
X002155Y003992D01*
X002085Y003922D01*
X001945Y003922D01*
X001875Y003992D01*
X001875Y004203D01*
X001875Y004383D02*
X001875Y004523D01*
X001875Y004453D02*
X002155Y004453D01*
X002155Y004383D01*
X002295Y004453D02*
X002365Y004453D01*
X002085Y003742D02*
X001875Y003742D01*
X001875Y003532D01*
X001945Y003462D01*
X002015Y003532D01*
X002015Y003742D01*
X002085Y003742D02*
X002155Y003672D01*
X002155Y003532D01*
X002295Y003282D02*
X001875Y003282D01*
X001875Y003001D02*
X002295Y003001D01*
X002155Y003142D01*
X002295Y003282D01*
X001425Y005279D02*
X001145Y005279D01*
X001425Y005559D01*
X001145Y005559D01*
X001075Y005489D01*
X001075Y005349D01*
X001145Y005279D01*
X001425Y005279D02*
X001495Y005349D01*
X001495Y005489D01*
X001425Y005559D01*
X001355Y005740D02*
X001495Y005880D01*
X001075Y005880D01*
X001075Y005740D02*
X001075Y006020D01*
D13*
X006185Y004952D02*
X006185Y004785D01*
X006352Y004952D01*
X006394Y004952D01*
X006435Y004910D01*
X006435Y004827D01*
X006394Y004785D01*
X006394Y003752D02*
X006435Y003710D01*
X006435Y003627D01*
X006394Y003585D01*
X006394Y003752D02*
X006352Y003752D01*
X006185Y003585D01*
X006185Y003752D01*
D14*
X004406Y005299D03*
X004401Y005299D03*
X003841Y005144D03*
X003836Y005144D03*
X003861Y004984D03*
X003866Y004984D03*
X003391Y004924D03*
X003196Y004954D03*
X003296Y005329D03*
X003286Y005344D03*
X003281Y005349D03*
X003276Y005359D03*
X003271Y005364D03*
X003266Y005374D03*
X003261Y005379D03*
X003256Y005384D03*
X003251Y005394D03*
X003246Y005399D03*
X003236Y005414D03*
X003226Y005429D03*
X003221Y005434D03*
X003211Y005449D03*
X003181Y005494D03*
X003171Y005509D03*
X003166Y005514D03*
X003161Y005519D03*
X003151Y005534D03*
X002876Y005429D03*
X003526Y005549D03*
X003681Y005669D03*
X003686Y005669D03*
X003691Y005674D03*
X003696Y005674D03*
D15*
X003046Y005069D03*
X002881Y005429D03*
X003226Y004339D03*
X003746Y004084D03*
X003751Y004079D03*
X004291Y004079D03*
X004796Y005019D03*
X004601Y005429D03*
X004331Y006334D03*
X004181Y006619D03*
X003151Y006534D03*
D16*
X003001Y005704D03*
X002886Y005429D03*
X004311Y006369D03*
X004791Y005019D03*
X004341Y004174D03*
D17*
X004786Y005021D03*
X004631Y005441D03*
X003091Y006401D03*
X002891Y005431D03*
D18*
X002896Y005431D03*
X004266Y006426D03*
D19*
X002901Y005429D03*
X004396Y004334D03*
D20*
X004386Y004324D03*
X002906Y005429D03*
D21*
X002911Y005429D03*
X004371Y004314D03*
D22*
X004756Y005031D03*
X002916Y005431D03*
D23*
X002921Y005429D03*
D24*
X002926Y005431D03*
X004736Y005056D03*
D25*
X004721Y005074D03*
X002931Y005429D03*
D26*
X002936Y005429D03*
X004711Y005084D03*
D27*
X002941Y005431D03*
D28*
X002946Y005431D03*
X003091Y004786D03*
D29*
X003106Y004756D03*
X002951Y005431D03*
D30*
X002956Y005431D03*
X003121Y004731D03*
D31*
X003141Y004701D03*
X002961Y005431D03*
D32*
X002966Y005431D03*
X003146Y004696D03*
X003151Y004691D03*
D33*
X002971Y005431D03*
D34*
X002976Y005431D03*
D35*
X003086Y005614D03*
X003501Y005549D03*
X003731Y005684D03*
X003741Y005689D03*
X003746Y005689D03*
X003861Y005144D03*
X003836Y004979D03*
X003366Y004924D03*
X003201Y004959D03*
X002976Y006164D03*
X004431Y005304D03*
D36*
X002981Y005429D03*
D37*
X003311Y005349D03*
X002981Y006164D03*
X003636Y006639D03*
X003641Y006644D03*
X003651Y006649D03*
X003656Y006654D03*
X003661Y006659D03*
X003666Y006664D03*
X004141Y006669D03*
X004146Y006664D03*
X004151Y006659D03*
X004336Y006324D03*
X004556Y006199D03*
X004561Y006194D03*
X004566Y006189D03*
X003256Y004299D03*
X003261Y004294D03*
X003651Y004209D03*
X003776Y004049D03*
X003781Y004044D03*
X004261Y004044D03*
X004266Y004049D03*
D38*
X002986Y005216D03*
X002996Y006166D03*
X004276Y006411D03*
D39*
X004271Y006419D03*
X004241Y006469D03*
X004691Y005234D03*
X004416Y004354D03*
X004356Y004234D03*
X002986Y005644D03*
D40*
X002986Y006164D03*
X003111Y006464D03*
X004316Y006359D03*
X004636Y006079D03*
X004616Y005434D03*
X003186Y004409D03*
D41*
X002991Y005186D03*
X002991Y005676D03*
X004686Y005266D03*
D42*
X004296Y006389D03*
X004236Y006499D03*
X002991Y006164D03*
X004351Y004209D03*
D43*
X004346Y004191D03*
X002996Y005171D03*
X002996Y005691D03*
X004306Y006376D03*
X004231Y006516D03*
D44*
X003336Y005356D03*
X003001Y005156D03*
X003166Y004901D03*
X003181Y004426D03*
X004441Y004386D03*
D45*
X004401Y004339D03*
X003001Y006164D03*
D46*
X003101Y005901D03*
X003006Y005721D03*
X003326Y005366D03*
X003006Y005141D03*
X004336Y004161D03*
X004221Y006546D03*
D47*
X003006Y006166D03*
D48*
X003011Y005731D03*
X003321Y005366D03*
X003011Y005131D03*
X003191Y004401D03*
X004331Y004151D03*
X004216Y006556D03*
D49*
X003011Y006166D03*
X004771Y005006D03*
D50*
X003716Y004136D03*
X003691Y004171D03*
X003686Y004176D03*
X003196Y004391D03*
X003016Y005121D03*
X003016Y005741D03*
X004211Y006566D03*
X004626Y006101D03*
D51*
X003016Y006166D03*
D52*
X003021Y005751D03*
X003021Y005111D03*
X003061Y004706D03*
X003206Y004371D03*
X003676Y004186D03*
X003681Y004181D03*
X004316Y004121D03*
X004621Y006111D03*
X004201Y006586D03*
D53*
X003021Y006166D03*
D54*
X003126Y006494D03*
X003131Y006504D03*
X004196Y006594D03*
X004326Y006344D03*
X004616Y006119D03*
X003026Y005104D03*
X003031Y005094D03*
X003726Y004119D03*
X003731Y004109D03*
X004311Y004109D03*
D55*
X004321Y004129D03*
X003721Y004129D03*
X003201Y004379D03*
X003341Y005369D03*
X003026Y005759D03*
X003106Y005894D03*
X003121Y006484D03*
X004206Y006579D03*
X004611Y005434D03*
D56*
X004741Y005051D03*
X003026Y006166D03*
D57*
X003031Y006044D03*
D58*
X003141Y006519D03*
X004191Y006604D03*
X004606Y006134D03*
X004611Y006129D03*
X003036Y005084D03*
X003216Y004354D03*
X004301Y004094D03*
D59*
X003751Y004961D03*
X003746Y004961D03*
X003926Y005136D03*
X004516Y005316D03*
X004521Y005316D03*
X003901Y005736D03*
X003896Y005736D03*
X003401Y005536D03*
X003396Y005536D03*
X003036Y005641D03*
X003296Y004916D03*
D60*
X003036Y006066D03*
X003041Y006076D03*
D61*
X003111Y005886D03*
X003346Y005381D03*
X003041Y005076D03*
X003221Y004346D03*
X003666Y004196D03*
X003741Y004091D03*
X004296Y004086D03*
X004601Y006141D03*
X004186Y006611D03*
X003146Y006526D03*
D62*
X003866Y005726D03*
X003876Y005731D03*
X003881Y005731D03*
X003916Y005136D03*
X003921Y005136D03*
X003761Y004961D03*
X003211Y004961D03*
X003041Y005636D03*
X004501Y005311D03*
D63*
X004496Y005314D03*
X003911Y005139D03*
X003771Y004964D03*
X003766Y004964D03*
X003316Y004919D03*
X003311Y004919D03*
X003421Y005539D03*
X003426Y005539D03*
X003156Y005864D03*
X003046Y005634D03*
X003856Y005724D03*
X003861Y005724D03*
X003871Y005729D03*
D64*
X003061Y006114D03*
X003056Y006104D03*
X003046Y006084D03*
D65*
X003156Y006541D03*
X003161Y006546D03*
X004176Y006626D03*
X004591Y006156D03*
X004596Y006151D03*
X003056Y005056D03*
X003051Y005061D03*
X003231Y004331D03*
X003661Y004201D03*
X003756Y004071D03*
X004286Y004071D03*
D66*
X003786Y004969D03*
X003901Y005139D03*
X003331Y004919D03*
X003326Y004919D03*
X003321Y004919D03*
X003051Y005634D03*
X003836Y005719D03*
X003841Y005719D03*
X004481Y005309D03*
D67*
X003076Y006136D03*
X003071Y006131D03*
X003066Y006121D03*
X003051Y006096D03*
X003081Y006146D03*
D68*
X003241Y006626D03*
X003246Y006631D03*
X003251Y006631D03*
X003256Y006636D03*
X003581Y006641D03*
X003591Y006636D03*
X003596Y006631D03*
X003601Y006631D03*
X003611Y006626D03*
X003616Y006626D03*
X003736Y006726D03*
X003741Y006731D03*
X003751Y006736D03*
X004066Y006731D03*
X004076Y006726D03*
X004081Y006721D03*
X004341Y006311D03*
X004486Y006256D03*
X004491Y006251D03*
X004496Y006251D03*
X004501Y006246D03*
X004506Y006241D03*
X003136Y005581D03*
X003056Y004706D03*
X003321Y004241D03*
X003326Y004236D03*
X003331Y004236D03*
X003336Y004231D03*
X003346Y004226D03*
X003641Y004216D03*
X003836Y003991D03*
X003846Y003986D03*
X003851Y003981D03*
X003856Y003976D03*
X003866Y003971D03*
X004176Y003971D03*
X004186Y003976D03*
X004191Y003981D03*
X004196Y003986D03*
X004206Y003991D03*
D69*
X004516Y004846D03*
X004486Y004851D03*
X004546Y004841D03*
X004576Y004836D03*
X004601Y004831D03*
X004606Y004831D03*
X004631Y004826D03*
X004636Y004826D03*
X004661Y004821D03*
X004666Y004821D03*
X004786Y004801D03*
X004791Y004801D03*
X004476Y005311D03*
X003896Y005141D03*
X003791Y004966D03*
X003446Y005541D03*
X003441Y005541D03*
X003816Y005711D03*
X003821Y005711D03*
X003826Y005716D03*
X003831Y005716D03*
X003056Y005631D03*
D70*
X003116Y005884D03*
X003166Y006554D03*
X004166Y006639D03*
X004171Y006634D03*
X004586Y006164D03*
X004691Y004889D03*
X004456Y004419D03*
X004281Y004064D03*
X004276Y004059D03*
X003766Y004059D03*
X003761Y004064D03*
X003656Y004204D03*
X003241Y004319D03*
X003236Y004324D03*
X003176Y004929D03*
X003061Y005049D03*
D71*
X003336Y004919D03*
X003341Y004919D03*
X003446Y004879D03*
X003471Y004869D03*
X003496Y004859D03*
X003521Y004849D03*
X003586Y004824D03*
X003611Y004814D03*
X003636Y004804D03*
X003661Y004794D03*
X003726Y004769D03*
X003751Y004759D03*
X003776Y004749D03*
X003801Y004739D03*
X003866Y004714D03*
X003891Y004704D03*
X003916Y004694D03*
X003941Y004684D03*
X004031Y004649D03*
X004056Y004639D03*
X004081Y004629D03*
X004106Y004619D03*
X004171Y004594D03*
X004196Y004584D03*
X004221Y004574D03*
X004246Y004564D03*
X004271Y004554D03*
X004296Y004544D03*
X004311Y004539D03*
X004336Y004529D03*
X004491Y004849D03*
X004496Y004849D03*
X004501Y004849D03*
X004506Y004849D03*
X004511Y004849D03*
X004521Y004844D03*
X004526Y004844D03*
X004531Y004844D03*
X004536Y004844D03*
X004541Y004844D03*
X004551Y004839D03*
X004556Y004839D03*
X004561Y004839D03*
X004566Y004839D03*
X004571Y004839D03*
X004581Y004834D03*
X004586Y004834D03*
X004591Y004834D03*
X004596Y004834D03*
X004611Y004829D03*
X004616Y004829D03*
X004621Y004829D03*
X004626Y004829D03*
X004641Y004824D03*
X004646Y004824D03*
X004651Y004824D03*
X004656Y004824D03*
X004796Y004799D03*
X004801Y004799D03*
X004481Y004854D03*
X004476Y004854D03*
X004471Y004854D03*
X004466Y004854D03*
X004461Y004854D03*
X004456Y004859D03*
X004451Y004859D03*
X004446Y004859D03*
X004441Y004859D03*
X004436Y004859D03*
X004431Y004859D03*
X004426Y004864D03*
X004421Y004864D03*
X004416Y004864D03*
X004411Y004864D03*
X004406Y004864D03*
X004401Y004864D03*
X004396Y004869D03*
X004391Y004869D03*
X004386Y004869D03*
X004381Y004869D03*
X004376Y004869D03*
X004371Y004869D03*
X004361Y004874D03*
X004356Y004874D03*
X004351Y004874D03*
X004346Y004874D03*
X004341Y004874D03*
X004331Y004879D03*
X004326Y004879D03*
X004321Y004879D03*
X004316Y004879D03*
X004306Y004884D03*
X004301Y004884D03*
X004296Y004884D03*
X004291Y004884D03*
X004286Y004884D03*
X004276Y004889D03*
X004271Y004889D03*
X004266Y004889D03*
X004261Y004889D03*
X004256Y004889D03*
X004246Y004894D03*
X004241Y004894D03*
X004236Y004894D03*
X004231Y004894D03*
X004226Y004894D03*
X004216Y004899D03*
X004211Y004899D03*
X004206Y004899D03*
X004201Y004899D03*
X004191Y004904D03*
X004186Y004904D03*
X004181Y004904D03*
X004176Y004904D03*
X004171Y004904D03*
X004161Y004909D03*
X004156Y004909D03*
X004151Y004909D03*
X004146Y004909D03*
X004141Y004909D03*
X004131Y004914D03*
X004126Y004914D03*
X004121Y004914D03*
X004116Y004914D03*
X004111Y004914D03*
X004101Y004919D03*
X004096Y004919D03*
X004091Y004919D03*
X004086Y004919D03*
X004081Y004919D03*
X004071Y004924D03*
X004066Y004924D03*
X004061Y004924D03*
X004056Y004924D03*
X004046Y004929D03*
X004041Y004929D03*
X004036Y004929D03*
X004031Y004929D03*
X004026Y004929D03*
X004016Y004934D03*
X004011Y004934D03*
X004006Y004934D03*
X004001Y004934D03*
X003996Y004934D03*
X003986Y004939D03*
X003981Y004939D03*
X003976Y004939D03*
X003971Y004939D03*
X003966Y004939D03*
X003956Y004944D03*
X003951Y004944D03*
X003946Y004944D03*
X003941Y004944D03*
X003931Y004949D03*
X003926Y004949D03*
X003921Y004949D03*
X003916Y004949D03*
X003911Y004949D03*
X003796Y004969D03*
X003756Y005089D03*
X003731Y005079D03*
X003706Y005069D03*
X003781Y005099D03*
X003891Y005139D03*
X003966Y005424D03*
X003946Y005429D03*
X003926Y005434D03*
X003901Y005439D03*
X003881Y005444D03*
X003861Y005449D03*
X003836Y005454D03*
X003816Y005459D03*
X003796Y005464D03*
X003771Y005469D03*
X003751Y005474D03*
X003731Y005479D03*
X003706Y005484D03*
X003686Y005489D03*
X003666Y005494D03*
X003641Y005499D03*
X003626Y005504D03*
X003621Y005504D03*
X003611Y005509D03*
X003606Y005509D03*
X003601Y005509D03*
X003586Y005514D03*
X003581Y005514D03*
X003576Y005514D03*
X003566Y005519D03*
X003561Y005519D03*
X003456Y005544D03*
X003451Y005544D03*
X003416Y005664D03*
X003411Y005664D03*
X003406Y005664D03*
X003401Y005664D03*
X003391Y005659D03*
X003386Y005659D03*
X003381Y005659D03*
X003376Y005659D03*
X003371Y005659D03*
X003366Y005659D03*
X003361Y005659D03*
X003356Y005659D03*
X003351Y005659D03*
X003346Y005654D03*
X003341Y005654D03*
X003336Y005654D03*
X003331Y005654D03*
X003326Y005654D03*
X003321Y005654D03*
X003316Y005654D03*
X003311Y005654D03*
X003306Y005654D03*
X003301Y005654D03*
X003296Y005649D03*
X003291Y005649D03*
X003286Y005649D03*
X003281Y005649D03*
X003276Y005649D03*
X003271Y005649D03*
X003266Y005649D03*
X003261Y005649D03*
X003256Y005649D03*
X003251Y005649D03*
X003246Y005644D03*
X003241Y005644D03*
X003236Y005644D03*
X003231Y005644D03*
X003226Y005644D03*
X003221Y005644D03*
X003216Y005644D03*
X003211Y005644D03*
X003206Y005644D03*
X003201Y005644D03*
X003196Y005639D03*
X003191Y005639D03*
X003186Y005639D03*
X003181Y005639D03*
X003176Y005639D03*
X003171Y005639D03*
X003166Y005639D03*
X003161Y005639D03*
X003156Y005639D03*
X003151Y005639D03*
X003146Y005634D03*
X003061Y005629D03*
X003451Y005669D03*
X003456Y005669D03*
X003461Y005669D03*
X003501Y005674D03*
X003506Y005674D03*
X003531Y005679D03*
X003536Y005679D03*
X003541Y005679D03*
X003546Y005679D03*
X003551Y005679D03*
X003561Y005684D03*
X003566Y005684D03*
X003571Y005684D03*
X003576Y005684D03*
X003581Y005684D03*
X003586Y005684D03*
X003591Y005684D03*
X003596Y005684D03*
X003606Y005689D03*
X003611Y005689D03*
X003616Y005689D03*
X003621Y005689D03*
X003626Y005689D03*
X003631Y005689D03*
X003806Y005709D03*
X003811Y005709D03*
X003991Y005419D03*
X004011Y005414D03*
X004031Y005409D03*
X004056Y005404D03*
X004076Y005399D03*
X004096Y005394D03*
X004121Y005389D03*
X004141Y005384D03*
X004161Y005379D03*
X004186Y005374D03*
X004206Y005369D03*
X004226Y005364D03*
X004251Y005359D03*
X004271Y005354D03*
X004291Y005349D03*
X004311Y005344D03*
X004316Y005344D03*
X004336Y005339D03*
X004356Y005334D03*
X004466Y005309D03*
X004471Y005309D03*
D72*
X004626Y005439D03*
X004756Y005784D03*
X003096Y006424D03*
X003066Y004704D03*
D73*
X003076Y005031D03*
X003071Y005036D03*
X003066Y005041D03*
X003246Y004311D03*
X003251Y004306D03*
X003771Y004051D03*
X004271Y004056D03*
X004581Y006171D03*
X004576Y006176D03*
X004571Y006181D03*
X004161Y006646D03*
X004156Y006651D03*
X003181Y006571D03*
X003176Y006566D03*
X003171Y006561D03*
D74*
X003511Y005676D03*
X003516Y005676D03*
X003521Y005676D03*
X003526Y005676D03*
X003496Y005671D03*
X003491Y005671D03*
X003486Y005671D03*
X003481Y005671D03*
X003476Y005671D03*
X003471Y005671D03*
X003466Y005671D03*
X003446Y005666D03*
X003441Y005666D03*
X003436Y005666D03*
X003431Y005666D03*
X003426Y005666D03*
X003421Y005666D03*
X003396Y005661D03*
X003461Y005541D03*
X003561Y005586D03*
X003571Y005591D03*
X003581Y005596D03*
X003591Y005601D03*
X003601Y005606D03*
X003611Y005611D03*
X003621Y005616D03*
X003631Y005621D03*
X003601Y005686D03*
X003556Y005681D03*
X003571Y005516D03*
X003591Y005511D03*
X003596Y005511D03*
X003616Y005506D03*
X003631Y005501D03*
X003636Y005501D03*
X003646Y005496D03*
X003651Y005496D03*
X003656Y005496D03*
X003661Y005496D03*
X003671Y005491D03*
X003676Y005491D03*
X003681Y005491D03*
X003691Y005486D03*
X003696Y005486D03*
X003701Y005486D03*
X003711Y005481D03*
X003716Y005481D03*
X003721Y005481D03*
X003726Y005481D03*
X003736Y005476D03*
X003741Y005476D03*
X003746Y005476D03*
X003756Y005471D03*
X003761Y005471D03*
X003766Y005471D03*
X003776Y005466D03*
X003781Y005466D03*
X003786Y005466D03*
X003791Y005466D03*
X003801Y005461D03*
X003806Y005461D03*
X003811Y005461D03*
X003821Y005456D03*
X003826Y005456D03*
X003831Y005456D03*
X003841Y005451D03*
X003846Y005451D03*
X003851Y005451D03*
X003856Y005451D03*
X003866Y005446D03*
X003871Y005446D03*
X003876Y005446D03*
X003886Y005441D03*
X003891Y005441D03*
X003896Y005441D03*
X003906Y005436D03*
X003911Y005436D03*
X003916Y005436D03*
X003921Y005436D03*
X003931Y005431D03*
X003936Y005431D03*
X003941Y005431D03*
X003951Y005426D03*
X003956Y005426D03*
X003961Y005426D03*
X003971Y005421D03*
X003976Y005421D03*
X003981Y005421D03*
X003986Y005421D03*
X003996Y005416D03*
X004001Y005416D03*
X004006Y005416D03*
X004016Y005411D03*
X004021Y005411D03*
X004026Y005411D03*
X004036Y005406D03*
X004041Y005406D03*
X004046Y005406D03*
X004051Y005406D03*
X004061Y005401D03*
X004066Y005401D03*
X004071Y005401D03*
X004081Y005396D03*
X004086Y005396D03*
X004091Y005396D03*
X004101Y005391D03*
X004106Y005391D03*
X004111Y005391D03*
X004116Y005391D03*
X004126Y005386D03*
X004131Y005386D03*
X004136Y005386D03*
X004146Y005381D03*
X004151Y005381D03*
X004156Y005381D03*
X004166Y005376D03*
X004171Y005376D03*
X004176Y005376D03*
X004181Y005376D03*
X004191Y005371D03*
X004196Y005371D03*
X004201Y005371D03*
X004211Y005366D03*
X004216Y005366D03*
X004221Y005366D03*
X004231Y005361D03*
X004236Y005361D03*
X004241Y005361D03*
X004246Y005361D03*
X004256Y005356D03*
X004261Y005356D03*
X004266Y005356D03*
X004276Y005351D03*
X004281Y005351D03*
X004286Y005351D03*
X004296Y005346D03*
X004301Y005346D03*
X004306Y005346D03*
X004321Y005341D03*
X004326Y005341D03*
X004331Y005341D03*
X004341Y005336D03*
X004346Y005336D03*
X004351Y005336D03*
X004361Y005331D03*
X004366Y005331D03*
X004371Y005331D03*
X004371Y005261D03*
X004361Y005256D03*
X004351Y005251D03*
X004341Y005246D03*
X004331Y005241D03*
X004321Y005236D03*
X004311Y005231D03*
X004301Y005226D03*
X004291Y005221D03*
X004281Y005216D03*
X004271Y005211D03*
X004261Y005206D03*
X004251Y005201D03*
X004241Y005196D03*
X004231Y005191D03*
X004221Y005186D03*
X004211Y005181D03*
X004201Y005176D03*
X004191Y005171D03*
X004181Y005166D03*
X004171Y005161D03*
X004166Y005156D03*
X004161Y005156D03*
X004156Y005151D03*
X004151Y005151D03*
X004146Y005146D03*
X004141Y005146D03*
X004136Y005141D03*
X004131Y005141D03*
X004126Y005136D03*
X004116Y005131D03*
X004106Y005126D03*
X004096Y005121D03*
X004086Y005116D03*
X004076Y005111D03*
X004066Y005106D03*
X004056Y005101D03*
X004046Y005096D03*
X004036Y005091D03*
X003886Y005141D03*
X003806Y005106D03*
X003801Y005106D03*
X003796Y005106D03*
X003791Y005101D03*
X003786Y005101D03*
X003776Y005096D03*
X003771Y005096D03*
X003766Y005091D03*
X003761Y005091D03*
X003751Y005086D03*
X003746Y005086D03*
X003741Y005081D03*
X003736Y005081D03*
X003726Y005076D03*
X003721Y005076D03*
X003716Y005071D03*
X003711Y005071D03*
X003701Y005066D03*
X003696Y005066D03*
X003691Y005061D03*
X003686Y005061D03*
X003681Y005061D03*
X003676Y005056D03*
X003671Y005056D03*
X003666Y005051D03*
X003661Y005051D03*
X003656Y005051D03*
X003646Y005046D03*
X003636Y005041D03*
X003631Y005041D03*
X003621Y005036D03*
X003611Y005031D03*
X003606Y005031D03*
X003596Y005026D03*
X003586Y005021D03*
X003576Y005016D03*
X003571Y005016D03*
X003561Y005011D03*
X003551Y005006D03*
X003546Y005006D03*
X003536Y005001D03*
X003526Y004996D03*
X003521Y004996D03*
X003511Y004991D03*
X003501Y004986D03*
X003486Y004981D03*
X003476Y004976D03*
X003451Y004966D03*
X003431Y004886D03*
X003436Y004881D03*
X003441Y004881D03*
X003451Y004876D03*
X003456Y004876D03*
X003461Y004871D03*
X003466Y004871D03*
X003476Y004866D03*
X003481Y004866D03*
X003486Y004861D03*
X003491Y004861D03*
X003501Y004856D03*
X003506Y004856D03*
X003511Y004851D03*
X003516Y004851D03*
X003526Y004846D03*
X003531Y004846D03*
X003536Y004841D03*
X003541Y004841D03*
X003546Y004841D03*
X003551Y004836D03*
X003556Y004836D03*
X003561Y004831D03*
X003566Y004831D03*
X003571Y004831D03*
X003576Y004826D03*
X003581Y004826D03*
X003591Y004821D03*
X003596Y004821D03*
X003601Y004816D03*
X003606Y004816D03*
X003616Y004811D03*
X003621Y004811D03*
X003626Y004806D03*
X003631Y004806D03*
X003641Y004801D03*
X003646Y004801D03*
X003651Y004796D03*
X003656Y004796D03*
X003666Y004791D03*
X003671Y004791D03*
X003676Y004786D03*
X003681Y004786D03*
X003686Y004786D03*
X003691Y004781D03*
X003696Y004781D03*
X003701Y004776D03*
X003706Y004776D03*
X003711Y004776D03*
X003716Y004771D03*
X003721Y004771D03*
X003731Y004766D03*
X003736Y004766D03*
X003741Y004761D03*
X003746Y004761D03*
X003756Y004756D03*
X003761Y004756D03*
X003766Y004751D03*
X003771Y004751D03*
X003781Y004746D03*
X003786Y004746D03*
X003791Y004741D03*
X003796Y004741D03*
X003806Y004736D03*
X003811Y004736D03*
X003816Y004731D03*
X003821Y004731D03*
X003826Y004731D03*
X003831Y004726D03*
X003836Y004726D03*
X003841Y004721D03*
X003846Y004721D03*
X003851Y004721D03*
X003856Y004716D03*
X003861Y004716D03*
X003871Y004711D03*
X003876Y004711D03*
X003881Y004706D03*
X003886Y004706D03*
X003896Y004701D03*
X003901Y004701D03*
X003906Y004696D03*
X003911Y004696D03*
X003921Y004691D03*
X003926Y004691D03*
X003931Y004686D03*
X003936Y004686D03*
X003946Y004681D03*
X003951Y004681D03*
X003956Y004676D03*
X003961Y004676D03*
X003966Y004676D03*
X003971Y004671D03*
X003976Y004671D03*
X003981Y004666D03*
X003986Y004666D03*
X003991Y004666D03*
X003996Y004661D03*
X004001Y004661D03*
X004006Y004656D03*
X004011Y004656D03*
X004016Y004656D03*
X004021Y004651D03*
X004026Y004651D03*
X004036Y004646D03*
X004041Y004646D03*
X004046Y004641D03*
X004051Y004641D03*
X004061Y004636D03*
X004066Y004636D03*
X004071Y004631D03*
X004076Y004631D03*
X004086Y004626D03*
X004091Y004626D03*
X004096Y004621D03*
X004101Y004621D03*
X004111Y004616D03*
X004116Y004616D03*
X004121Y004611D03*
X004126Y004611D03*
X004131Y004611D03*
X004136Y004606D03*
X004141Y004606D03*
X004146Y004601D03*
X004151Y004601D03*
X004156Y004601D03*
X004161Y004596D03*
X004166Y004596D03*
X004176Y004591D03*
X004181Y004591D03*
X004186Y004586D03*
X004191Y004586D03*
X004201Y004581D03*
X004206Y004581D03*
X004211Y004576D03*
X004216Y004576D03*
X004226Y004571D03*
X004231Y004571D03*
X004236Y004566D03*
X004241Y004566D03*
X004251Y004561D03*
X004256Y004561D03*
X004261Y004556D03*
X004266Y004556D03*
X004276Y004551D03*
X004281Y004551D03*
X004286Y004546D03*
X004291Y004546D03*
X004301Y004541D03*
X004306Y004541D03*
X004316Y004536D03*
X004321Y004536D03*
X004326Y004531D03*
X004331Y004531D03*
X004341Y004526D03*
X004346Y004526D03*
X004351Y004521D03*
X004471Y004476D03*
X004476Y004476D03*
X004486Y004471D03*
X004501Y004466D03*
X004511Y004461D03*
X004526Y004456D03*
X004536Y004451D03*
X004551Y004446D03*
X004576Y004436D03*
X004601Y004426D03*
X004616Y004421D03*
X004626Y004416D03*
X004641Y004411D03*
X004651Y004406D03*
X004666Y004401D03*
X004676Y004396D03*
X004691Y004391D03*
X004701Y004386D03*
X004716Y004381D03*
X004726Y004376D03*
X004741Y004371D03*
X004751Y004366D03*
X004756Y004366D03*
X004766Y004361D03*
X004776Y004356D03*
X004781Y004356D03*
X004786Y004356D03*
X004791Y004351D03*
X004796Y004351D03*
X004801Y004346D03*
X004366Y004871D03*
X004336Y004876D03*
X004311Y004881D03*
X004281Y004886D03*
X004251Y004891D03*
X004221Y004896D03*
X004196Y004901D03*
X004166Y004906D03*
X004136Y004911D03*
X004106Y004916D03*
X004076Y004921D03*
X004051Y004926D03*
X004021Y004931D03*
X003991Y004936D03*
X003961Y004941D03*
X003936Y004946D03*
X003906Y004951D03*
X003801Y004971D03*
X003206Y004956D03*
X003066Y005626D03*
X003796Y005706D03*
X003801Y005706D03*
X004456Y005306D03*
X004461Y005306D03*
X004556Y005421D03*
D75*
X003071Y004706D03*
D76*
X003346Y004919D03*
X003351Y004919D03*
X003431Y004959D03*
X003436Y004959D03*
X003441Y004964D03*
X003446Y004964D03*
X003456Y004969D03*
X003461Y004969D03*
X003466Y004974D03*
X003471Y004974D03*
X003481Y004979D03*
X003491Y004984D03*
X003496Y004984D03*
X003506Y004989D03*
X003516Y004994D03*
X003531Y004999D03*
X003541Y005004D03*
X003556Y005009D03*
X003566Y005014D03*
X003581Y005019D03*
X003591Y005024D03*
X003601Y005029D03*
X003616Y005034D03*
X003626Y005039D03*
X003641Y005044D03*
X003651Y005049D03*
X003806Y004974D03*
X003811Y004974D03*
X003906Y005024D03*
X003916Y005029D03*
X003926Y005034D03*
X003931Y005039D03*
X003936Y005039D03*
X003941Y005044D03*
X003946Y005044D03*
X003951Y005049D03*
X003956Y005049D03*
X003961Y005054D03*
X003966Y005054D03*
X003971Y005059D03*
X003976Y005059D03*
X003981Y005064D03*
X003986Y005064D03*
X003991Y005069D03*
X003996Y005069D03*
X004001Y005074D03*
X004006Y005074D03*
X004011Y005079D03*
X004016Y005079D03*
X004021Y005084D03*
X004026Y005084D03*
X004031Y005089D03*
X004041Y005094D03*
X004051Y005099D03*
X004061Y005104D03*
X004071Y005109D03*
X004081Y005114D03*
X004091Y005119D03*
X004101Y005124D03*
X004111Y005129D03*
X004121Y005134D03*
X004176Y005164D03*
X004186Y005169D03*
X004196Y005174D03*
X004206Y005179D03*
X004216Y005184D03*
X004226Y005189D03*
X004236Y005194D03*
X004246Y005199D03*
X004256Y005204D03*
X004266Y005209D03*
X004276Y005214D03*
X004286Y005219D03*
X004296Y005224D03*
X004306Y005229D03*
X004316Y005234D03*
X004326Y005239D03*
X004336Y005244D03*
X004346Y005249D03*
X004356Y005254D03*
X004366Y005259D03*
X003881Y005139D03*
X003766Y005204D03*
X003741Y005219D03*
X003716Y005234D03*
X003706Y005239D03*
X003691Y005249D03*
X003681Y005254D03*
X003671Y005259D03*
X003666Y005264D03*
X003656Y005269D03*
X003646Y005274D03*
X003641Y005279D03*
X003631Y005284D03*
X003621Y005289D03*
X003611Y005294D03*
X003606Y005299D03*
X003601Y005299D03*
X003596Y005304D03*
X003591Y005304D03*
X003586Y005309D03*
X003581Y005314D03*
X003576Y005314D03*
X003571Y005319D03*
X003566Y005319D03*
X003561Y005324D03*
X003556Y005329D03*
X003551Y005329D03*
X003546Y005334D03*
X003541Y005334D03*
X003536Y005339D03*
X003531Y005344D03*
X003526Y005344D03*
X003521Y005349D03*
X003516Y005349D03*
X003511Y005354D03*
X003506Y005359D03*
X003501Y005359D03*
X003496Y005364D03*
X003491Y005364D03*
X003486Y005369D03*
X003481Y005374D03*
X003476Y005374D03*
X003471Y005379D03*
X003466Y005379D03*
X003461Y005384D03*
X003456Y005389D03*
X003451Y005389D03*
X003446Y005394D03*
X003441Y005394D03*
X003436Y005399D03*
X003431Y005404D03*
X003426Y005404D03*
X003421Y005409D03*
X003416Y005409D03*
X003411Y005414D03*
X003406Y005419D03*
X003401Y005419D03*
X003396Y005424D03*
X003391Y005424D03*
X003386Y005429D03*
X003381Y005434D03*
X003376Y005434D03*
X003371Y005439D03*
X003466Y005544D03*
X003471Y005544D03*
X003566Y005589D03*
X003576Y005594D03*
X003586Y005599D03*
X003596Y005604D03*
X003606Y005609D03*
X003616Y005614D03*
X003626Y005619D03*
X003791Y005704D03*
X003071Y005624D03*
X004481Y004474D03*
X004491Y004469D03*
X004496Y004469D03*
X004506Y004464D03*
X004516Y004459D03*
X004521Y004459D03*
X004531Y004454D03*
X004541Y004449D03*
X004546Y004449D03*
X004556Y004444D03*
X004561Y004444D03*
X004566Y004439D03*
X004571Y004439D03*
X004581Y004434D03*
X004586Y004434D03*
X004591Y004429D03*
X004596Y004429D03*
X004606Y004424D03*
X004611Y004424D03*
X004621Y004419D03*
X004631Y004414D03*
X004636Y004414D03*
X004646Y004409D03*
X004656Y004404D03*
X004661Y004404D03*
X004671Y004399D03*
X004681Y004394D03*
X004686Y004394D03*
X004696Y004389D03*
X004706Y004384D03*
X004711Y004384D03*
X004721Y004379D03*
X004731Y004374D03*
X004736Y004374D03*
X004746Y004369D03*
X004761Y004364D03*
X004771Y004359D03*
D77*
X004406Y004341D03*
X003076Y004706D03*
D78*
X003361Y004919D03*
X003816Y004974D03*
X003821Y004974D03*
X003366Y005434D03*
X003076Y005619D03*
X003761Y005694D03*
X003766Y005694D03*
X004441Y005304D03*
X004446Y005304D03*
D79*
X004741Y005786D03*
X004391Y004331D03*
X003081Y004706D03*
D80*
X003081Y005026D03*
X003266Y004291D03*
X003271Y004286D03*
X003786Y004036D03*
X003791Y004031D03*
X003796Y004026D03*
X004246Y004026D03*
X004251Y004031D03*
X004256Y004036D03*
X004596Y005426D03*
X004136Y006676D03*
X004131Y006681D03*
X003686Y006686D03*
X003681Y006681D03*
X003676Y006676D03*
X003671Y006671D03*
X003646Y006646D03*
X003631Y006636D03*
X003196Y006586D03*
X003191Y006581D03*
X003186Y006576D03*
D81*
X003751Y005691D03*
X003756Y005691D03*
X003496Y005546D03*
X003491Y005546D03*
X003486Y005546D03*
X003081Y005616D03*
X003866Y005141D03*
X003831Y004976D03*
X003826Y004976D03*
X004436Y005301D03*
X004561Y005421D03*
D82*
X003086Y004796D03*
D83*
X003086Y006154D03*
D84*
X003091Y005611D03*
X003506Y005546D03*
X003721Y005681D03*
X003726Y005681D03*
X003736Y005686D03*
X003856Y005141D03*
X003841Y004981D03*
X003371Y004921D03*
X004421Y005301D03*
X004426Y005301D03*
X004676Y004836D03*
D85*
X004286Y006401D03*
X003091Y005921D03*
D86*
X003096Y004771D03*
D87*
X003386Y004921D03*
X003851Y004981D03*
X003856Y004981D03*
X004411Y005301D03*
X004416Y005301D03*
X004801Y005021D03*
X004466Y004461D03*
X003521Y005551D03*
X003701Y005676D03*
X003706Y005676D03*
X003241Y005406D03*
X003231Y005421D03*
X003216Y005441D03*
X003206Y005456D03*
X003201Y005461D03*
X003196Y005471D03*
X003156Y005526D03*
X003146Y005541D03*
X003096Y005606D03*
D88*
X003096Y005909D03*
X003176Y004439D03*
X004436Y004379D03*
D89*
X003101Y004764D03*
X004696Y005784D03*
D90*
X003871Y004986D03*
X003396Y004921D03*
X003291Y005336D03*
X003361Y005421D03*
X003191Y005481D03*
X003186Y005486D03*
X003176Y005501D03*
X003101Y005606D03*
X003141Y005866D03*
X003531Y005551D03*
X003536Y005551D03*
X003541Y005551D03*
X003671Y005666D03*
X003676Y005666D03*
D91*
X003101Y006436D03*
X004226Y006531D03*
X004646Y006051D03*
X004621Y005436D03*
D92*
X004571Y005424D03*
X004396Y005299D03*
X004391Y005299D03*
X004681Y004849D03*
X003876Y004984D03*
X003831Y005144D03*
X003406Y004924D03*
X003401Y004924D03*
X003301Y005329D03*
X003546Y005554D03*
X003661Y005664D03*
X003666Y005664D03*
X003106Y005604D03*
D93*
X003331Y005359D03*
X003106Y006449D03*
X004641Y006069D03*
D94*
X003111Y004746D03*
D95*
X003191Y004949D03*
X003416Y004924D03*
X003891Y004989D03*
X003896Y004989D03*
X004376Y005294D03*
X004576Y005424D03*
X003646Y005659D03*
X003636Y005654D03*
X003556Y005554D03*
X003111Y005599D03*
X003136Y005869D03*
D96*
X003116Y004739D03*
X004691Y005784D03*
D97*
X003901Y004991D03*
X003816Y005146D03*
X003811Y005146D03*
X003421Y004921D03*
X003116Y005596D03*
D98*
X003116Y006474D03*
X004321Y006354D03*
X004631Y006089D03*
X004761Y005784D03*
X004446Y004394D03*
X004326Y004139D03*
X003711Y004144D03*
X003706Y004154D03*
X003701Y004159D03*
X003696Y004164D03*
D99*
X003426Y004924D03*
X003121Y005594D03*
D100*
X003121Y005879D03*
X003351Y005394D03*
X003181Y004939D03*
X003276Y004279D03*
X003281Y004274D03*
X003286Y004269D03*
X004241Y004024D03*
X004766Y005784D03*
X004551Y006204D03*
X004546Y006209D03*
X004541Y006214D03*
X004536Y006219D03*
X004126Y006684D03*
X004121Y006689D03*
X004116Y006694D03*
X003691Y006689D03*
X003626Y006634D03*
X003201Y006594D03*
D101*
X003126Y004721D03*
X003131Y004716D03*
D102*
X003186Y004944D03*
X003126Y005589D03*
X003321Y006669D03*
X003331Y006674D03*
X003336Y006674D03*
X003341Y006674D03*
X003351Y006679D03*
X003356Y006679D03*
X003361Y006679D03*
X003371Y006684D03*
X003376Y006684D03*
X003381Y006684D03*
X003386Y006684D03*
X003391Y006684D03*
X003431Y006689D03*
X003436Y006689D03*
X003441Y006689D03*
X003461Y006684D03*
X003466Y006684D03*
X003471Y006684D03*
X003476Y006684D03*
X003481Y006684D03*
X003486Y006679D03*
X003491Y006679D03*
X003496Y006679D03*
X003501Y006679D03*
X003506Y006674D03*
X003511Y006674D03*
X003526Y006669D03*
X003796Y006759D03*
X003811Y006764D03*
X003821Y006769D03*
X003826Y006769D03*
X003831Y006769D03*
X003841Y006774D03*
X003846Y006774D03*
X003851Y006774D03*
X003856Y006774D03*
X003871Y006779D03*
X003876Y006779D03*
X003881Y006779D03*
X003886Y006779D03*
X003891Y006779D03*
X003896Y006779D03*
X003901Y006779D03*
X003906Y006779D03*
X003911Y006779D03*
X003916Y006779D03*
X003921Y006779D03*
X003926Y006779D03*
X003931Y006779D03*
X003936Y006779D03*
X003956Y006774D03*
X003961Y006774D03*
X003966Y006774D03*
X003971Y006774D03*
X003976Y006769D03*
X003981Y006769D03*
X003986Y006769D03*
X003996Y006764D03*
X004001Y006764D03*
X004346Y006304D03*
X004351Y006304D03*
X004356Y006304D03*
X004371Y006299D03*
X004376Y006299D03*
X004381Y006299D03*
X004386Y006299D03*
X004396Y006294D03*
X004401Y006294D03*
X004406Y006294D03*
X004416Y006289D03*
X004431Y006284D03*
X003596Y004199D03*
X003586Y004194D03*
X003581Y004194D03*
X003576Y004194D03*
X003566Y004189D03*
X003561Y004189D03*
X003556Y004189D03*
X003551Y004189D03*
X003541Y004184D03*
X003536Y004184D03*
X003531Y004184D03*
X003526Y004184D03*
X003521Y004184D03*
X003516Y004184D03*
X003511Y004184D03*
X003506Y004184D03*
X003501Y004184D03*
X003496Y004184D03*
X003491Y004184D03*
X003486Y004184D03*
X003481Y004184D03*
X003476Y004184D03*
X003471Y004184D03*
X003466Y004184D03*
X003461Y004184D03*
X003446Y004189D03*
X003441Y004189D03*
X003436Y004189D03*
X003431Y004189D03*
X003426Y004194D03*
X003421Y004194D03*
X003416Y004194D03*
X003406Y004199D03*
X003926Y003944D03*
X003941Y003939D03*
X003946Y003939D03*
X003951Y003939D03*
X003956Y003934D03*
X003961Y003934D03*
X003966Y003934D03*
X003971Y003934D03*
X003981Y003929D03*
X003986Y003929D03*
X003991Y003929D03*
X003996Y003929D03*
X004001Y003929D03*
X004006Y003929D03*
X004011Y003929D03*
X004016Y003929D03*
X004021Y003929D03*
X004026Y003929D03*
X004031Y003929D03*
X004036Y003929D03*
X004041Y003929D03*
X004046Y003929D03*
X004051Y003929D03*
X004056Y003929D03*
X004071Y003934D03*
X004076Y003934D03*
X004081Y003934D03*
X004086Y003934D03*
X004091Y003939D03*
X004096Y003939D03*
X004101Y003939D03*
X004111Y003944D03*
X004116Y003944D03*
D103*
X004141Y003954D03*
X004151Y003959D03*
X004161Y003964D03*
X004171Y003969D03*
X004181Y003974D03*
X003901Y003954D03*
X003891Y003959D03*
X003881Y003964D03*
X003871Y003969D03*
X003861Y003974D03*
X003631Y004214D03*
X003621Y004209D03*
X003366Y004214D03*
X003356Y004219D03*
X003351Y004224D03*
X003341Y004229D03*
X004586Y005424D03*
X004481Y006259D03*
X004476Y006264D03*
X004471Y006264D03*
X004466Y006269D03*
X004461Y006269D03*
X004071Y006729D03*
X004061Y006734D03*
X004056Y006739D03*
X004051Y006739D03*
X004046Y006744D03*
X004036Y006749D03*
X003766Y006744D03*
X003761Y006744D03*
X003756Y006739D03*
X003746Y006734D03*
X003606Y006629D03*
X003586Y006639D03*
X003576Y006644D03*
X003571Y006649D03*
X003561Y006654D03*
X003551Y006659D03*
X003296Y006659D03*
X003286Y006654D03*
X003276Y006649D03*
X003271Y006644D03*
X003266Y006644D03*
X003261Y006639D03*
X003126Y005874D03*
D104*
X003131Y005586D03*
X003306Y005336D03*
X004411Y006291D03*
X004421Y006286D03*
X004426Y006286D03*
X004436Y006281D03*
X004441Y006281D03*
X004446Y006276D03*
X004451Y006276D03*
X004456Y006271D03*
X004041Y006746D03*
X004031Y006751D03*
X004026Y006751D03*
X004021Y006756D03*
X004016Y006756D03*
X004011Y006761D03*
X004006Y006761D03*
X003991Y006766D03*
X003836Y006771D03*
X003816Y006766D03*
X003806Y006761D03*
X003801Y006761D03*
X003791Y006756D03*
X003786Y006756D03*
X003781Y006751D03*
X003776Y006751D03*
X003771Y006746D03*
X003566Y006651D03*
X003556Y006656D03*
X003546Y006661D03*
X003541Y006661D03*
X003536Y006666D03*
X003531Y006666D03*
X003521Y006671D03*
X003516Y006671D03*
X003346Y006676D03*
X003326Y006671D03*
X003316Y006666D03*
X003311Y006666D03*
X003306Y006661D03*
X003301Y006661D03*
X003291Y006656D03*
X003281Y006651D03*
X003361Y004216D03*
X003371Y004211D03*
X003376Y004211D03*
X003381Y004206D03*
X003386Y004206D03*
X003391Y004201D03*
X003396Y004201D03*
X003401Y004201D03*
X003411Y004196D03*
X003571Y004191D03*
X003591Y004196D03*
X003601Y004201D03*
X003606Y004201D03*
X003611Y004206D03*
X003616Y004206D03*
X003626Y004211D03*
X003636Y004216D03*
X003876Y003966D03*
X003886Y003961D03*
X003896Y003956D03*
X003906Y003951D03*
X003911Y003951D03*
X003916Y003946D03*
X003921Y003946D03*
X003931Y003941D03*
X003936Y003941D03*
X004106Y003941D03*
X004121Y003946D03*
X004126Y003946D03*
X004131Y003951D03*
X004136Y003951D03*
X004146Y003956D03*
X004156Y003961D03*
X004166Y003966D03*
D105*
X004066Y003931D03*
X004061Y003931D03*
X003976Y003931D03*
X003546Y004186D03*
X003456Y004186D03*
X003451Y004186D03*
X003356Y005406D03*
X003131Y005871D03*
X003366Y006681D03*
X003396Y006686D03*
X003401Y006686D03*
X003406Y006686D03*
X003411Y006686D03*
X003416Y006686D03*
X003421Y006686D03*
X003426Y006686D03*
X003446Y006686D03*
X003451Y006686D03*
X003456Y006686D03*
X003861Y006776D03*
X003866Y006776D03*
X003941Y006776D03*
X003946Y006776D03*
X003951Y006776D03*
X004361Y006301D03*
X004366Y006301D03*
X004391Y006296D03*
X004581Y005426D03*
X004686Y004861D03*
D106*
X004686Y005784D03*
X003136Y004709D03*
D107*
X003171Y004921D03*
X003316Y005356D03*
X003211Y004361D03*
X003671Y004191D03*
X003736Y004101D03*
X004306Y004101D03*
X004451Y004406D03*
X004606Y005431D03*
X003136Y006511D03*
D108*
X003226Y006614D03*
X003231Y006619D03*
X003236Y006624D03*
X003706Y006704D03*
X003711Y006709D03*
X003716Y006714D03*
X003721Y006714D03*
X003726Y006719D03*
X003731Y006724D03*
X004086Y006719D03*
X004091Y006714D03*
X004096Y006709D03*
X004101Y006709D03*
X004511Y006239D03*
X004516Y006234D03*
X003141Y005579D03*
X003306Y004254D03*
X003311Y004249D03*
X003316Y004244D03*
X003821Y004004D03*
X003826Y003999D03*
X003831Y003994D03*
X003841Y003989D03*
X004201Y003989D03*
X004211Y003994D03*
X004216Y003999D03*
X004221Y004004D03*
X004461Y004429D03*
D109*
X003846Y004979D03*
X003846Y005144D03*
X003851Y005144D03*
X003516Y005549D03*
X003511Y005549D03*
X003711Y005679D03*
X003716Y005679D03*
X003146Y005864D03*
X003376Y004924D03*
X003381Y004924D03*
X004566Y005424D03*
D110*
X004451Y005306D03*
X004671Y004826D03*
X004356Y004516D03*
X003921Y005031D03*
X003911Y005026D03*
X003876Y005141D03*
X003871Y005141D03*
X003806Y005181D03*
X003801Y005181D03*
X003796Y005186D03*
X003791Y005191D03*
X003786Y005191D03*
X003781Y005196D03*
X003776Y005196D03*
X003771Y005201D03*
X003761Y005206D03*
X003756Y005211D03*
X003751Y005211D03*
X003746Y005216D03*
X003736Y005221D03*
X003731Y005226D03*
X003726Y005226D03*
X003721Y005231D03*
X003711Y005236D03*
X003701Y005241D03*
X003696Y005246D03*
X003686Y005251D03*
X003676Y005256D03*
X003661Y005266D03*
X003651Y005271D03*
X003636Y005281D03*
X003626Y005286D03*
X003616Y005291D03*
X003481Y005546D03*
X003476Y005546D03*
X003771Y005696D03*
X003776Y005696D03*
X003781Y005701D03*
X003786Y005701D03*
X003151Y005866D03*
X003356Y004921D03*
D111*
X003156Y004684D03*
D112*
X003161Y004676D03*
D113*
X003166Y004479D03*
X004421Y004359D03*
D114*
X003171Y004451D03*
X004651Y006036D03*
X004301Y006381D03*
D115*
X004521Y006231D03*
X004526Y006226D03*
X004531Y006221D03*
X004111Y006696D03*
X004106Y006701D03*
X003701Y006701D03*
X003696Y006696D03*
X003621Y006631D03*
X003221Y006611D03*
X003216Y006606D03*
X003211Y006601D03*
X003206Y006596D03*
X004591Y005426D03*
X003646Y004211D03*
X003801Y004021D03*
X003806Y004016D03*
X003811Y004011D03*
X003816Y004006D03*
X004226Y004006D03*
X004231Y004011D03*
X004236Y004016D03*
X003301Y004256D03*
X003296Y004261D03*
X003291Y004266D03*
D116*
X003271Y004916D03*
X003716Y004956D03*
X003721Y004956D03*
X003371Y005536D03*
X003946Y005751D03*
X003951Y005751D03*
X004551Y005421D03*
D117*
X004541Y005319D03*
X004536Y005319D03*
X003946Y005134D03*
X003941Y005134D03*
X003726Y004959D03*
X003276Y004919D03*
X003376Y005534D03*
X003381Y005534D03*
X003936Y005749D03*
X003941Y005749D03*
D118*
X003931Y005746D03*
X003926Y005746D03*
X004526Y005316D03*
X004531Y005316D03*
X004771Y005781D03*
X003936Y005136D03*
X003731Y004956D03*
X003281Y004916D03*
X003386Y005536D03*
X003391Y005536D03*
D119*
X003906Y005739D03*
X003911Y005739D03*
X003916Y005744D03*
X003921Y005744D03*
X003931Y005134D03*
X003741Y004959D03*
X003736Y004959D03*
X003291Y004919D03*
X003286Y004919D03*
D120*
X003301Y004919D03*
X003306Y004919D03*
X003756Y004964D03*
X003416Y005539D03*
X003411Y005539D03*
X003406Y005539D03*
X003886Y005734D03*
X003891Y005734D03*
X004506Y005314D03*
X004511Y005314D03*
D121*
X004386Y005296D03*
X004381Y005296D03*
X003826Y005146D03*
X003821Y005146D03*
X003881Y004986D03*
X003886Y004986D03*
X003411Y004921D03*
X003551Y005551D03*
X003641Y005656D03*
X003651Y005661D03*
X003656Y005661D03*
D122*
X003846Y005721D03*
X003851Y005721D03*
X003436Y005541D03*
X003431Y005541D03*
X003906Y005136D03*
X003781Y004966D03*
X003776Y004966D03*
X004486Y005311D03*
X004491Y005311D03*
D123*
X004261Y006434D03*
X004251Y006449D03*
X004246Y006459D03*
D124*
X004256Y006441D03*
X004411Y004346D03*
D125*
X004636Y005444D03*
X004751Y005784D03*
X004281Y006409D03*
D126*
X004291Y006394D03*
X004656Y006019D03*
X004426Y004364D03*
D127*
X004361Y004306D03*
X004766Y005016D03*
D128*
X004366Y004309D03*
D129*
X004376Y004319D03*
X004736Y005784D03*
D130*
X004381Y004321D03*
D131*
X004431Y004369D03*
D132*
X004641Y005449D03*
D133*
X004646Y005451D03*
D134*
X004651Y005459D03*
X004776Y004999D03*
D135*
X004656Y005469D03*
X004731Y005784D03*
D136*
X004661Y005691D03*
D137*
X004666Y005681D03*
D138*
X004671Y005669D03*
D139*
X004676Y005654D03*
D140*
X004681Y005636D03*
D141*
X004696Y005096D03*
X004701Y005091D03*
D142*
X004701Y005784D03*
D143*
X004706Y005086D03*
D144*
X004706Y005784D03*
D145*
X004711Y005784D03*
X004716Y005079D03*
D146*
X004726Y005069D03*
X004716Y005784D03*
D147*
X004721Y005784D03*
D148*
X004726Y005786D03*
D149*
X004731Y005061D03*
D150*
X004746Y005046D03*
D151*
X004746Y005786D03*
D152*
X004751Y005039D03*
D153*
X004761Y005024D03*
D154*
X004781Y004989D03*
D155*
X005088Y003246D02*
X005232Y003246D01*
X005251Y003056D01*
X005315Y003035D01*
X005375Y003004D01*
X005524Y003125D01*
X005625Y003024D01*
X005504Y002875D01*
X005535Y002815D01*
X005556Y002751D01*
X005746Y002732D01*
X005746Y002588D01*
X005556Y002569D01*
X005535Y002505D01*
X005258Y002505D01*
X005268Y002511D02*
X005231Y002489D01*
X005315Y002285D01*
X005375Y002316D01*
X005524Y002195D01*
X005625Y002296D01*
X005504Y002445D01*
X005535Y002505D01*
X005554Y002562D02*
X005315Y002562D01*
X005324Y002576D02*
X005339Y002617D01*
X005345Y002660D01*
X005339Y002704D01*
X005324Y002745D01*
X005299Y002782D01*
X005266Y002811D01*
X005227Y002832D01*
X005184Y002843D01*
X005140Y002843D01*
X005097Y002833D01*
X005058Y002813D01*
X005024Y002785D01*
X004998Y002749D01*
X004982Y002708D01*
X004976Y002664D01*
X004980Y002620D01*
X004995Y002578D01*
X005019Y002541D01*
X005051Y002511D01*
X005089Y002489D01*
X005005Y002285D01*
X004945Y002316D01*
X004796Y002195D01*
X004695Y002296D01*
X004816Y002445D01*
X004785Y002505D01*
X005062Y002505D01*
X005072Y002447D02*
X004815Y002447D01*
X004785Y002505D02*
X004764Y002569D01*
X004574Y002588D01*
X004574Y002732D01*
X004764Y002751D01*
X004785Y002815D01*
X004816Y002875D01*
X004695Y003024D01*
X004796Y003125D01*
X004945Y003004D01*
X005005Y003035D01*
X005069Y003056D01*
X005088Y003246D01*
X005083Y003195D02*
X005237Y003195D01*
X005243Y003138D02*
X005077Y003138D01*
X005071Y003080D02*
X005249Y003080D01*
X005340Y003023D02*
X004980Y003023D01*
X004922Y003023D02*
X004695Y003023D01*
X004742Y002965D02*
X005578Y002965D01*
X005625Y003023D02*
X005398Y003023D01*
X005468Y003080D02*
X005569Y003080D01*
X005531Y002908D02*
X004789Y002908D01*
X004803Y002850D02*
X005517Y002850D01*
X005542Y002792D02*
X005287Y002792D01*
X005328Y002735D02*
X005717Y002735D01*
X005746Y002677D02*
X005342Y002677D01*
X005340Y002620D02*
X005746Y002620D01*
X005505Y002447D02*
X005248Y002447D01*
X005272Y002390D02*
X005549Y002390D01*
X005596Y002332D02*
X005296Y002332D01*
X005426Y002274D02*
X005603Y002274D01*
X005546Y002217D02*
X005496Y002217D01*
X005268Y002511D02*
X005300Y002540D01*
X005324Y002576D01*
X005005Y002562D02*
X004766Y002562D01*
X004771Y002390D02*
X005048Y002390D01*
X005024Y002332D02*
X004724Y002332D01*
X004717Y002274D02*
X004894Y002274D01*
X004824Y002217D02*
X004774Y002217D01*
X004574Y002620D02*
X004980Y002620D01*
X004977Y002677D02*
X004574Y002677D01*
X004603Y002735D02*
X004993Y002735D01*
X005033Y002792D02*
X004778Y002792D01*
X004751Y003080D02*
X004852Y003080D01*
M02*
